<svg width="194" height="120" viewBox="0 0 194 120" fill="none" xmlns="http://www.w3.org/2000/svg">
<path fill-rule="evenodd" clip-rule="evenodd" d="M36.2416 119.319C35.5366 119.363 34.8258 119.385 34.1099 119.385C15.2715 119.385 0 104.113 0 85.2749C0 66.4365 15.2715 51.165 34.1099 51.165C36.1275 51.165 38.1043 51.3402 40.0257 51.6762C41.2915 22.9227 65.0032 0 94.0687 0C116.676 0 136.044 13.8678 144.131 33.5607C146.314 33.2206 148.551 33.0441 150.83 33.0441C174.672 33.0441 194 52.3721 194 76.2144C194 100.057 174.672 119.385 150.83 119.385C149.935 119.385 149.046 119.358 148.165 119.304V119.385H36.2416V119.319Z" fill="#FFAB64"/>
</svg>
