<?xml version="1.0" encoding="UTF-8" standalone="no"?>
<!DOCTYPE svg PUBLIC "-//W3C//DTD SVG 1.1//EN" "http://www.w3.org/Graphics/SVG/1.1/DTD/svg11.dtd">
<svg width="100%" height="100%" viewBox="0 0 464 217" version="1.1" xmlns="http://www.w3.org/2000/svg" xmlns:xlink="http://www.w3.org/1999/xlink" xml:space="preserve" xmlns:serif="http://www.serif.com/" style="fill-rule:evenodd;clip-rule:evenodd;stroke-linejoin:round;stroke-miterlimit:2;">
    <g transform="matrix(1,0,0,1,-1971,-397)">
        <g id="final-logo" transform="matrix(2.84663,0,0,2.67901,-2680.39,-1122)">
            <rect x="1634" y="567" width="163" height="81" style="fill:none;"/>
            <g transform="matrix(53.0971,0,0,56.4191,1634.52,634.647)">
                <path d="M0.249,0.006C0.204,0.006 0.163,-0.002 0.127,-0.018C0.09,-0.034 0.062,-0.057 0.041,-0.087C0.02,-0.117 0.01,-0.152 0.01,-0.193C0.01,-0.218 0.016,-0.235 0.027,-0.244C0.038,-0.252 0.054,-0.256 0.076,-0.256C0.093,-0.256 0.107,-0.253 0.12,-0.248C0.133,-0.242 0.139,-0.231 0.14,-0.215C0.141,-0.199 0.145,-0.183 0.151,-0.166C0.156,-0.149 0.166,-0.136 0.181,-0.125C0.196,-0.114 0.217,-0.108 0.244,-0.108C0.278,-0.108 0.304,-0.117 0.323,-0.137C0.341,-0.156 0.35,-0.184 0.35,-0.223L0.35,-0.617L0.247,-0.617C0.234,-0.617 0.225,-0.623 0.218,-0.634C0.211,-0.645 0.207,-0.659 0.207,-0.675C0.207,-0.688 0.21,-0.701 0.217,-0.713C0.223,-0.725 0.233,-0.731 0.247,-0.731L0.422,-0.731C0.437,-0.731 0.45,-0.728 0.462,-0.721C0.474,-0.714 0.48,-0.703 0.48,-0.69L0.48,-0.223C0.48,-0.168 0.469,-0.123 0.449,-0.09C0.428,-0.056 0.4,-0.032 0.365,-0.017C0.33,-0.002 0.292,0.006 0.249,0.006Z" style="fill:rgb(49,45,41);fill-rule:nonzero;"/>
            </g>
            <g transform="matrix(53.0971,0,0,56.4191,1662.77,634.647)">
                <path d="M0.248,0.009C0.209,0.009 0.174,-0.001 0.141,-0.02C0.108,-0.039 0.082,-0.064 0.062,-0.095C0.042,-0.126 0.032,-0.16 0.032,-0.196L0.032,-0.278C0.032,-0.314 0.042,-0.347 0.061,-0.379C0.08,-0.409 0.107,-0.434 0.14,-0.453C0.172,-0.472 0.209,-0.481 0.248,-0.481C0.287,-0.481 0.324,-0.472 0.357,-0.454C0.39,-0.435 0.416,-0.411 0.436,-0.38C0.455,-0.349 0.465,-0.315 0.465,-0.278L0.465,-0.196C0.465,-0.161 0.455,-0.127 0.435,-0.096C0.415,-0.065 0.389,-0.039 0.356,-0.02C0.323,-0.001 0.287,0.009 0.248,0.009ZM0.248,-0.104C0.264,-0.104 0.279,-0.108 0.292,-0.117C0.305,-0.126 0.316,-0.137 0.324,-0.152C0.332,-0.166 0.336,-0.181 0.336,-0.196L0.336,-0.278C0.336,-0.293 0.332,-0.308 0.324,-0.321C0.316,-0.334 0.306,-0.345 0.293,-0.355C0.28,-0.364 0.265,-0.368 0.248,-0.368C0.232,-0.368 0.217,-0.364 0.204,-0.355C0.191,-0.346 0.18,-0.335 0.172,-0.322C0.165,-0.308 0.161,-0.293 0.161,-0.278L0.161,-0.196C0.161,-0.181 0.165,-0.166 0.172,-0.152C0.18,-0.137 0.191,-0.126 0.204,-0.117C0.217,-0.108 0.232,-0.104 0.248,-0.104Z" style="fill:rgb(49,45,41);fill-rule:nonzero;"/>
            </g>
            <g transform="matrix(53.0971,0,0,56.4191,1689.16,634.647)">
                <path d="M0.115,-0C0.096,-0 0.081,-0.004 0.069,-0.013C0.057,-0.022 0.051,-0.031 0.051,-0.041L0.051,-0.712C0.051,-0.724 0.057,-0.734 0.069,-0.741C0.081,-0.748 0.096,-0.752 0.115,-0.752C0.133,-0.752 0.148,-0.748 0.161,-0.741C0.174,-0.734 0.18,-0.724 0.18,-0.712L0.18,-0.405C0.19,-0.424 0.206,-0.442 0.227,-0.458C0.248,-0.473 0.275,-0.481 0.306,-0.481C0.337,-0.481 0.366,-0.472 0.392,-0.454C0.418,-0.435 0.439,-0.411 0.455,-0.38C0.47,-0.349 0.478,-0.315 0.478,-0.278L0.478,-0.041C0.478,-0.028 0.471,-0.018 0.458,-0.011C0.445,-0.004 0.43,-0 0.413,-0C0.398,-0 0.384,-0.004 0.37,-0.011C0.356,-0.018 0.349,-0.028 0.349,-0.041L0.349,-0.278C0.349,-0.293 0.345,-0.308 0.337,-0.321C0.329,-0.334 0.319,-0.345 0.306,-0.355C0.293,-0.364 0.278,-0.368 0.262,-0.368C0.249,-0.368 0.236,-0.364 0.223,-0.357C0.21,-0.35 0.2,-0.339 0.192,-0.326C0.184,-0.313 0.18,-0.297 0.18,-0.278L0.18,-0.041C0.18,-0.031 0.174,-0.022 0.161,-0.013C0.148,-0.004 0.133,-0 0.115,-0Z" style="fill:rgb(49,45,41);fill-rule:nonzero;"/>
            </g>
            <g transform="matrix(53.0971,0,0,56.4191,1716.98,634.647)">
                <path d="M0.114,-0C0.095,-0 0.08,-0.004 0.068,-0.013C0.056,-0.022 0.05,-0.031 0.05,-0.041L0.05,-0.435C0.05,-0.447 0.056,-0.457 0.068,-0.464C0.08,-0.471 0.095,-0.475 0.114,-0.475C0.13,-0.475 0.143,-0.471 0.155,-0.464C0.166,-0.457 0.171,-0.447 0.171,-0.435L0.171,-0.405C0.181,-0.424 0.198,-0.442 0.221,-0.458C0.244,-0.473 0.272,-0.481 0.305,-0.481C0.336,-0.481 0.365,-0.472 0.391,-0.454C0.417,-0.435 0.438,-0.411 0.454,-0.38C0.469,-0.349 0.477,-0.315 0.477,-0.278L0.477,-0.041C0.477,-0.028 0.47,-0.018 0.457,-0.011C0.444,-0.004 0.429,-0 0.412,-0C0.397,-0 0.383,-0.004 0.369,-0.011C0.355,-0.018 0.348,-0.028 0.348,-0.041L0.348,-0.278C0.348,-0.293 0.344,-0.308 0.337,-0.321C0.329,-0.334 0.318,-0.345 0.305,-0.355C0.292,-0.364 0.277,-0.368 0.261,-0.368C0.248,-0.368 0.235,-0.364 0.222,-0.357C0.209,-0.35 0.199,-0.339 0.191,-0.326C0.183,-0.313 0.179,-0.297 0.179,-0.278L0.179,-0.041C0.179,-0.031 0.173,-0.022 0.16,-0.013C0.147,-0.004 0.132,-0 0.114,-0Z" style="fill:rgb(49,45,41);fill-rule:nonzero;"/>
            </g>
            <g transform="matrix(53.0971,0,0,56.4191,1744.75,634.647)">
                <path d="M0.114,-0C0.095,-0 0.08,-0.004 0.068,-0.013C0.056,-0.022 0.05,-0.031 0.05,-0.041L0.05,-0.435C0.05,-0.447 0.056,-0.457 0.068,-0.464C0.08,-0.471 0.095,-0.475 0.114,-0.475C0.13,-0.475 0.143,-0.471 0.155,-0.464C0.166,-0.457 0.171,-0.447 0.171,-0.435L0.171,-0.405C0.181,-0.424 0.198,-0.442 0.221,-0.458C0.244,-0.473 0.272,-0.481 0.305,-0.481C0.336,-0.481 0.365,-0.472 0.391,-0.454C0.417,-0.435 0.438,-0.411 0.454,-0.38C0.469,-0.349 0.477,-0.315 0.477,-0.278L0.477,-0.041C0.477,-0.028 0.47,-0.018 0.457,-0.011C0.444,-0.004 0.429,-0 0.412,-0C0.397,-0 0.383,-0.004 0.369,-0.011C0.355,-0.018 0.348,-0.028 0.348,-0.041L0.348,-0.278C0.348,-0.293 0.344,-0.308 0.337,-0.321C0.329,-0.334 0.318,-0.345 0.305,-0.355C0.292,-0.364 0.277,-0.368 0.261,-0.368C0.248,-0.368 0.235,-0.364 0.222,-0.357C0.209,-0.35 0.199,-0.339 0.191,-0.326C0.183,-0.313 0.179,-0.297 0.179,-0.278L0.179,-0.041C0.179,-0.031 0.173,-0.022 0.16,-0.013C0.147,-0.004 0.132,-0 0.114,-0Z" style="fill:rgb(49,45,41);fill-rule:nonzero;"/>
            </g>
            <g transform="matrix(53.0971,0,0,56.4191,1772.2,634.647)">
                <path d="M0.064,0.221C0.047,0.221 0.033,0.218 0.022,0.211C0.011,0.205 0.005,0.19 0.005,0.166C0.005,0.151 0.008,0.139 0.013,0.128C0.018,0.117 0.026,0.112 0.038,0.112C0.049,0.112 0.063,0.11 0.078,0.106C0.093,0.102 0.108,0.094 0.123,0.083C0.138,0.072 0.151,0.057 0.162,0.038C0.173,0.019 0.179,-0.005 0.181,-0.035L0.009,-0.403C0.006,-0.409 0.005,-0.415 0.005,-0.42C0.005,-0.431 0.01,-0.442 0.02,-0.451C0.029,-0.46 0.041,-0.468 0.054,-0.473C0.067,-0.479 0.08,-0.482 0.091,-0.482C0.099,-0.482 0.107,-0.48 0.114,-0.477C0.121,-0.474 0.125,-0.468 0.128,-0.46L0.248,-0.161L0.344,-0.46C0.347,-0.468 0.352,-0.474 0.359,-0.477C0.366,-0.48 0.372,-0.482 0.379,-0.482C0.389,-0.482 0.401,-0.479 0.415,-0.473C0.429,-0.468 0.441,-0.46 0.452,-0.451C0.462,-0.441 0.467,-0.43 0.467,-0.418C0.467,-0.412 0.466,-0.407 0.464,-0.403L0.318,-0.03C0.306,-0 0.294,0.03 0.283,0.059C0.272,0.089 0.258,0.116 0.241,0.14C0.224,0.165 0.201,0.184 0.173,0.199C0.145,0.214 0.109,0.221 0.064,0.221Z" style="fill:rgb(49,45,41);fill-rule:nonzero;"/>
            </g>
            <g transform="matrix(0.16513,0,0,0.175462,1610.41,523.544)">
                <path d="M723.986,342.996C723.247,338.784 722.862,334.451 722.862,330.029C722.862,288.78 756.351,255.291 797.601,255.291C830.315,255.291 858.149,276.356 868.264,305.645C875.752,302.769 883.884,301.193 892.382,301.193C929.571,301.193 959.764,331.386 959.764,368.575C959.764,405.764 929.571,435.957 892.382,435.957C892.193,435.957 892.003,435.957 891.81,435.955L891.81,435.957L705,435.957L705,435.951C678.733,435.524 657.54,414.068 657.54,387.701C657.54,361.068 679.163,339.445 705.796,339.445C712.231,339.445 718.373,340.707 723.986,342.996ZM753.957,390.761L754.055,390.761L753.982,390.709L753.961,390.694L753.957,390.761Z" style="fill:url(#_Linear1);"/>
            </g>
        </g>
    </g>
    <defs>
        <linearGradient id="_Linear1" x1="0" y1="0" x2="1" y2="0" gradientUnits="userSpaceOnUse" gradientTransform="matrix(318,-156,93.2552,190.097,586.54,475.876)"><stop offset="0" style="stop-color:rgb(255,151,0);stop-opacity:1"/><stop offset="0.31" style="stop-color:rgb(255,59,27);stop-opacity:1"/><stop offset="1" style="stop-color:rgb(255,164,49);stop-opacity:1"/></linearGradient>
    </defs>
</svg>
