<svg width="135" height="83" viewBox="0 0 135 83" fill="none" xmlns="http://www.w3.org/2000/svg">
<path fill-rule="evenodd" clip-rule="evenodd" d="M25.1964 82.9544C24.7063 82.9847 24.2121 83 23.7143 83C10.6172 83 0 72.3828 0 59.2857C0 46.1887 10.6172 35.5714 23.7143 35.5714C25.117 35.5714 26.4913 35.6932 27.8271 35.9268C28.7072 15.9365 45.1923 0 65.3996 0C81.1169 0 94.5823 9.64131 100.204 23.3324C101.722 23.0959 103.278 22.9732 104.862 22.9732C121.438 22.9732 134.875 36.4107 134.875 52.9866C134.875 69.5625 121.438 83 104.862 83C104.239 83 103.622 82.9811 103.009 82.9438V83H25.1964V82.9544Z" fill="#EEB98C"/>
</svg>
