<svg width="429" height="316" viewBox="0 0 429 316" fill="none" xmlns="http://www.w3.org/2000/svg">
<g clip-path="url(#clip0)">
<path fill-rule="evenodd" clip-rule="evenodd" d="M299.955 10.2389C299.955 4.55933 295.341 -0.0517426 289.663 -0.0517426H10.294C4.6128 -0.0517426 0 4.55933 0 10.2389V195.47C0 201.149 4.6128 205.76 10.294 205.76H289.663C295.341 205.76 299.955 201.149 299.955 195.47V10.2389Z" fill="#212121"/>
<path fill-rule="evenodd" clip-rule="evenodd" d="M428.997 73.4815C428.997 66.4433 423.282 60.7291 416.24 60.7291H141.798C134.758 60.7291 129.042 66.4433 129.042 73.4815V303.025C129.042 310.063 134.758 315.778 141.798 315.778H416.24C423.282 315.778 428.997 310.063 428.997 303.025V73.4815Z" fill="#DBD2C9"/>
<path d="M429 101.571H129.829V304.714H429V101.571Z" fill="#FFFAF6"/>
<path fill-rule="evenodd" clip-rule="evenodd" d="M397.831 76.0153C397.831 73.164 395.515 70.8491 392.662 70.8491H240.596C237.743 70.8491 235.428 73.164 235.428 76.0153V86.3475C235.428 89.1988 237.743 91.5137 240.596 91.5137H392.662C395.515 91.5137 397.831 89.1988 397.831 86.3475V76.0153Z" fill="#FFFAF6"/>
<path d="M25.6408 60.7036V52.4884L48.3526 44.4078V43.8018L25.6408 35.7212V27.506L56.7101 40.1655V48.1114L25.6408 60.7036Z" fill="#3BE140"/>
<path d="M151.147 91.4193C156.587 91.4193 160.997 87.0104 160.997 81.5718C160.997 76.1332 156.587 71.7244 151.147 71.7244C145.706 71.7244 141.296 76.1332 141.296 81.5718C141.296 87.0104 145.706 91.4193 151.147 91.4193Z" fill="#EE6A5E"/>
<path d="M178.044 91.4193C183.485 91.4193 187.895 87.0104 187.895 81.5718C187.895 76.1332 183.485 71.7244 178.044 71.7244C172.604 71.7244 168.193 76.1332 168.193 81.5718C168.193 87.0104 172.604 91.4193 178.044 91.4193Z" fill="#F6BE4F"/>
<path d="M204.942 91.4193C210.382 91.4193 214.793 87.0104 214.793 81.5718C214.793 76.1332 210.382 71.7244 204.942 71.7244C199.501 71.7244 195.091 76.1332 195.091 81.5718C195.091 87.0104 199.501 91.4193 204.942 91.4193Z" fill="#56C646"/>
</g>
<defs>
<clipPath id="clip0">
<rect width="429" height="316" fill="white"/>
</clipPath>
</defs>
</svg>
