<svg width="105" height="20" viewBox="0 0 105 20" fill="none" xmlns="http://www.w3.org/2000/svg">
<g clip-path="url(#clip0)">
<path d="M8.64175 9.78697C8.64175 7.98942 7.31622 6.72606 5.68799 6.72606C4.05976 6.72606 2.73423 8.01071 2.73423 9.78697C2.73423 11.5419 4.05976 12.8479 5.68799 12.8479C7.31787 12.8463 8.64175 11.5845 8.64175 9.78697ZM8.66503 15.1371V13.7459C7.86172 14.7094 6.66592 15.3075 5.23395 15.3075C2.25856 15.3075 0 12.9528 0 9.78697C0 6.64084 2.34505 4.24517 5.30048 4.24517C6.6909 4.24517 7.86342 4.84491 8.66667 5.78548V4.43689H11.3377V15.1371H8.66503Z" fill="black"/>
<path d="M24.312 12.7611C23.3773 12.7611 23.1178 12.4186 23.1178 11.5206V6.77026H24.8342V4.43689H23.1178V1.82657H20.3803V4.43689H16.8544V3.78636C16.8544 2.88676 17.202 2.54428 18.1584 2.54428H18.7588V0.468157H17.4415C15.1829 0.468157 14.1185 1.1957 14.1185 3.42095V4.43525H12.5984V6.76864H14.1185V15.1354H16.8561V6.76864H20.382V12.0122C20.382 14.1948 21.2285 15.1371 23.4438 15.1371H24.8558V12.7611H24.312Z" fill="black"/>
<path d="M34.1296 8.82348C33.935 7.43226 32.7825 6.59819 31.4369 6.59819C30.0898 6.59819 28.9821 7.41097 28.7011 8.82348H34.1296ZM28.6778 10.4932C28.874 12.0761 30.0249 12.9757 31.4802 12.9757C32.6311 12.9757 33.5226 12.4399 34.0431 11.5845H36.8455C36.1936 13.8524 34.1296 15.3075 31.4154 15.3075C28.1356 15.3075 25.8338 13.0396 25.8338 9.80826C25.8338 6.5769 28.267 4.24353 31.4818 4.24353C34.7184 4.24353 37.0634 6.59826 37.0634 9.80826C37.0634 10.0443 37.0418 10.2786 36.9985 10.4932H28.6778Z" fill="black"/>
<path d="M54.4684 9.78697C54.4684 8.05329 53.1428 6.72606 51.5146 6.72606C49.8864 6.72606 48.5608 8.01071 48.5608 9.78697C48.5608 11.5419 49.8864 12.8479 51.5146 12.8479C53.1428 12.8463 54.4684 11.5206 54.4684 9.78697ZM45.8665 4.43689H48.5375V5.82808C49.3408 4.84326 50.535 4.24517 51.9686 4.24517C54.9008 4.24517 57.2026 6.62116 57.2026 9.76568C57.2026 12.9118 54.8575 15.3091 51.9038 15.3091C50.535 15.3091 49.4057 14.7733 48.624 13.8754V19.5401H45.8665V4.43689Z" fill="black"/>
<path d="M66.8306 9.78697C66.8306 7.98942 65.5067 6.72606 63.8767 6.72606C62.2486 6.72606 60.923 8.01071 60.923 9.78697C60.923 11.5419 62.2486 12.8479 63.8767 12.8479C65.5067 12.8463 66.8306 11.5845 66.8306 9.78697ZM66.854 15.1371V13.7459C66.0507 14.7094 64.8546 15.3075 63.4225 15.3075C60.4474 15.3075 58.1888 12.9528 58.1888 9.78697C58.1888 6.64084 60.5339 4.24517 63.4877 4.24517C64.878 4.24517 66.0507 4.84491 66.854 5.78548V4.43689H69.5252V15.1371H66.854Z" fill="black"/>
<path d="M41.0516 5.48561C41.0516 5.48561 41.7319 4.24517 43.3967 4.24517C44.1085 4.24517 44.5693 4.48605 44.5693 4.48605V7.216C44.5693 7.216 43.5647 6.60477 42.6416 6.72768C41.7186 6.85058 41.1348 7.68626 41.1382 8.80381V15.1387H38.3807V4.43853H41.0516V5.48561Z" fill="black"/>
<path d="M81.9999 4.43688L75.2559 19.5056H72.412L75.0598 13.6803L70.5828 4.43688H73.8061L76.4254 10.6128L79.1131 4.43688H81.9999Z" fill="black"/>
<path d="M103.528 4.19437L96.8423 0.392781C94.8795 -0.723116 92.4266 0.671349 92.4266 2.90478V3.29478C92.4266 3.64708 92.6176 3.97316 92.9269 4.14849L94.1894 4.86621C94.5601 5.07759 95.0225 4.81377 95.0225 4.39265V3.42259C95.0225 2.93756 95.5551 2.63441 95.9807 2.87693L101.772 6.17055C102.198 6.41306 102.198 7.01936 101.772 7.26026L95.9807 10.5539C95.5551 10.7964 95.0225 10.4932 95.0225 10.0082V9.492C95.0225 7.25858 92.5695 5.86249 90.6055 6.98L83.9197 10.7816C81.9569 11.8975 81.9569 14.6897 83.9197 15.8056L90.6055 19.6072C92.5676 20.7231 95.0225 19.3286 95.0225 17.0952V16.7052C95.0225 16.3529 94.8314 16.0285 94.5221 15.8515L93.2596 15.1321C92.8889 14.9208 92.4266 15.1846 92.4266 15.6057V16.5758C92.4266 17.0608 91.8946 17.3639 91.4683 17.1214L85.6775 13.8278C85.2518 13.5853 85.2518 12.979 85.6775 12.7365L91.4683 9.44284C91.8946 9.20032 92.4266 9.50348 92.4266 9.98852V10.5047C92.4266 12.7381 94.8795 14.1343 96.8423 13.0167L103.528 9.2151C105.491 8.10245 105.491 5.31027 103.528 4.19437Z" fill="black"/>
</g>
<defs>
<clipPath id="clip0">
<rect width="105" height="20" fill="white"/>
</clipPath>
</defs>
</svg>
