<svg width="65" height="47" viewBox="0 0 65 47" fill="none" xmlns="http://www.w3.org/2000/svg">
<path d="M64.3669 17.8518C64.186 17.7003 62.5581 16.458 59.0611 16.458C58.1567 16.458 57.2222 16.5489 56.3178 16.7004C55.6545 12.0646 51.8259 9.82244 51.6752 9.70124L50.7406 9.15585L50.1377 10.0345C49.384 11.2162 48.8113 12.5494 48.4796 13.9129C47.8466 16.5489 48.2385 19.0335 49.5649 21.1545C47.9672 22.0635 45.3746 22.2756 44.8319 22.3059L2.02376 22.3059C0.908331 22.3059 0.00393342 23.2148 0.00393332 24.3359C-0.0563602 28.0931 0.576718 31.8502 1.87302 35.3953C3.3502 39.2736 5.5509 42.1521 8.38468 43.9094C11.5802 45.8789 16.7956 47 22.6742 47C25.3271 47 27.98 46.7576 30.6027 46.2728C34.2505 45.6062 37.7475 44.3336 40.9731 42.4854C43.6261 40.9401 46.0076 38.9706 48.0274 36.6679C51.434 32.8198 53.4538 28.5173 54.931 24.6995L55.534 24.6995C59.242 24.6995 61.5331 23.2148 62.7993 21.9423C63.6434 21.1545 64.2765 20.1849 64.7287 19.0941L65 18.3063L64.3669 17.8518Z" fill="#0091E2"/>
<path d="M5.9792 21.0584L11.7007 21.0584C11.9717 21.0584 12.2126 20.8451 12.2126 20.5404L12.2126 15.3596C12.2126 15.0853 12.0018 14.8415 11.7007 14.8415L5.97921 14.8415C5.70819 14.8415 5.46728 15.0548 5.46728 15.3596L5.46728 20.5404C5.4974 20.8451 5.70819 21.0584 5.9792 21.0584ZM13.8688 21.0584L19.5903 21.0584C19.8613 21.0584 20.1022 20.8451 20.1022 20.5404L20.1022 15.3596C20.1022 15.0853 19.8914 14.8415 19.5903 14.8415L13.8688 14.8415C13.5978 14.8415 13.3569 15.0548 13.3569 15.3596L13.3569 20.5404C13.387 20.8451 13.5978 21.0584 13.8688 21.0584ZM21.909 21.0584L27.6305 21.0584C27.9015 21.0584 28.1424 20.8451 28.1424 20.5404L28.1424 15.3596C28.1424 15.0853 27.9316 14.8415 27.6305 14.8415L21.909 14.8415C21.638 14.8415 21.3971 15.0548 21.3971 15.3596L21.3971 20.5404C21.3971 20.8451 21.6079 21.0584 21.909 21.0584ZM29.8287 21.0584L35.5502 21.0584C35.8212 21.0584 36.0621 20.8451 36.0621 20.5404L36.0621 15.3596C36.0621 15.0853 35.8513 14.8415 35.5502 14.8415L29.8287 14.8415C29.5577 14.8415 29.3168 15.0548 29.3168 15.3596L29.3168 20.5404C29.3168 20.8451 29.5577 21.0584 29.8287 21.0584ZM13.8688 13.6529L19.5903 13.6529C19.8613 13.6529 20.1022 13.4091 20.1022 13.1349L20.1022 7.95406C20.1022 7.67978 19.8914 7.43598 19.5903 7.43598L13.8688 7.43598C13.5978 7.43598 13.3569 7.64931 13.3569 7.95406L13.3569 13.1349C13.387 13.4091 13.5978 13.6529 13.8688 13.6529ZM21.909 13.6529L27.6305 13.6529C27.9015 13.6529 28.1424 13.4091 28.1424 13.1349L28.1424 7.95406C28.1424 7.67978 27.9316 7.43598 27.6305 7.43598L21.909 7.43598C21.638 7.43598 21.3971 7.64931 21.3971 7.95406L21.3971 13.1349C21.3971 13.4091 21.6079 13.6529 21.909 13.6529ZM29.8287 13.6529L35.5502 13.6529C35.8212 13.6529 36.0621 13.4091 36.0621 13.1349L36.0621 7.95406C36.0621 7.67978 35.8212 7.43598 35.5502 7.43598L29.8287 7.43598C29.5577 7.43598 29.3168 7.64931 29.3168 7.95406L29.3168 13.1349C29.3168 13.4091 29.5577 13.6529 29.8287 13.6529ZM29.8287 6.21696L35.5502 6.21696C35.8212 6.21697 36.0621 6.00364 36.0621 5.69889L36.0621 0.518087C36.0621 0.243809 35.8212 2.66635e-06 35.5502 2.64254e-06L29.8287 2.13996e-06C29.5577 2.11615e-06 29.3168 0.213333 29.3168 0.518086L29.3168 5.69889C29.3168 5.97317 29.5577 6.21696 29.8287 6.21696ZM37.8087 21.0584L43.5301 21.0584C43.8011 21.0584 44.0421 20.8451 44.0421 20.5404L44.0421 15.3596C44.0421 15.0853 43.8313 14.8415 43.5301 14.8415L37.8087 14.8415C37.5376 14.8415 37.2967 15.0548 37.2967 15.3596L37.2967 20.5404C37.3269 20.8451 37.5376 21.0584 37.8087 21.0584Z" fill="#0091E2"/>
</svg>
