<svg width="179" height="107" viewBox="0 0 179 107" fill="none" xmlns="http://www.w3.org/2000/svg">
<g clip-path="url(#clip0)">
<path fill-rule="evenodd" clip-rule="evenodd" d="M39.2122 51.8286C38.7761 49.3427 38.5489 46.7855 38.5489 44.1757C38.5489 19.8315 58.3133 0.0671387 82.6581 0.0671387C101.965 0.0671387 118.392 12.4992 124.362 29.7849C128.781 28.0875 133.58 27.1574 138.596 27.1574C160.544 27.1574 178.363 44.9766 178.363 66.9247C178.363 88.8727 160.544 106.692 138.596 106.692C138.484 106.692 138.372 106.692 138.258 106.691V106.692H28.0071V106.688C12.505 106.436 -0.00263977 93.7736 -0.00263977 78.2124C-0.00263977 62.4942 12.7588 49.7328 28.4769 49.7328C32.2747 49.7328 35.8996 50.4776 39.2122 51.8286ZM56.9004 80.0183H56.9582L56.9152 79.9876L56.9028 79.9788L56.9004 80.0183Z" fill="url(#paint0_linear)"/>
</g>
<defs>
<linearGradient id="paint0_linear" x1="-41.9052" y1="130.251" x2="145.771" y2="38.1836" gradientUnits="userSpaceOnUse">
<stop stop-color="#FF9700"/>
<stop offset="0.31" stop-color="#FF3B1B"/>
<stop offset="1" stop-color="#FFA431"/>
</linearGradient>
<clipPath id="clip0">
<rect width="179" height="107" fill="white"/>
</clipPath>
</defs>
</svg>
