<svg width="179" height="82" viewBox="0 0 179 82" fill="none" xmlns="http://www.w3.org/2000/svg">
<g clip-path="url(#clip0)">
<path d="M15.094 68.9049C12.47 68.9049 10.0794 68.4384 7.98024 67.5054C5.8228 66.5725 4.19014 65.2314 2.96565 63.4821C1.74116 61.7328 1.15807 59.692 1.15807 57.3014C1.15807 55.8436 1.50792 54.8524 2.14932 54.3276C2.79072 53.8611 3.72367 53.6279 5.00647 53.6279C5.99773 53.6279 6.81406 53.8028 7.57207 54.0944C8.33009 54.4442 8.67995 55.0856 8.73826 56.0186C8.79657 56.9515 9.0298 57.8845 9.37966 58.8757C9.6712 59.867 10.2543 60.625 11.1289 61.2664C12.0036 61.9078 13.2281 62.2576 14.8024 62.2576C16.7849 62.2576 18.301 61.7328 19.4088 60.5667C20.4584 59.4588 20.9832 57.8261 20.9832 55.5521V32.5783H14.9773C14.2193 32.5783 13.6945 32.2285 13.2864 31.5871C12.8782 30.9457 12.645 30.1294 12.645 29.1964C12.645 28.4384 12.8199 27.6804 13.2281 26.9807C13.5779 26.281 14.161 25.9311 14.9773 25.9311H25.1814C26.0561 25.9311 26.8141 26.106 27.5138 26.5142C28.2135 26.9224 28.5634 27.5638 28.5634 28.3218V55.5521C28.5634 58.7591 27.922 61.383 26.7558 63.3072C25.5313 65.2897 23.8986 66.6891 21.8578 67.5637C19.817 68.4384 17.6013 68.9049 15.094 68.9049Z" fill="#312D29"/>
<path d="M46.0563 69.0796C43.7822 69.0796 41.7414 68.4965 39.8172 67.3886C37.893 66.2808 36.3769 64.823 35.2108 63.0155C34.0446 61.2079 33.4615 59.2254 33.4615 57.1262V52.3449C33.4615 50.2458 34.0446 48.3216 35.1525 46.4557C36.2603 44.7064 37.8347 43.2487 39.7589 42.1408C41.6248 41.033 43.7822 40.5082 46.0563 40.5082C48.3303 40.5082 50.4878 41.033 52.412 42.0825C54.3362 43.1904 55.8522 44.5898 57.0184 46.3974C58.1263 48.205 58.7094 50.1875 58.7094 52.3449V57.1262C58.7094 59.1671 58.1263 61.1496 56.9601 62.9571C55.7939 64.7647 54.2779 66.2808 52.3537 67.3886C50.4295 68.4965 48.3303 69.0796 46.0563 69.0796ZM46.0563 62.4907C46.9892 62.4907 47.8639 62.2574 48.6219 61.7327C49.3799 61.2079 50.0213 60.5665 50.4878 59.6918C50.9542 58.8755 51.1875 58.0009 51.1875 57.1262V52.3449C51.1875 51.4703 50.9542 50.5956 50.4878 49.8376C50.0213 49.0796 49.4382 48.4382 48.6802 47.8551C47.9222 47.3303 47.0475 47.0971 46.0563 47.0971C45.1233 47.0971 44.2487 47.3303 43.4907 47.8551C42.7326 48.3799 42.0912 49.0213 41.6248 49.7793C41.2166 50.5956 40.9834 51.4703 40.9834 52.3449V57.1262C40.9834 58.0009 41.2166 58.8755 41.6248 59.6918C42.0912 60.5665 42.7326 61.2079 43.4907 61.7327C44.2487 62.2574 45.1233 62.4907 46.0563 62.4907Z" fill="#312D29"/>
<path d="M67.2815 68.5558C66.1737 68.5558 65.299 68.3226 64.5993 67.7978C63.8996 67.273 63.5497 66.7483 63.5497 66.1652V27.0398C63.5497 26.3401 63.8996 25.757 64.5993 25.3489C65.299 24.9407 66.1737 24.7075 67.2815 24.7075C68.3311 24.7075 69.2057 24.9407 69.9638 25.3489C70.7218 25.757 71.0716 26.3401 71.0716 27.0398V44.9407C71.6547 43.8328 72.5877 42.7833 73.8122 41.8503C75.0366 40.9757 76.611 40.5092 78.4186 40.5092C80.2262 40.5092 81.9171 41.034 83.4332 42.0836C84.9492 43.1914 86.1737 44.5908 87.1066 46.3984C87.9813 48.206 88.4478 50.1885 88.4478 52.3459V66.1652C88.4478 66.9232 88.0396 67.5063 87.2816 67.9144C86.5236 68.3226 85.6489 68.5558 84.6577 68.5558C83.783 68.5558 82.9667 68.3226 82.1504 67.9144C81.334 67.5063 80.9259 66.9232 80.9259 66.1652V52.3459C80.9259 51.4713 80.6926 50.5967 80.2262 49.8387C79.7597 49.0806 79.1766 48.4392 78.4186 47.8561C77.6606 47.3314 76.7859 47.0981 75.853 47.0981C75.095 47.0981 74.3369 47.3314 73.5789 47.7395C72.8209 48.1477 72.2378 48.7891 71.7713 49.5471C71.3049 50.3051 71.0716 51.2381 71.0716 52.3459V66.1652C71.0716 66.7483 70.7218 67.273 69.9638 67.7978C69.2057 68.3226 68.3311 68.5558 67.2815 68.5558Z" fill="#312D29"/>
<path d="M97.7766 68.5548C96.6688 68.5548 95.7941 68.3216 95.0944 67.7968C94.3947 67.272 94.0449 66.7472 94.0449 66.1641V43.1904C94.0449 42.4907 94.3947 41.9076 95.0944 41.4994C95.7941 41.0913 96.6688 40.858 97.7766 40.858C98.7096 40.858 99.4676 41.0913 100.167 41.4994C100.809 41.9076 101.1 42.4907 101.1 43.1904V44.9397C101.683 43.8318 102.675 42.7822 104.016 41.8493C105.357 40.9747 106.989 40.5082 108.914 40.5082C110.721 40.5082 112.412 41.033 113.928 42.0825C115.444 43.1904 116.669 44.5898 117.602 46.3974C118.476 48.205 118.943 50.1875 118.943 52.3449V66.1641C118.943 66.9221 118.535 67.5052 117.777 67.9134C117.019 68.3216 116.144 68.5548 115.153 68.5548C114.278 68.5548 113.462 68.3216 112.645 67.9134C111.829 67.5052 111.421 66.9221 111.421 66.1641V52.3449C111.421 51.4703 111.188 50.5956 110.78 49.8376C110.313 49.0796 109.672 48.4382 108.914 47.8551C108.156 47.3303 107.281 47.0971 106.348 47.0971C105.59 47.0971 104.832 47.3303 104.074 47.7385C103.316 48.1467 102.733 48.7881 102.266 49.5461C101.8 50.3041 101.567 51.237 101.567 52.3449V66.1641C101.567 66.7472 101.217 67.272 100.459 67.7968C99.7008 68.3216 98.8262 68.5548 97.7766 68.5548Z" fill="#312D29"/>
<path d="M128.272 68.5548C127.164 68.5548 126.289 68.3216 125.59 67.7968C124.89 67.272 124.54 66.7472 124.54 66.1641V43.1904C124.54 42.4907 124.89 41.9076 125.59 41.4994C126.289 41.0913 127.164 40.858 128.272 40.858C129.205 40.858 129.963 41.0913 130.663 41.4994C131.304 41.9076 131.596 42.4907 131.596 43.1904V44.9397C132.179 43.8318 133.17 42.7822 134.511 41.8493C135.852 40.9747 137.485 40.5082 139.409 40.5082C141.217 40.5082 142.908 41.033 144.424 42.0825C145.94 43.1904 147.164 44.5898 148.097 46.3974C148.972 48.205 149.438 50.1875 149.438 52.3449V66.1641C149.438 66.9221 149.03 67.5052 148.272 67.9134C147.514 68.3216 146.639 68.5548 145.648 68.5548C144.773 68.5548 143.957 68.3216 143.141 67.9134C142.324 67.5052 141.916 66.9221 141.916 66.1641V52.3449C141.916 51.4703 141.683 50.5956 141.275 49.8376C140.808 49.0796 140.167 48.4382 139.409 47.8551C138.651 47.3303 137.776 47.0971 136.843 47.0971C136.085 47.0971 135.327 47.3303 134.569 47.7385C133.811 48.1467 133.228 48.7881 132.762 49.5461C132.295 50.3041 132.062 51.237 132.062 52.3449V66.1641C132.062 66.7472 131.712 67.272 130.954 67.7968C130.196 68.3216 129.321 68.5548 128.272 68.5548Z" fill="#312D29"/>
<path d="M155.501 81.442C154.51 81.442 153.694 81.2671 153.052 80.859C152.411 80.5091 152.061 79.6345 152.061 78.2351C152.061 77.3604 152.236 76.6607 152.527 76.0193C152.819 75.3779 153.285 75.0864 153.985 75.0864C154.627 75.0864 155.443 74.9697 156.318 74.7365C157.192 74.5033 158.067 74.0368 158.941 73.3954C159.816 72.754 160.574 71.8794 161.215 70.7715C161.857 69.6636 162.207 68.2642 162.323 66.5149L152.294 45.0572C152.119 44.7074 152.061 44.3575 152.061 44.066C152.061 43.4246 152.352 42.7832 152.936 42.2584C153.46 41.7336 154.16 41.2671 154.918 40.9756C155.676 40.6257 156.434 40.4508 157.076 40.4508C157.542 40.4508 158.008 40.5674 158.417 40.7424C158.825 40.9173 159.058 41.2671 159.233 41.7336L166.23 59.168L171.828 41.7336C172.003 41.2671 172.294 40.9173 172.702 40.7424C173.111 40.5674 173.46 40.4508 173.869 40.4508C174.452 40.4508 175.151 40.6257 175.968 40.9756C176.784 41.2671 177.484 41.7336 178.125 42.2584C178.708 42.8415 179 43.4829 179 44.1826C179 44.5324 178.941 44.824 178.825 45.0572L170.312 66.8065C169.612 68.5558 168.912 70.305 168.271 71.996C167.629 73.7453 166.813 75.3196 165.822 76.719C164.831 78.1767 163.49 79.2846 161.857 80.1592C160.224 81.0339 158.125 81.442 155.501 81.442Z" fill="#312D29"/>
<path fill-rule="evenodd" clip-rule="evenodd" d="M105.384 15.9289C105.25 15.1651 105.18 14.3793 105.18 13.5775C105.18 6.09738 111.253 0.0245056 118.733 0.0245056C124.666 0.0245056 129.713 3.84442 131.547 9.15567C132.905 8.63414 134.38 8.34835 135.921 8.34835C142.665 8.34835 148.14 13.8235 148.14 20.5674C148.14 27.3112 142.665 32.7864 135.921 32.7864C135.887 32.7864 135.852 32.7864 135.817 32.786V32.7864H101.941V32.7853C97.1779 32.7079 93.3348 28.817 93.3348 24.0357C93.3348 19.2061 97.2559 15.285 102.085 15.285C103.252 15.285 104.366 15.5138 105.384 15.9289ZM110.819 24.5906H110.837L110.824 24.5811L110.82 24.5784L110.819 24.5906Z" fill="url(#paint0_linear)"/>
</g>
<defs>
<linearGradient id="paint0_linear" x1="80.4597" y1="40.0253" x2="138.126" y2="11.7363" gradientUnits="userSpaceOnUse">
<stop stop-color="#FF9700"/>
<stop offset="0.31" stop-color="#FF3B1B"/>
<stop offset="1" stop-color="#FFA431"/>
</linearGradient>
<clipPath id="clip0">
<rect width="179" height="82" fill="white"/>
</clipPath>
</defs>
</svg>
