<svg width="29" height="40" viewBox="0 0 29 40" fill="none" xmlns="http://www.w3.org/2000/svg">
<path d="M0.417553 21.6272C0.473967 22.8065 1.63623 22.257 2.15529 21.8905C2.6518 21.5356 2.7985 21.8333 2.84358 21.1463C2.87745 20.6884 2.92254 20.2419 2.9 19.784C2.14396 19.7152 1.33151 19.8984 0.710838 20.3564C0.383682 20.5853 -0.203115 21.341 0.41744 21.6272H0.417553ZM23.5837 36.1216C24.4751 36.6826 26.1113 38.3771 24.7685 39.2015C23.4821 40.3922 22.76 37.8848 21.6315 37.5413C22.1167 36.8658 22.726 36.2476 23.5837 36.1216ZM7.62802 38.0336C6.57858 38.1939 5.99178 39.1556 5.1117 39.648C4.28792 40.1403 3.97198 39.4877 3.90424 39.3503C3.78019 39.2931 3.79141 39.4076 3.58829 39.2015C2.82104 37.9764 4.3782 37.0834 5.19066 36.4765C6.31905 36.2476 7.03001 37.2436 7.62802 38.0336ZM28.5374 21.4784C28.4809 22.6576 27.3187 22.1081 26.7996 21.7417C26.3031 21.3868 26.1564 21.6845 26.1113 20.9975C26.0773 20.5396 26.0323 20.093 26.0549 19.6351C26.8108 19.5664 27.6233 19.7496 28.244 20.2075C28.56 20.4365 29.158 21.1922 28.5374 21.4784Z" fill="#F6D2A2"/>
<path d="M25.4568 7.09843C29.4852 5.65585 26.337 0.0573558 22.8275 2.53024C20.5257 0.526646 17.3549 0.160225 14.026 0.160225C10.7651 0.423777 7.66189 1.03053 5.49539 2.9539C1.99715 0.663996 -1.23001 6.1595 2.87734 7.54496C1.7264 12.0787 3.03526 16.7041 2.85469 21.318C2.68544 25.4627 1.61346 31.0153 3.88158 34.7363C5.81122 37.9192 9.96366 39.0527 13.3828 39.1786C17.7497 39.3389 23.0419 38.2512 25.1633 33.9578C27.1944 29.8705 26.6303 24.7757 26.3708 20.3679C26.1112 15.9141 26.5964 11.3918 25.4567 7.09831L25.4568 7.09843Z" fill="#69D7E2"/>
<path d="M28.842 20.78C28.7291 20.5396 28.5148 20.2647 28.3117 20.1159C27.7926 19.7381 27.1268 19.532 26.4385 19.5091C26.4159 18.7993 26.3934 18.0207 26.3934 17.0361V16.1431C26.3821 13.3267 26.3482 12.0902 26.1903 10.5445C26.0661 9.33096 25.8742 8.20894 25.6035 7.15565C26.5175 6.80073 27.1156 6.21684 27.3525 5.46113C27.5782 4.76277 27.4654 3.9728 27.0818 3.27444C26.6868 2.58746 26.0549 2.0722 25.3214 1.86623C24.5315 1.64865 23.674 1.80899 22.8502 2.36989C22.1167 1.74026 21.2705 1.25936 20.3225 0.892938C18.6412 0.263425 16.6892 0.0229759 14.0374 0.0229759V0.137454L14.026 0.0229759C11.1938 0.251931 9.09489 0.698464 7.35716 1.55716C6.65754 1.9006 6.03698 2.31276 5.49538 2.79366C4.66028 2.26702 3.79141 2.14104 2.99028 2.39299C2.24557 2.62194 1.60236 3.16008 1.21868 3.85844C0.834997 4.5568 0.744711 5.35826 1.00424 6.04524C1.26377 6.73211 1.86178 7.27025 2.7533 7.6023C2.47123 8.75857 2.32453 9.98369 2.30199 11.3347C2.27933 12.6513 2.33575 13.7047 2.53886 16.086C2.68556 17.8606 2.74197 18.6734 2.76463 19.6581C1.99726 19.6237 1.23001 19.8298 0.654426 20.2535C0.451313 20.4023 0.225657 20.6656 0.124157 20.9175C-0.022542 21.2381 0.033872 21.5243 0.32727 21.6961C0.372356 22.2456 0.677083 22.4974 1.13972 22.4517C1.47821 22.4173 1.88443 22.2341 2.23425 21.9823C2.30815 21.928 2.3876 21.8819 2.47123 21.8449C2.5051 21.8334 2.52764 21.8219 2.56151 21.8104C2.56151 21.8104 2.62914 21.7877 2.6518 21.7762C2.68556 21.7647 2.71943 21.7532 2.74197 21.7303C2.71943 22.2684 2.67434 22.8295 2.57273 24.1118C2.4599 25.5543 2.40349 26.3444 2.38094 27.2259C2.27933 30.5003 2.66301 32.8817 3.81395 34.7708C4.17509 35.3661 4.61519 35.8928 5.13424 36.3737C5.03263 36.4423 4.60386 36.763 4.46849 36.866C3.99452 37.2324 3.66737 37.5415 3.47547 37.8849C3.22727 38.3314 3.22727 38.778 3.50934 39.2474L3.52067 39.2589L3.532 39.2703C3.65604 39.3962 3.72378 39.4306 3.81406 39.4306H3.84771C3.85904 39.4536 3.87037 39.4649 3.88169 39.4878C3.91545 39.545 3.94932 39.5908 3.98319 39.6367C4.26526 39.9687 4.66016 40.0488 5.19054 39.7283C5.47261 39.5794 5.67573 39.4076 6.1045 39.0413L6.12715 39.0183C6.81545 38.423 7.15393 38.2056 7.66177 38.1253L7.84234 38.091C7.90997 38.1255 7.97772 38.1483 8.05667 38.1826C9.65903 38.8352 11.5208 39.1901 13.4054 39.2589C15.8427 39.3505 18.1898 39.0413 20.1757 38.3086C20.7061 38.114 21.2026 37.8849 21.6766 37.6331C21.97 37.7475 22.2181 37.988 22.6921 38.549C22.7147 38.572 22.7147 38.572 22.7259 38.5947C22.7486 38.6177 22.7486 38.6292 22.7599 38.6406C22.7823 38.675 22.8162 38.6978 22.8387 38.7322C23.2112 39.1786 23.4595 39.3962 23.7416 39.5222C24.1138 39.6824 24.475 39.6023 24.8473 39.2589C25.5019 38.8467 25.5469 38.2056 25.1181 37.4727C24.8135 36.9576 24.2832 36.4194 23.7867 36.076C24.3735 35.4921 24.8812 34.7938 25.2761 34.0037C26.3594 31.8055 26.777 29.2409 26.7544 25.9436C26.7431 24.7758 26.6979 23.7569 26.5738 21.8104V21.7533C26.6303 21.7762 26.6867 21.8105 26.7431 21.8563C27.0929 22.0967 27.4991 22.2913 27.8376 22.3257C28.3002 22.3715 28.605 22.1196 28.6501 21.5701C28.9321 21.3869 28.9885 21.1007 28.8418 20.7801L28.842 20.78ZM25.2538 2.10656C25.9309 2.28977 26.5177 2.77067 26.8787 3.41179C27.2398 4.05292 27.3413 4.77426 27.1382 5.41539C26.9239 6.09087 26.3822 6.62901 25.5358 6.94957C25.3671 6.3366 25.1675 5.73281 24.9378 5.14057C25.2651 4.85437 25.423 4.49945 25.1635 3.99579C24.9041 3.49191 24.4527 3.43467 23.9899 3.58351C23.6965 3.19422 23.3693 2.85078 23.0309 2.53022C23.7756 2.04932 24.5429 1.91197 25.2538 2.10656ZM1.19625 5.9764C0.959266 5.35803 1.03822 4.62542 1.39936 3.9843C1.76039 3.34306 2.34719 2.83941 3.04681 2.63332C3.76898 2.41575 4.54756 2.51873 5.31493 2.97676C4.8712 3.38142 4.47716 3.83887 4.14133 4.33922C3.55454 4.03004 2.95653 3.9728 2.61804 4.60243C2.26823 5.27803 2.67446 5.70158 3.24992 6.02214C3.17097 6.21684 3.0919 6.42293 3.02427 6.62901C2.9452 6.88084 2.86624 7.14416 2.79861 7.40748C1.97483 7.08692 1.43323 6.59464 1.19625 5.9764ZM2.56163 21.5815C2.5503 21.5815 2.48256 21.6043 2.48256 21.6157C2.4488 21.6272 2.41493 21.6387 2.38106 21.6616C2.29077 21.6959 2.20049 21.7532 2.11032 21.8218C1.79426 22.0509 1.41058 22.2226 1.11718 22.2455C0.778696 22.2798 0.586911 22.131 0.55304 21.7188C0.790024 21.6387 0.891524 21.5815 0.981809 21.4441L0.801239 21.3066C0.73361 21.3983 0.665868 21.4326 0.462755 21.5012C0.451426 21.5012 0.451426 21.5012 0.440098 21.5127C0.259641 21.4096 0.22577 21.2494 0.327384 21.0205C0.417669 20.8144 0.620782 20.5739 0.790024 20.4481C1.33162 20.0473 2.05379 19.8527 2.77596 19.8984C2.77596 20.1846 2.78728 20.4708 2.77596 20.7455C2.77596 20.78 2.77596 20.8029 2.76463 20.8372C2.75341 20.9975 2.75341 21.0662 2.74209 21.1464C2.70833 21.4784 2.68567 21.5241 2.56163 21.5815ZM5.96935 38.858L5.9467 38.8809C5.52926 39.2472 5.32614 39.3961 5.06662 39.5449C4.63785 39.8083 4.34445 39.751 4.14133 39.4992C4.10746 39.4647 4.08492 39.419 4.06238 39.3846C4.05105 39.3731 4.03972 39.3503 4.02851 39.3389V39.3274C4.05116 39.1213 4.13012 38.9724 4.33323 38.6519C4.34456 38.6404 4.34456 38.6404 4.34456 38.629C4.4686 38.4458 4.52502 38.3428 4.58143 38.2168L4.37832 38.1252C4.33323 38.2283 4.27682 38.3199 4.16388 38.503C4.15255 38.5145 4.15255 38.5145 4.15255 38.526C3.94955 38.8237 3.85915 39.0068 3.81406 39.2129H3.80274H3.76887C3.74621 39.2014 3.71245 39.1785 3.66737 39.1328C3.22727 38.4229 3.57708 37.8162 4.56999 37.0604C4.69415 36.969 5.1117 36.6713 5.22453 36.5797C5.24719 36.5797 5.26961 36.5682 5.29227 36.5567C5.9015 37.0834 6.61245 37.5413 7.40236 37.9191C7.40236 37.9306 7.41369 37.9421 7.4249 37.9536C6.96226 38.068 6.60112 38.3084 5.96924 38.858H5.96935ZM24.9153 37.6101C25.2651 38.2054 25.2538 38.6862 24.8137 39.0183C24.7799 38.9496 24.7573 38.8694 24.7122 38.755C24.7122 38.7435 24.7122 38.7435 24.7008 38.732C24.5429 38.2969 24.4414 38.1138 24.2495 37.9078L24.0915 38.068C24.2608 38.2283 24.3398 38.4 24.4977 38.8007C24.4977 38.8122 24.4977 38.8122 24.5091 38.8237C24.5655 38.9724 24.5993 39.064 24.6332 39.1443C24.3398 39.3961 24.0803 39.4419 23.8094 39.316C23.5725 39.2129 23.3468 38.9953 22.9857 38.5833C22.9631 38.5603 22.9406 38.526 22.918 38.4916C22.9067 38.4802 22.8954 38.4687 22.884 38.4458C22.8616 38.4229 22.8616 38.4229 22.8503 38.4C22.4327 37.9078 22.1845 37.6444 21.9137 37.4955C22.5457 37.1292 23.1099 36.717 23.6177 36.2361C24.0915 36.591 24.6219 37.1177 24.9153 37.6101ZM25.0732 33.9006C24.1028 35.8813 22.3876 37.278 20.0857 38.1252C18.1223 38.8466 15.7977 39.1443 13.3943 39.0527C9.25303 38.9038 5.66474 37.4384 3.98342 34.6677C2.85503 32.8243 2.48256 30.4773 2.58417 27.2487C2.61804 26.3671 2.66313 25.5772 2.77596 24.1346C2.90011 22.5088 2.93398 22.0394 2.96785 21.3066C2.9904 20.78 2.9904 20.2419 2.97918 19.6695C2.95653 18.6619 2.90011 17.8605 2.75341 16.063C2.5503 13.6816 2.49389 12.6397 2.51643 11.3344C2.55041 9.61727 2.77596 8.10584 3.24992 6.67487C4.01695 4.35049 5.42764 2.78194 7.45877 1.76313C9.16264 0.916041 11.2276 0.480887 14.0374 0.251817C16.6666 0.251817 18.5848 0.492266 20.2436 1.11051C22.2295 1.85474 23.7077 3.15985 24.7233 5.16356C25.3778 6.78923 25.7615 8.541 25.9646 10.556C26.1225 12.0902 26.1564 13.3267 26.1677 16.1316V17.0247C26.1791 18.41 26.2015 19.3832 26.258 20.3563C26.2806 20.7341 26.2918 20.8945 26.3482 21.7989C26.4723 23.7453 26.5175 24.7528 26.5288 25.9206C26.5514 29.2064 26.1451 31.7367 25.0731 33.9006H25.0732ZM28.5261 21.3639C28.5148 21.3639 28.5036 21.3524 28.4924 21.3524C28.2893 21.2838 28.2215 21.2379 28.1538 21.1578L27.9732 21.2952C28.0748 21.4326 28.1763 21.4899 28.4021 21.5699C28.3569 21.9821 28.1651 22.131 27.8379 22.0966C27.5445 22.0736 27.1608 21.8905 26.8448 21.673C26.7545 21.6043 26.6644 21.5585 26.5741 21.5127C26.5627 21.5127 26.5514 21.5012 26.5401 21.5012C26.495 20.8716 26.495 20.7113 26.4725 20.3792L26.4386 19.761C27.0706 19.7725 27.6911 19.9671 28.165 20.322C28.3343 20.448 28.5375 20.6884 28.6277 20.8944C28.7406 21.0891 28.718 21.2608 28.5261 21.3639Z" fill="black"/>
<path d="M15.7368 11.9676C15.7482 12.5515 15.861 13.1926 15.7594 13.8109C15.6013 14.1086 15.3081 14.143 15.0485 14.2574C14.6874 14.2002 14.3827 13.9597 14.2361 13.6163C14.1458 12.9179 14.2586 12.2538 14.2925 11.5555C14.2925 11.5325 14.7213 11.567 15.1049 11.6814C15.4321 11.7844 15.7368 11.9561 15.7368 11.9676ZM12.5434 12.0134C12.2274 13.2271 12.961 15.2077 14.1683 13.5819C14.078 12.8949 14.1797 12.231 14.2134 11.5555C14.2247 11.4982 12.5547 11.9333 12.5434 12.0134Z" fill="white"/>
<path d="M15.8722 12.5058C15.8495 12.1622 15.8383 12.0249 15.8383 11.8531V11.773L15.7594 11.75L14.3376 11.3036V11.2234L14.1909 11.2579H14.1795V11.2693L12.5773 11.6814L12.5209 11.6929L12.4982 11.75C12.25 12.3569 12.3064 13.2729 12.6224 13.8339C12.9835 14.475 13.5702 14.4864 14.1683 13.7536C14.2517 13.9169 14.3717 14.0579 14.5187 14.1653C14.6657 14.2727 14.8356 14.3435 15.0145 14.372H15.0485L15.0823 14.3605C15.1275 14.3375 15.1726 14.326 15.2516 14.2918C15.263 14.2918 15.263 14.2918 15.2742 14.2803C15.6013 14.1658 15.7368 14.0742 15.8496 13.8567L15.861 13.8453V13.8224C15.8947 13.6163 15.9061 13.3987 15.9061 13.1584C15.9061 12.9866 15.8947 12.8262 15.8722 12.5058ZM14.0667 12.0821C14.0554 12.2882 14.0442 12.3683 14.0329 12.4828C14.0103 12.9064 14.0103 13.227 14.0443 13.5476C13.5138 14.2345 13.0963 14.2345 12.8143 13.7193C12.5434 13.2385 12.4869 12.4255 12.6901 11.8875L14.1118 11.5211C14.1006 11.6699 14.0894 11.8188 14.0667 12.0821ZM15.6465 13.7766C15.5676 13.914 15.466 13.9827 15.1951 14.0743C15.1838 14.0743 15.1838 14.0743 15.1726 14.0857C15.1049 14.1087 15.0597 14.1314 15.0259 14.1429C14.7211 14.0857 14.4617 13.8796 14.3376 13.5934C14.3037 13.2842 14.3037 12.9637 14.3262 12.5401C14.3376 12.4255 14.3376 12.3454 14.3602 12.1393C14.3826 11.8761 14.394 11.7158 14.394 11.5669L15.624 11.9448C15.624 12.0936 15.6353 12.2309 15.6579 12.5286C15.6804 12.8378 15.6916 12.998 15.6916 13.1813C15.6916 13.3987 15.6803 13.5934 15.6465 13.7766Z" fill="black"/>
<path d="M5.75094 6.97958C6.78905 11.0782 13.2548 10.025 13.0066 5.9148C12.7131 0.99168 4.75792 1.94198 5.75083 6.97958" fill="white"/>
<path d="M13.1194 5.9033C13.0517 4.71255 12.5326 3.78523 11.6751 3.20135C10.9077 2.67471 9.89217 2.46862 8.88793 2.59448C7.88369 2.73206 6.9583 3.18997 6.34896 3.91132C5.67199 4.71266 5.41246 5.76595 5.64945 6.97957L5.75095 6.95658L5.64945 6.97957C6.7101 11.1927 13.3676 10.1738 13.1194 5.9033ZM5.85245 6.9567C5.62679 5.80043 5.8751 4.81576 6.50699 4.07154C7.08245 3.39605 7.95132 2.94964 8.91047 2.82367C9.86962 2.69769 10.8288 2.8924 11.5511 3.39605C12.3521 3.94568 12.8374 4.80438 12.905 5.93778C13.142 9.93346 6.8568 10.8953 5.85256 6.9567H5.85245Z" fill="black"/>
<path d="M7.53388 7.50621C8.13837 7.50621 8.6284 6.968 8.6284 6.30408C8.6284 5.64017 8.13837 5.10196 7.53388 5.10196C6.92939 5.10196 6.43936 5.64017 6.43936 6.30408C6.43936 6.968 6.92939 7.50621 7.53388 7.50621Z" fill="black"/>
<path d="M8.03029 6.88785C8.17362 6.88785 8.28981 6.74948 8.28981 6.57878C8.28981 6.40809 8.17362 6.26972 8.03029 6.26972C7.88696 6.26972 7.77077 6.40809 7.77077 6.57878C7.77077 6.74948 7.88696 6.88785 8.03029 6.88785Z" fill="white"/>
<path d="M14.8186 6.21329C15.6199 10.9188 23.2027 9.67084 22.1082 4.93093C21.1265 0.671919 14.5478 1.85118 14.8186 6.21329Z" fill="white"/>
<path d="M22.2097 4.90807C21.2055 0.523085 14.4352 1.72522 14.7059 6.22468V6.23617C15.0782 8.45722 17.0305 9.59074 19.1857 9.22431C20.1672 9.0526 21.0474 8.57181 21.6229 7.86196C22.2548 7.07188 22.4804 6.05296 22.2097 4.90807ZM21.4538 7.72449C20.9121 8.3886 20.0884 8.84651 19.1518 9.00685C17.1093 9.35029 15.2813 8.2855 14.9203 6.2018C14.672 1.96567 21.0588 0.832152 22.0066 4.95381C22.2549 6.04147 22.0518 6.99177 21.4538 7.72449Z" fill="black"/>
<path d="M16.6805 7.20934C17.2726 7.20934 17.7525 6.67112 17.7525 6.00721C17.7525 5.34329 17.2726 4.80508 16.6805 4.80508C16.0885 4.80508 15.6086 5.34329 15.6086 6.00721C15.6086 6.67112 16.0885 7.20934 16.6805 7.20934Z" fill="black"/>
<path d="M17.1771 6.59098C17.3141 6.59098 17.4253 6.4526 17.4253 6.28191C17.4253 6.11122 17.3141 5.97285 17.1771 5.97285C17.04 5.97285 16.9288 6.11122 16.9288 6.28191C16.9288 6.4526 17.04 6.59098 17.1771 6.59098Z" fill="white"/>
<path d="M12.7764 9.54004C11.8849 9.62015 11.1627 10.6849 11.6255 11.5321C12.2347 12.6542 13.6001 11.4292 14.4464 11.5436C15.4281 11.5666 16.2294 12.5969 17.0079 11.7269C17.8768 10.7651 16.6356 9.82624 15.6538 9.41407L12.7764 9.54004Z" fill="#F6D2A2"/>
<path d="M17.1208 10.3071C16.816 9.91785 16.2858 9.56292 15.7102 9.32247L15.6876 9.31097H15.6651L12.7764 9.42557C11.7721 9.51717 11.05 10.6964 11.5351 11.5894C11.727 11.9329 11.9865 12.1047 12.3363 12.1275C12.5957 12.139 12.8667 12.0818 13.2842 11.9329C13.318 11.9214 13.3631 11.91 13.4195 11.8871C13.9838 11.6925 14.2094 11.6352 14.4351 11.6696H14.4464C14.7172 11.6696 14.9429 11.7497 15.3717 11.9214C15.8457 12.116 15.9924 12.1734 16.2292 12.1961C16.5566 12.2191 16.8387 12.1047 17.0981 11.8185C17.5382 11.3261 17.5157 10.7994 17.1208 10.3071ZM16.9289 11.6581C16.7145 11.8986 16.5001 11.9788 16.2406 11.9673C16.0375 11.9558 15.9021 11.8986 15.4507 11.7154C14.9993 11.5208 14.7511 11.4522 14.4577 11.4407C14.1757 11.4062 13.9387 11.4635 13.3406 11.6696C13.2842 11.6925 13.2391 11.704 13.2052 11.7154C12.3814 12.0016 11.9865 11.9787 11.7157 11.4749C11.3094 10.7308 11.9301 9.72326 12.7764 9.64314L15.6312 9.52855C16.1729 9.75762 16.6581 10.0896 16.9402 10.4446C17.2787 10.8567 17.29 11.2688 16.9289 11.6581Z" fill="#231F20"/>
<path d="M15.8796 9.04777C15.5297 7.74254 12.5959 7.93724 12.6635 9.4943C12.8102 10.6506 16.218 10.3414 15.8796 9.04777Z" fill="black"/>
</svg>
