<svg width="30" height="29" viewBox="0 0 30 29" fill="none" xmlns="http://www.w3.org/2000/svg">
<g clip-path="url(#clip0)">
<path d="M1.24999 1.24198H28.75V27.758H1.24999V1.24198Z" fill="url(#paint0_radial)"/>
<path d="M1.24999 1.24201H28.7501V27.758H1.24999V1.24201ZM7.62939e-06 28.9971H30.0001V0.00296402H7.62939e-06V28.9971ZM19.65 10.3368C19.65 10.2377 19.6875 10.1881 19.8001 10.1881H21.7625C21.8625 10.1881 21.9125 10.2252 21.9125 10.3368V20.113C21.9125 20.2121 21.8875 20.2617 21.7625 20.2617H19.8251C19.7001 20.2617 19.6625 20.1998 19.6625 20.1007V10.3368H19.65ZM19.5125 7.52408C19.5125 6.73108 20.075 6.26025 20.7876 6.26025C21.5501 6.26025 22.0626 6.76825 22.0626 7.52408C22.0626 8.34185 21.5251 8.78791 20.7626 8.78791C20.0375 8.78796 19.5125 8.34185 19.5125 7.52408ZM13.8875 14.4133C13.5376 13.0379 12.7126 10.0394 12.4 8.58968H12.375C12.1125 10.0394 11.4501 12.4927 10.9251 14.4133H13.8875ZM10.4125 16.4206L9.42502 20.1378C9.40002 20.2369 9.36253 20.2617 9.23754 20.2617H7.40003C7.27505 20.2617 7.25 20.2245 7.27505 20.0758L10.825 7.75947C10.8875 7.53647 10.925 7.33819 10.95 6.73108C10.95 6.64436 10.9875 6.60719 11.05 6.60719H13.675C13.7625 6.60719 13.8 6.63197 13.825 6.73108L17.8 20.1006C17.825 20.1997 17.8 20.2617 17.7 20.2617H15.625C15.525 20.2617 15.4625 20.2369 15.4375 20.1502L14.4125 16.4206H10.4125Z" fill="#FF7F18"/>
</g>
<defs>
<radialGradient id="paint0_radial" cx="0" cy="0" r="1" gradientUnits="userSpaceOnUse" gradientTransform="translate(10.3072 7.18424) scale(20.9 20.058)">
<stop stop-color="#423325" stop-opacity="0.98"/>
<stop offset="1" stop-color="#1C0A00"/>
</radialGradient>
<clipPath id="clip0">
<rect width="30" height="29" fill="white"/>
</clipPath>
</defs>
</svg>
