<svg width="39" height="37" viewBox="0 0 39 37" fill="none" xmlns="http://www.w3.org/2000/svg">
<path d="M12.5051 36.3932C11.5993 36.3932 10.7439 36.0006 10.1651 35.289L1.35892 24.6148C0.780165 23.9031 0.553783 22.9954 0.780165 22.1118L3.9253 8.78752C4.12655 7.90411 4.73044 7.19245 5.56086 6.79992L18.2924 0.861484C18.695 0.665368 19.1479 0.567162 19.6009 0.567162C20.0538 0.567162 20.5065 0.665219 20.9092 0.861632L33.6409 6.77541C34.4711 7.16794 35.075 7.8796 35.2763 8.76301L38.4214 22.0873C38.6228 22.9707 38.4214 23.8786 37.8428 24.5903L29.0363 35.2645C28.4575 35.9515 27.6021 36.3687 26.6963 36.3687L12.5055 36.3932H12.5051Z" fill="#326DE6"/>
<path d="M32.3322 21.1794C32.3071 21.1794 32.3071 21.1794 32.3322 21.1794H32.3071C32.2819 21.1794 32.2568 21.1794 32.2568 21.1549C32.2065 21.1549 32.1563 21.1303 32.1058 21.1303C31.9297 21.1058 31.7788 21.0813 31.6278 21.0813C31.5522 21.0813 31.4768 21.0813 31.3761 21.0566H31.351C30.8226 21.0076 30.3949 20.9586 29.9922 20.8359C29.8161 20.7622 29.7658 20.6641 29.7154 20.5659C29.7154 20.5414 29.6903 20.5414 29.6903 20.5169L29.3632 20.4188C29.5177 19.2645 29.4581 18.0925 29.1871 16.9587C28.9124 15.8156 28.4356 14.7278 27.7781 13.7442L28.0297 13.5234V13.4744C28.0297 13.3517 28.0549 13.229 28.1554 13.1062C28.4574 12.8363 28.8349 12.6155 29.2878 12.3455C29.3632 12.2965 29.4386 12.272 29.5142 12.2228C29.6651 12.1493 29.791 12.0757 29.9419 11.9775C29.9671 11.953 30.0174 11.9285 30.0678 11.8795C30.0929 11.8548 30.1181 11.8548 30.1181 11.8303C30.4703 11.5358 30.5458 11.0451 30.2942 10.726C30.1683 10.5542 29.9419 10.4561 29.7154 10.4561C29.5143 10.4561 29.3381 10.5297 29.1619 10.6524L29.1117 10.7014C29.0614 10.726 29.0361 10.7751 28.9858 10.7996C28.86 10.9224 28.7593 11.0204 28.6588 11.1431C28.6085 11.1922 28.5582 11.2659 28.4826 11.3149C28.1303 11.6831 27.8032 11.9775 27.4761 12.1983C27.4007 12.2473 27.3253 12.272 27.2497 12.272C27.1995 12.272 27.149 12.272 27.0988 12.2473H27.0485L26.7464 12.4438C26.4193 12.1003 26.0671 11.8058 25.7149 11.5113C24.1982 10.3551 22.3729 9.64818 20.4561 9.47453L20.431 9.15555L20.3807 9.10652C20.3051 9.03283 20.2046 8.95928 20.1793 8.78753C20.1542 8.39486 20.2046 7.95315 20.2549 7.46241V7.4379C20.2549 7.36421 20.28 7.26615 20.3051 7.19246C20.3303 7.04537 20.3554 6.89799 20.3807 6.72624V6.50546C20.3807 6.06375 20.0283 5.69574 19.6007 5.69574C19.3993 5.69574 19.1981 5.7938 19.0471 5.94103C18.8963 6.08827 18.8207 6.28453 18.8207 6.50546V6.70172C18.8207 6.87347 18.8458 7.02071 18.8961 7.16794C18.9213 7.24164 18.9212 7.31518 18.9464 7.41339V7.4379C18.9967 7.92863 19.0722 8.37034 19.0219 8.76302C18.9968 8.93477 18.8961 9.00831 18.8207 9.082L18.7704 9.13103L18.7451 9.45002C18.2922 9.49905 17.8393 9.54807 17.3864 9.64628C15.449 10.0635 13.7381 11.0206 12.4046 12.3946L12.1529 12.2228H12.1026C12.0524 12.2228 12.0019 12.2473 11.9517 12.2473C11.8761 12.2473 11.8007 12.2228 11.7251 12.1738C11.3981 11.953 11.071 11.6339 10.7188 11.2659C10.6685 11.2168 10.6182 11.1431 10.5426 11.0941C10.4419 10.9714 10.3412 10.8732 10.2154 10.7506C10.1903 10.726 10.14 10.7016 10.0897 10.6524C10.0646 10.6279 10.0395 10.6279 10.0395 10.6034C9.88356 10.4778 9.68805 10.4084 9.48584 10.407C9.2593 10.407 9.03292 10.5052 8.90709 10.6769C8.65541 10.9959 8.73098 11.4866 9.0832 11.7811C9.10833 11.7811 9.10833 11.8058 9.13347 11.8058C9.18374 11.8303 9.20903 11.8793 9.2593 11.9038C9.41028 12.0019 9.53611 12.0756 9.68709 12.1493C9.76265 12.1738 9.83806 12.2228 9.91362 12.272C10.3664 12.5418 10.7439 12.7627 11.0458 13.0327C11.1717 13.1553 11.1717 13.278 11.1717 13.4007V13.4497L11.4232 13.6707C11.3729 13.7442 11.3226 13.7934 11.2974 13.8669C10.0393 15.8055 9.56125 18.0876 9.88833 20.3451L9.56125 20.4432C9.56125 20.4679 9.53611 20.4679 9.53611 20.4922C9.48584 20.5904 9.41028 20.6886 9.2593 20.7622C8.88195 20.8849 8.42903 20.9341 7.9007 20.9831H7.87541C7.8 20.9831 7.6993 20.9831 7.62389 21.0076C7.47292 21.0076 7.32195 21.0321 7.14584 21.0566C7.09557 21.0566 7.04529 21.0813 6.99487 21.0813C6.96973 21.0813 6.94459 21.0813 6.9193 21.1058C6.46639 21.2039 6.18958 21.6211 6.26514 22.0136C6.3407 22.3572 6.66779 22.5782 7.07028 22.5782C7.14584 22.5782 7.19611 22.5782 7.27168 22.5535C7.29681 22.5535 7.32195 22.5535 7.32195 22.529C7.37222 22.529 7.4225 22.5045 7.47277 22.5045C7.64903 22.4555 7.77487 22.4064 7.92584 22.3327C8.00125 22.3082 8.07666 22.259 8.15222 22.2347H8.17736C8.65541 22.0628 9.0832 21.9155 9.48584 21.8665H9.53611C9.68709 21.8665 9.78778 21.9401 9.86319 21.9892C9.88833 21.9892 9.88833 22.0137 9.91347 22.0137L10.2658 21.9647C10.8697 23.7804 12.0271 25.4 13.5619 26.5779C13.9142 26.8477 14.2664 27.0686 14.6439 27.2896L14.4929 27.6084C14.4929 27.6331 14.5181 27.6331 14.5181 27.6574C14.5683 27.7556 14.6186 27.8783 14.5683 28.0501C14.4175 28.4183 14.191 28.7863 13.9142 29.2035V29.228C13.8639 29.3017 13.8136 29.3507 13.7633 29.4242C13.6626 29.547 13.5871 29.6697 13.4864 29.8169C13.4612 29.8414 13.4361 29.8905 13.411 29.9396C13.411 29.9642 13.3858 29.9887 13.3858 29.9887C13.1846 30.4059 13.3356 30.8721 13.7129 31.0438C13.8135 31.0929 13.9142 31.1175 14.0149 31.1175C14.3168 31.1175 14.6188 30.9211 14.7697 30.6512C14.7697 30.6266 14.7949 30.6021 14.7949 30.6021C14.82 30.5531 14.8451 30.5041 14.8703 30.4794C14.9458 30.3077 14.971 30.1849 15.0212 30.0377L15.0968 29.8169C15.2729 29.3262 15.3988 28.9335 15.6251 28.59C15.7257 28.4428 15.8517 28.4183 15.9522 28.3691C15.9774 28.3691 15.9774 28.3691 16.0025 28.3446L16.1788 28.0256C17.2858 28.4428 18.4936 28.6636 19.7012 28.6636C20.431 28.6636 21.1858 28.59 21.8904 28.4183C22.3338 28.3216 22.7707 28.1986 23.1988 28.0501L23.3496 28.3201C23.3749 28.3201 23.3749 28.3201 23.4 28.3446C23.5258 28.3691 23.6264 28.4183 23.7271 28.5655C23.9283 28.909 24.0793 29.3262 24.2554 29.7924V29.8169L24.331 30.0377C24.3812 30.1849 24.4064 30.3322 24.4818 30.4794C24.5071 30.5284 24.5322 30.5531 24.5574 30.6021C24.5574 30.6266 24.5826 30.6512 24.5826 30.6512C24.7335 30.9456 25.0354 31.1175 25.3374 31.1175C25.4381 31.1175 25.5388 31.0929 25.6393 31.0438C25.8154 30.9458 25.9664 30.7984 26.0168 30.6021C26.0671 30.4059 26.0671 30.1849 25.9665 29.9887C25.9665 29.9642 25.9412 29.9642 25.9412 29.9396C25.9161 29.8906 25.891 29.8416 25.8658 29.8169C25.7903 29.6697 25.6897 29.547 25.589 29.4242C25.5388 29.3507 25.4885 29.3017 25.4382 29.2281V29.2035C25.1612 28.7863 24.9096 28.4183 24.7839 28.0501C24.7336 27.8783 24.7839 27.7803 24.809 27.6576C24.809 27.6331 24.8342 27.6331 24.8342 27.6085L24.7083 27.3141C26.0419 26.5534 27.1742 25.4736 28.0297 24.1486C28.4826 23.4614 28.8349 22.7007 29.0864 21.9401L29.3883 21.9891C29.4136 21.9891 29.4136 21.9646 29.4386 21.9646C29.5393 21.9155 29.6149 21.842 29.7658 21.842H29.8161C30.2188 21.891 30.6464 22.0381 31.1246 22.21H31.1497C31.2251 22.2345 31.3005 22.2836 31.3761 22.3081C31.5271 22.3818 31.6529 22.4308 31.829 22.48C31.8793 22.48 31.9296 22.5045 31.98 22.5045C32.0051 22.5045 32.0303 22.5045 32.0554 22.529C32.131 22.5535 32.1812 22.5535 32.2568 22.5535C32.6342 22.5535 32.9612 22.3082 33.0619 21.9892C33.0619 21.6948 32.7851 21.3021 32.3322 21.1795V21.1794ZM20.6825 19.977L19.5754 20.4924L18.4683 19.977L18.1917 18.8237L18.9464 17.8913H20.1793L20.9342 18.8237L20.6826 19.977H20.6825ZM27.2497 17.4251C27.4449 18.2365 27.5044 19.0734 27.4258 19.9033L23.5761 18.8237C23.2239 18.7257 23.0226 18.382 23.0981 18.0385C23.1232 17.9403 23.1736 17.8421 23.249 17.7686L26.2936 15.0938C26.7212 15.781 27.0483 16.5662 27.2497 17.4249V17.4251ZM25.0858 13.6216L21.7897 15.9037C21.5129 16.0755 21.1354 16.0263 20.909 15.7565C20.8336 15.6828 20.8085 15.5846 20.7832 15.4865L20.5568 11.4866C22.2704 11.6791 23.8667 12.4316 25.0858 13.6216ZM17.789 11.6092C18.0658 11.5602 18.3174 11.5112 18.5942 11.4621L18.3678 15.3882C18.3426 15.7317 18.0658 16.0261 17.6883 16.0261C17.5878 16.0261 17.4619 16.0016 17.3864 15.9526L14.04 13.6216C15.0717 12.6155 16.3549 11.9284 17.789 11.6094V11.6092ZM12.8322 15.0937L15.8264 17.6947C16.1032 17.9157 16.1283 18.3327 15.9019 18.6027C15.8264 18.7007 15.7258 18.7744 15.6 18.7991L11.7 19.9033C11.549 18.2347 11.9264 16.5415 12.8322 15.0937ZM12.1528 21.7436L16.1536 21.081C16.4807 21.0565 16.7826 21.2774 16.8581 21.5964C16.8832 21.7435 16.8832 21.8664 16.8329 21.9891L15.2981 25.5961C13.889 24.7127 12.7568 23.3631 12.1529 21.7436H12.1528ZM21.3368 26.6268C20.7581 26.7495 20.1793 26.823 19.5754 26.823C18.6949 26.823 17.8393 26.676 17.0343 26.4305L19.0219 22.9215C19.2232 22.7006 19.5503 22.6025 19.8271 22.7498C19.9446 22.82 20.0471 22.9116 20.129 23.0196L22.0664 26.4305C21.84 26.5041 21.5883 26.5532 21.3367 26.6268H21.3368ZM26.2432 23.216C25.6142 24.1975 24.7837 24.9827 23.8278 25.5961L22.2426 21.8907C22.1671 21.5964 22.2929 21.2774 22.5949 21.13C22.6954 21.081 22.8212 21.0565 22.9471 21.0565L26.9729 21.7191C26.8219 22.2589 26.5703 22.7498 26.2432 23.216Z" fill="white"/>
</svg>
