<svg width="34" height="35" viewBox="0 0 34 35" fill="none" xmlns="http://www.w3.org/2000/svg">
<path d="M33.9204 7.98549C33.933 8.03186 33.9394 8.07968 33.9395 8.12772V15.5947C33.9395 15.6905 33.9141 15.7846 33.8659 15.8676C33.8176 15.9505 33.7483 16.0193 33.6648 16.067L27.3702 19.6752V26.8271C27.3702 27.0217 27.2663 27.2014 27.0968 27.2994L13.9575 34.8303C13.9274 34.8473 13.8946 34.8582 13.8618 34.8698C13.8495 34.8738 13.8379 34.8813 13.8249 34.8847C13.733 34.9088 13.6365 34.9088 13.5446 34.8847C13.5296 34.8806 13.5159 34.8725 13.5016 34.867C13.4715 34.8561 13.4401 34.8466 13.4114 34.8303L0.274775 27.2994C0.191322 27.2516 0.121982 27.1828 0.0737413 27.0999C0.0255011 27.017 6.61234e-05 26.9229 0 26.8271L0 4.42623C0 4.37723 0.00683521 4.3296 0.0191386 4.28332C0.0232397 4.26767 0.032809 4.25337 0.0382772 4.23772C0.04853 4.20914 0.0580992 4.17987 0.0731367 4.15333C0.0833895 4.13564 0.098427 4.12135 0.11073 4.10502C0.126451 4.08324 0.140805 4.06078 0.15926 4.04172C0.174981 4.02607 0.195487 4.0145 0.213258 4.00089C0.233081 3.98456 0.250852 3.96686 0.273408 3.95393H0.274092L6.84272 0.188476C6.9259 0.140825 7.02017 0.115746 7.11613 0.115746C7.21209 0.115746 7.30637 0.140825 7.38954 0.188476L13.9582 3.95393H13.9595C13.9814 3.96754 13.9999 3.98456 14.0197 4.00021C14.0375 4.01382 14.0573 4.02607 14.073 4.04104C14.0921 4.06078 14.1058 4.08324 14.1222 4.10502C14.1338 4.12135 14.1496 4.13564 14.1591 4.15333C14.1748 4.18056 14.1837 4.20914 14.1947 4.23772C14.2001 4.25337 14.2097 4.26767 14.2138 4.284C14.2264 4.33038 14.2328 4.37819 14.2329 4.42623V18.4176L19.7066 15.2796V8.12704C19.7066 8.0794 19.7134 8.03108 19.7257 7.98549C19.7305 7.96915 19.7394 7.95486 19.7449 7.93921C19.7558 7.91062 19.7654 7.88136 19.7804 7.85482C19.7907 7.83713 19.8057 7.82283 19.8173 7.8065C19.8337 7.78472 19.8474 7.76227 19.8665 7.74321C19.8822 7.72756 19.9021 7.71599 19.9198 7.70238C19.9403 7.68604 19.9581 7.66835 19.98 7.65542H19.9807L26.55 3.88996C26.6331 3.84224 26.7274 3.81713 26.8234 3.81713C26.9194 3.81713 27.0137 3.84224 27.0968 3.88996L33.6654 7.65542C33.6887 7.66903 33.7064 7.68605 33.727 7.7017C33.744 7.71531 33.7639 7.72756 33.7796 7.74253C33.7987 7.76227 33.8124 7.78472 33.8288 7.8065C33.8411 7.82283 33.8561 7.83713 33.8657 7.85482C33.8814 7.88136 33.8903 7.91062 33.9013 7.93921C33.9074 7.95486 33.9163 7.96915 33.9204 7.98549ZM32.8445 15.2796V9.07027L30.5458 10.3878L27.3702 12.2083V18.4176L32.8452 15.2796H32.8445ZM26.2759 26.512V20.2986L23.1522 22.0748L14.2323 27.1435V33.4154L26.2759 26.512ZM1.095 5.36879V26.512L13.1373 33.4147V27.1442L6.84614 23.5992L6.84409 23.5979L6.84136 23.5965C6.82017 23.5843 6.8024 23.5666 6.78257 23.5516C6.76549 23.538 6.74566 23.5271 6.73063 23.5121L6.72926 23.5101C6.71149 23.4931 6.69919 23.472 6.68415 23.4529C6.67048 23.4345 6.65407 23.4189 6.64314 23.3998L6.64245 23.3978C6.63015 23.3774 6.62263 23.3529 6.61374 23.3297C6.60486 23.3093 6.59324 23.2903 6.58777 23.2685V23.2678C6.58094 23.242 6.57957 23.2147 6.57683 23.1882C6.5741 23.1678 6.56863 23.1474 6.56863 23.1269V8.50678L3.39368 6.68564L1.095 5.36947V5.36879ZM7.11682 1.2896L1.64387 4.42623L7.11545 7.56287L12.5877 4.42555L7.11545 1.2896H7.11682ZM9.963 20.8648L13.1379 19.045V5.36879L10.8393 6.68632L7.66363 8.50678V22.183L9.963 20.8648ZM26.8234 4.99109L21.3511 8.12772L26.8234 11.2644L32.295 8.12704L26.8234 4.99109ZM26.2759 12.2083L23.1003 10.3878L20.8016 9.07027V15.2796L23.9765 17.0993L26.2759 18.4176V12.2083ZM13.6841 26.201L21.7107 21.6386L25.7229 19.3588L20.2548 16.2242L13.9589 19.8331L8.2207 23.1222L13.6841 26.201Z" fill="#FF2D20"/>
</svg>
