<svg width="29" height="29" viewBox="0 0 29 29" fill="none" xmlns="http://www.w3.org/2000/svg">
<g clip-path="url(#clip0)">
<path fill-rule="evenodd" clip-rule="evenodd" d="M28.9444 5.13561C28.9444 2.31475 26.6577 0.0279903 23.8368 0.0279903C18.5667 0.0279903 10.3936 0.0279903 5.12354 0.0279903C2.30268 0.0279903 0.0159246 2.31475 0.0159149 5.13561C0.0159149 10.4057 0.0159149 18.5788 0.0159149 23.8489C0.0159246 26.6697 2.30268 28.9565 5.12354 28.9565C10.3936 28.9565 18.5667 28.9565 23.8368 28.9565C26.6577 28.9565 28.9444 26.6697 28.9444 23.8489C28.9444 18.5788 28.9444 10.4057 28.9444 5.13561Z" fill="#563E25"/>
<path fill-rule="evenodd" clip-rule="evenodd" d="M0.461125 3.54258C1.5026 2.67625 4.25561 2.05665 7.48443 2.05665C11.6065 2.05665 14.953 3.06646 14.953 4.31028C14.953 4.9308 14.1201 5.49308 12.7735 5.90078L-0.336051 13.4412L-1.88287 3.68806L0.461125 3.54261V3.54258Z" fill="url(#paint0_radial)"/>
<path fill-rule="evenodd" clip-rule="evenodd" d="M16.1244 11.5436C16.1244 11.4149 16.1756 11.2915 16.2666 11.2005C16.3576 11.1094 16.4811 11.0583 16.6098 11.0583C22.7244 11.0583 27.6886 13.1339 27.6886 15.6905L27.6886 15.6914C27.6887 15.7202 27.6883 16.4468 27.5726 17.5653C28.2351 17.2665 28.9467 17.1524 29.5913 17.4813C30.6469 18.02 30.9574 20.4516 30.0378 22.4413C29.2698 24.1032 28.1517 24.718 26.6553 25.265C26.1546 25.4481 25.6807 25.4867 25.2134 25.5281C23.6095 28.3111 20.9661 30.5987 16.6097 30.5988C5.50134 30.5987 5.53077 15.7241 5.53087 15.6906C5.53087 14.0509 7.57282 12.609 10.6506 11.7857C10.8384 11.7357 11.0388 11.7758 11.193 11.8942C11.3471 12.0126 11.4374 12.196 11.4374 12.3903C11.4383 12.4221 11.4383 12.4534 11.4383 12.4841C11.4383 12.7479 11.273 12.9835 11.0249 13.0733C9.46057 13.639 8.48437 14.4405 8.48437 15.3284C8.48437 17.0433 12.1252 18.4355 16.6098 18.4355C21.0943 18.4355 24.7352 17.0433 24.7352 15.3284C24.7352 13.6136 21.0943 12.2213 16.6098 12.2213C16.481 12.2213 16.3576 12.1702 16.2666 12.0791C16.1756 11.9881 16.1244 11.8647 16.1244 11.736C16.1244 11.6723 16.1244 11.6072 16.1244 11.5437L16.1244 11.5436ZM26.2333 23.3729C27.0738 23.1759 27.8697 22.6931 28.3214 22.0118C29.1135 20.817 28.9222 19.3461 27.1628 20.1886C26.9503 21.195 26.6521 22.2872 26.2333 23.3729Z" fill="white"/>
<path d="M12.6569 5.89231C11.9307 5.6303 11.2157 5.16084 10.5879 4.62122C7.906 2.31609 5.91074 -1.21928 6.26249 -4.71286C6.38912 -5.97053 7.15815 -7.35094 8.68862 -7.3987C8.71731 -7.39928 8.74596 -7.39957 8.77465 -7.39956C10.5113 -7.38114 12.063 -6.06586 13.3129 -4.56197C15.2443 -2.23795 16.7565 0.774449 16.2883 3.70771C16.1797 4.38816 15.8788 5.0838 15.3612 5.54893C15.3222 5.60446 15.2705 5.65505 15.2048 5.69771L-0.856791 14.9709C-1.06853 15.0788 -1.16309 15.0636 -1.30393 15.0179C-1.69786 14.8899 -1.80396 14.2697 -1.40949 14.0136L12.6569 5.89231ZM8.73426 -6.29396C7.76326 -6.27398 7.34749 -5.01378 7.34009 -4.17962C7.32323 -2.279 8.12422 -0.406366 9.13149 1.19257C10.1902 2.87309 11.6159 4.57922 13.4059 4.95935C13.8096 5.04506 14.2541 5.02148 14.5844 4.76866C15.2957 4.22431 15.287 3.20153 15.2323 2.43163C15.0044 -0.773696 13.0265 -3.98552 10.5501 -5.62548C10.0133 -5.98102 9.41007 -6.28101 8.78607 -6.29395C8.7688 -6.29414 8.75153 -6.29414 8.73426 -6.29396Z" fill="white"/>
<path fill-rule="evenodd" clip-rule="evenodd" d="M12.6102 13.4513V3.43848L14.9532 4.31029V13.0916C15.498 13.0463 16.0687 13.0222 16.6564 13.0222C20.4617 13.0222 23.5512 14.032 23.5512 15.2758C23.5512 16.5196 20.4617 17.5294 16.6564 17.5294C12.8511 17.5294 9.76164 16.5196 9.76164 15.2758C9.76164 14.5259 10.8845 13.8611 12.6102 13.4514V13.4513Z" fill="url(#paint1_radial)"/>
<path fill-rule="evenodd" clip-rule="evenodd" d="M29.8955 5.11125C28.7141 3.57897 25.1845 2.45663 23.1135 5.78208C20.9803 9.20749 19.2653 9.61291 19.2653 9.61291C20.3628 10.2497 25.8053 10.6112 28.3916 9.06609C30.0927 8.04982 30.2594 6.81665 30.1629 5.97462C29.5135 5.67991 29.2979 4.94745 29.8955 5.11125Z" fill="url(#paint2_linear)"/>
<path fill-rule="evenodd" clip-rule="evenodd" d="M31.4583 1.39624C31.1874 3.31201 28.6719 6.03054 25.2292 4.16096C21.6831 2.23517 19.9915 2.72927 19.9915 2.72927C20.6315 1.63367 25.1861 -1.36755 28.1981 -1.30064C30.1791 -1.25663 30.9329 -0.266501 31.2646 0.513421C30.8454 1.09028 31.0195 1.83373 31.4583 1.39624Z" fill="url(#paint3_radial)"/>
<path fill-rule="evenodd" clip-rule="evenodd" d="M31.4795 4.81601C31.4795 4.81601 29.6193 4.53561 26.7412 5.79696C25.3281 6.41628 24.5064 7.80538 24.5064 7.80538C24.5064 7.80538 26.3612 6.70021 27.1326 6.28662C28.3152 5.65259 31.4795 4.81601 31.4795 4.81601Z" fill="#563E25"/>
<path fill-rule="evenodd" clip-rule="evenodd" d="M31.0018 1.50065C31.0018 1.50065 30.0296 2.45734 28.3057 2.63082C26.4548 2.81707 24.3426 1.63827 24.3426 1.63827C24.3426 1.63827 27.0284 2.05114 27.9038 2.05032C28.7791 2.0495 31.0018 1.50065 31.0018 1.50065Z" fill="#563E25"/>
<path fill-rule="evenodd" clip-rule="evenodd" d="M28.9444 5.13561C28.9444 2.31475 26.6577 0.0279903 23.8368 0.0279903C18.5667 0.0279903 10.3936 0.0279903 5.12354 0.0279903C2.30268 0.0279903 0.0159246 2.31475 0.0159149 5.13561C0.0159149 10.4057 0.0159149 18.5788 0.0159149 23.8489C0.0159246 26.6697 2.30268 28.9565 5.12354 28.9565C10.3936 28.9565 18.5667 28.9565 23.8368 28.9565C26.6577 28.9565 28.9444 26.6697 28.9444 23.8489C28.9444 18.5788 28.9444 10.4057 28.9444 5.13561Z" fill="#563E25"/>
<path fill-rule="evenodd" clip-rule="evenodd" d="M0.461125 3.54258C1.5026 2.67625 4.25561 2.05665 7.48443 2.05665C11.6065 2.05665 14.953 3.06646 14.953 4.31028C14.953 4.9308 14.1201 5.49308 12.7735 5.90078L-0.336051 13.4412L-1.88287 3.68806L0.461125 3.54261V3.54258Z" fill="url(#paint4_radial)"/>
<path fill-rule="evenodd" clip-rule="evenodd" d="M16.1244 11.5436C16.1244 11.4149 16.1756 11.2915 16.2666 11.2005C16.3576 11.1094 16.4811 11.0583 16.6098 11.0583C22.7244 11.0583 27.6886 13.1339 27.6886 15.6905L27.6886 15.6914C27.6887 15.7202 27.6883 16.4468 27.5726 17.5653C28.2351 17.2665 28.9467 17.1524 29.5913 17.4813C30.6469 18.02 30.9574 20.4516 30.0378 22.4413C29.2698 24.1032 28.1517 24.718 26.6553 25.265C26.1546 25.4481 25.6807 25.4867 25.2134 25.5281C23.6095 28.3111 20.9661 30.5987 16.6097 30.5988C5.50134 30.5987 5.53077 15.7241 5.53087 15.6906C5.53087 14.0509 7.57282 12.609 10.6506 11.7857C10.8384 11.7357 11.0388 11.7758 11.193 11.8942C11.3471 12.0126 11.4374 12.196 11.4374 12.3903C11.4383 12.4221 11.4383 12.4534 11.4383 12.4841C11.4383 12.7479 11.273 12.9835 11.0249 13.0733C9.46057 13.639 8.48437 14.4405 8.48437 15.3284C8.48437 17.0433 12.1252 18.4355 16.6098 18.4355C21.0943 18.4355 24.7352 17.0433 24.7352 15.3284C24.7352 13.6136 21.0943 12.2213 16.6098 12.2213C16.481 12.2213 16.3576 12.1702 16.2666 12.0791C16.1756 11.9881 16.1244 11.8647 16.1244 11.736C16.1244 11.6723 16.1244 11.6072 16.1244 11.5437L16.1244 11.5436ZM26.2333 23.3729C27.0738 23.1759 27.8697 22.6931 28.3214 22.0118C29.1135 20.817 28.9222 19.3461 27.1628 20.1886C26.9503 21.195 26.6521 22.2872 26.2333 23.3729Z" fill="white"/>
<path d="M12.6569 5.89231C11.9307 5.6303 11.2157 5.16084 10.5879 4.62122C7.906 2.31609 5.91074 -1.21928 6.26249 -4.71286C6.38912 -5.97053 7.15815 -7.35094 8.68862 -7.3987C8.71731 -7.39928 8.74596 -7.39957 8.77465 -7.39956C10.5113 -7.38114 12.063 -6.06586 13.3129 -4.56197C15.2443 -2.23795 16.7565 0.774449 16.2883 3.70771C16.1797 4.38816 15.8788 5.0838 15.3612 5.54893C15.3222 5.60446 15.2705 5.65505 15.2048 5.69771L-0.856791 14.9709C-1.06853 15.0788 -1.16309 15.0636 -1.30393 15.0179C-1.69786 14.8899 -1.80396 14.2697 -1.40949 14.0136L12.6569 5.89231ZM8.73426 -6.29396C7.76326 -6.27398 7.34749 -5.01378 7.34009 -4.17962C7.32323 -2.279 8.12422 -0.406366 9.13149 1.19257C10.1902 2.87309 11.6159 4.57922 13.4059 4.95935C13.8096 5.04506 14.2541 5.02148 14.5844 4.76866C15.2957 4.22431 15.287 3.20153 15.2323 2.43163C15.0044 -0.773696 13.0265 -3.98552 10.5501 -5.62548C10.0133 -5.98102 9.41007 -6.28101 8.78607 -6.29395C8.7688 -6.29414 8.75153 -6.29414 8.73426 -6.29396Z" fill="white"/>
<path fill-rule="evenodd" clip-rule="evenodd" d="M12.6102 13.4513V3.43848L14.9532 4.31029V13.0916C15.498 13.0463 16.0687 13.0222 16.6564 13.0222C20.4617 13.0222 23.5512 14.032 23.5512 15.2758C23.5512 16.5196 20.4617 17.5294 16.6564 17.5294C12.8511 17.5294 9.76164 16.5196 9.76164 15.2758C9.76164 14.5259 10.8845 13.8611 12.6102 13.4514V13.4513Z" fill="url(#paint5_radial)"/>
<path fill-rule="evenodd" clip-rule="evenodd" d="M29.8955 5.11125C28.7141 3.57897 25.1845 2.45663 23.1135 5.78208C20.9803 9.20749 19.2653 9.61291 19.2653 9.61291C20.3628 10.2497 25.8053 10.6112 28.3916 9.06609C30.0927 8.04982 30.2594 6.81665 30.1629 5.97462C29.5135 5.67991 29.2979 4.94745 29.8955 5.11125Z" fill="url(#paint6_linear)"/>
<path fill-rule="evenodd" clip-rule="evenodd" d="M31.4583 1.39624C31.1874 3.31201 28.6719 6.03054 25.2292 4.16096C21.6831 2.23517 19.9915 2.72927 19.9915 2.72927C20.6315 1.63367 25.1861 -1.36755 28.1981 -1.30064C30.1791 -1.25663 30.9329 -0.266501 31.2646 0.513421C30.8454 1.09028 31.0195 1.83373 31.4583 1.39624Z" fill="url(#paint7_radial)"/>
<path fill-rule="evenodd" clip-rule="evenodd" d="M31.4795 4.81601C31.4795 4.81601 29.6193 4.53561 26.7412 5.79696C25.3281 6.41628 24.5064 7.80538 24.5064 7.80538C24.5064 7.80538 26.3612 6.70021 27.1326 6.28662C28.3152 5.65259 31.4795 4.81601 31.4795 4.81601Z" fill="#563E25"/>
<path fill-rule="evenodd" clip-rule="evenodd" d="M31.0018 1.50065C31.0018 1.50065 30.0296 2.45734 28.3057 2.63082C26.4548 2.81707 24.3426 1.63827 24.3426 1.63827C24.3426 1.63827 27.0284 2.05114 27.9038 2.05032C28.7791 2.0495 31.0018 1.50065 31.0018 1.50065Z" fill="#563E25"/>
</g>
<defs>
<radialGradient id="paint0_radial" cx="0" cy="0" r="1" gradientUnits="userSpaceOnUse" gradientTransform="translate(14.953 12.1751) scale(14.8065)">
<stop stop-color="#EF8317"/>
<stop offset="0.56" stop-color="#F29012"/>
<stop offset="1" stop-color="#FFC400"/>
</radialGradient>
<radialGradient id="paint1_radial" cx="0" cy="0" r="1" gradientUnits="userSpaceOnUse" gradientTransform="translate(14.9532 12.1751) scale(14.8065)">
<stop stop-color="#EF8317"/>
<stop offset="0.56" stop-color="#F29012"/>
<stop offset="1" stop-color="#FFC400"/>
</radialGradient>
<linearGradient id="paint2_linear" x1="27.3853" y1="6.57435" x2="22.2341" y2="11.6774" gradientUnits="userSpaceOnUse">
<stop stop-color="#0C8D26"/>
<stop offset="1" stop-color="#00F531"/>
</linearGradient>
<radialGradient id="paint3_radial" cx="0" cy="0" r="1" gradientUnits="userSpaceOnUse" gradientTransform="translate(30.3704 1.10509) scale(6.43672)">
<stop stop-color="#13AF32"/>
<stop offset="0.48" stop-color="#00FA32"/>
<stop offset="1" stop-color="#0CA92B"/>
</radialGradient>
<radialGradient id="paint4_radial" cx="0" cy="0" r="1" gradientUnits="userSpaceOnUse" gradientTransform="translate(14.953 12.1751) scale(14.8065)">
<stop stop-color="#EF8317"/>
<stop offset="0.56" stop-color="#F29012"/>
<stop offset="1" stop-color="#FFC400"/>
</radialGradient>
<radialGradient id="paint5_radial" cx="0" cy="0" r="1" gradientUnits="userSpaceOnUse" gradientTransform="translate(14.9532 12.1751) scale(14.8065)">
<stop stop-color="#EF8317"/>
<stop offset="0.56" stop-color="#F29012"/>
<stop offset="1" stop-color="#FFC400"/>
</radialGradient>
<linearGradient id="paint6_linear" x1="27.3853" y1="6.57435" x2="22.2341" y2="11.6774" gradientUnits="userSpaceOnUse">
<stop stop-color="#0C8D26"/>
<stop offset="1" stop-color="#00F531"/>
</linearGradient>
<radialGradient id="paint7_radial" cx="0" cy="0" r="1" gradientUnits="userSpaceOnUse" gradientTransform="translate(30.3704 1.10509) scale(6.43672)">
<stop stop-color="#13AF32"/>
<stop offset="0.48" stop-color="#00FA32"/>
<stop offset="1" stop-color="#0CA92B"/>
</radialGradient>
<clipPath id="clip0">
<rect width="29" height="29" fill="white"/>
</clipPath>
</defs>
</svg>
