<svg width="30" height="15" viewBox="0 0 30 15" fill="none" xmlns="http://www.w3.org/2000/svg">
<path d="M15 14.9125C23.2843 14.9125 30 11.5742 30 7.45627C30 3.33828 23.2843 0 15 0C6.71573 0 0 3.33828 0 7.45627C0 11.5742 6.71573 14.9125 15 14.9125Z" fill="#8993BE"/>
<path fill-rule="evenodd" clip-rule="evenodd" d="M4.21231 11.8712L5.85622 3.92431H9.65743C11.3012 4.02245 12.1232 4.80724 12.1232 6.18088C12.1232 8.53548 10.1712 9.90901 8.4245 9.81087H6.5754L6.16442 11.8712H4.21231ZM6.98626 8.33931L7.50001 5.39597H8.83559C9.55477 5.39597 10.0684 5.69029 10.0684 6.27891C9.96575 7.94686 9.1438 8.24117 8.21919 8.33931H6.98637H6.98626ZM11.7413 9.81087L13.385 1.86413H15.3372L14.9262 3.92431H16.7754C18.4193 4.02245 19.0357 4.80724 18.8303 5.78843L18.1111 9.81087H16.0563L16.7755 6.18088C16.8782 5.69029 16.8782 5.39597 16.1591 5.39597H14.618L13.6934 9.81087H11.7413ZM17.9795 11.8712L19.6233 3.92431H23.4246C25.0685 4.02245 25.8905 4.80724 25.8905 6.18088C25.8905 8.53548 23.9384 9.90901 22.1918 9.81087H20.3425L19.9315 11.8712H17.9795ZM20.7533 8.33931L21.2671 5.39597H22.6028C23.322 5.39597 23.8356 5.69029 23.8356 6.27891C23.7329 7.94686 22.911 8.24117 21.9864 8.33931H20.7534H20.7533Z" fill="#232531"/>
</svg>
