<svg width="76" height="56" viewBox="0 0 76 56" fill="none" xmlns="http://www.w3.org/2000/svg">
<g clip-path="url(#clip0)">
<path fill-rule="evenodd" clip-rule="evenodd" d="M53.1389 1.81448C53.1389 0.807982 52.3215 -0.00917053 51.3157 -0.00917053H1.82365C0.817186 -0.00917053 0 0.807982 0 1.81448V34.6402C0 35.6467 0.817186 36.4638 1.82365 36.4638H51.3157C52.3215 36.4638 53.1389 35.6467 53.1389 34.6402V1.81448Z" fill="#212121"/>
<path fill-rule="evenodd" clip-rule="evenodd" d="M75.9995 13.022C75.9995 11.7748 74.987 10.7621 73.7394 10.7621H25.1205C23.8732 10.7621 22.8605 11.7748 22.8605 13.022V53.7007C22.8605 54.9479 23.8732 55.9606 25.1205 55.9606H73.7394C74.987 55.9606 75.9995 54.9479 75.9995 53.7007V13.022Z" fill="#DBD2C9"/>
<path d="M76 18H23V54H76V18Z" fill="#FFFAF6"/>
<path fill-rule="evenodd" clip-rule="evenodd" d="M70.4782 13.4711C70.4782 12.9658 70.068 12.5555 69.5626 12.5555H42.623C42.1177 12.5555 41.7075 12.9658 41.7075 13.4711V15.3021C41.7075 15.8074 42.1177 16.2176 42.623 16.2176H69.5626C70.068 16.2176 70.4782 15.8074 70.4782 15.3021V13.4711Z" fill="#FFFAF6"/>
<path d="M4.54242 10.7576V9.30174L8.56597 7.86974V7.76234L4.54242 6.33035V4.87448L10.0465 7.11794V8.52607L4.54242 10.7576Z" fill="#3BE140"/>
<path d="M16.5334 11.9511H11.018V13.2041H16.5334V11.9511Z" fill="#3BE140"/>
<path d="M26.7766 16.2009C27.7404 16.2009 28.5217 15.4196 28.5217 14.4558C28.5217 13.492 27.7404 12.7106 26.7766 12.7106C25.8127 12.7106 25.0314 13.492 25.0314 14.4558C25.0314 15.4196 25.8127 16.2009 26.7766 16.2009Z" fill="#EE6A5E"/>
<path d="M31.5416 16.2009C32.5054 16.2009 33.2867 15.4196 33.2867 14.4558C33.2867 13.492 32.5054 12.7106 31.5416 12.7106C30.5778 12.7106 29.7965 13.492 29.7965 14.4558C29.7965 15.4196 30.5778 16.2009 31.5416 16.2009Z" fill="#F6BE4F"/>
<path d="M36.3067 16.2009C37.2705 16.2009 38.0518 15.4196 38.0518 14.4558C38.0518 13.492 37.2705 12.7106 36.3067 12.7106C35.3429 12.7106 34.5616 13.492 34.5616 14.4558C34.5616 15.4196 35.3429 16.2009 36.3067 16.2009Z" fill="#56C646"/>
<path d="M43.8916 15.4391C44.4228 15.4391 44.8534 15.0085 44.8534 14.4773C44.8534 13.9461 44.4228 13.5155 43.8916 13.5155C43.3604 13.5155 42.9297 13.9461 42.9297 14.4773C42.9297 15.0085 43.3604 15.4391 43.8916 15.4391Z" fill="#212121"/>
<path d="M46.8998 15.4391C47.431 15.4391 47.8616 15.0085 47.8616 14.4773C47.8616 13.9461 47.431 13.5155 46.8998 13.5155C46.3686 13.5155 45.9379 13.9461 45.9379 14.4773C45.9379 15.0085 46.3686 15.4391 46.8998 15.4391Z" fill="#212121"/>
<path d="M49.9068 15.4391C50.438 15.4391 50.8686 15.0085 50.8686 14.4773C50.8686 13.9461 50.438 13.5155 49.9068 13.5155C49.3756 13.5155 48.9449 13.9461 48.9449 14.4773C48.9449 15.0085 49.3756 15.4391 49.9068 15.4391Z" fill="#212121"/>
<path d="M52.915 15.4391C53.4462 15.4391 53.8768 15.0085 53.8768 14.4773C53.8768 13.9461 53.4462 13.5155 52.915 13.5155C52.3838 13.5155 51.9531 13.9461 51.9531 14.4773C51.9531 15.0085 52.3838 15.4391 52.915 15.4391Z" fill="#212121"/>
<path d="M55.922 15.4391C56.4532 15.4391 56.8838 15.0085 56.8838 14.4773C56.8838 13.9461 56.4532 13.5155 55.922 13.5155C55.3908 13.5155 54.9601 13.9461 54.9601 14.4773C54.9601 15.0085 55.3908 15.4391 55.922 15.4391Z" fill="#212121"/>
<path d="M48.6013 46.324C52.3119 46.324 55.32 45.8552 55.32 45.2769C55.32 44.6986 52.3119 44.2298 48.6013 44.2298C44.8906 44.2298 41.8826 44.6986 41.8826 45.2769C41.8826 45.8552 44.8906 46.324 48.6013 46.324Z" fill="#6A6A6A"/>
<path d="M62.5137 32.283C62.4501 32.23 61.8775 31.7953 60.6476 31.7953C60.3295 31.7953 60.0008 31.8271 59.6827 31.8801C59.4494 30.2579 58.1029 29.4732 58.0498 29.4309L57.7211 29.24L57.5091 29.5475C57.244 29.961 57.0426 30.4275 56.9259 30.9046C56.7033 31.8271 56.8411 32.6965 57.3077 33.4387C56.7457 33.7568 55.8338 33.831 55.643 33.8416H40.587C40.1947 33.8416 39.8766 34.1597 39.8766 34.552C39.8554 35.8667 40.078 37.1815 40.534 38.4221C41.0535 39.7792 41.8275 40.7865 42.8242 41.4015C43.9481 42.0906 45.7824 42.4829 47.8499 42.4829C48.783 42.4829 49.716 42.3981 50.6385 42.2285C51.9214 41.9952 53.1513 41.5499 54.2858 40.9031C55.2189 40.3624 56.0565 39.6732 56.7669 38.8674C57.965 37.5208 58.6754 36.0152 59.1949 34.6793H59.407C60.7111 34.6793 61.5169 34.1597 61.9622 33.7144C62.2591 33.4387 62.4817 33.0994 62.6407 32.7177L62.7364 32.4421L62.5137 32.283Z" fill="#0091E2"/>
<path d="M41.9863 33.407H44.0008C44.0962 33.407 44.1811 33.3328 44.1811 33.2268V31.4243C44.1811 31.3289 44.1069 31.244 44.0008 31.244H41.9863C41.8909 31.244 41.806 31.3182 41.806 31.4243V33.2268C41.8167 33.3328 41.8909 33.407 41.9863 33.407ZM44.7642 33.407H46.7788C46.8742 33.407 46.959 33.3328 46.959 33.2268V31.4243C46.959 31.3289 46.8848 31.244 46.7788 31.244H44.7642C44.6688 31.244 44.584 31.3182 44.584 31.4243V33.2268C44.5946 33.3328 44.6688 33.407 44.7642 33.407ZM47.5952 33.407H49.6097C49.7052 33.407 49.79 33.3328 49.79 33.2268V31.4243C49.79 31.3289 49.7157 31.244 49.6097 31.244H47.5952C47.4998 31.244 47.415 31.3182 47.415 31.4243V33.2268C47.415 33.3328 47.4892 33.407 47.5952 33.407ZM50.3837 33.407H52.3983C52.4937 33.407 52.5785 33.3328 52.5785 33.2268V31.4243C52.5785 31.3289 52.5043 31.244 52.3983 31.244H50.3837C50.2883 31.244 50.2035 31.3182 50.2035 31.4243V33.2268C50.2035 33.3328 50.2883 33.407 50.3837 33.407ZM44.7642 30.8305H46.7788C46.8742 30.8305 46.959 30.7457 46.959 30.6503V28.8478C46.959 28.7524 46.8848 28.6676 46.7788 28.6676H44.7642C44.6688 28.6676 44.584 28.7418 44.584 28.8478V30.6503C44.5946 30.7457 44.6688 30.8305 44.7642 30.8305ZM47.5952 30.8305H49.6097C49.7052 30.8305 49.79 30.7457 49.79 30.6503V28.8478C49.79 28.7524 49.7157 28.6676 49.6097 28.6676H47.5952C47.4998 28.6676 47.415 28.7418 47.415 28.8478V30.6503C47.415 30.7457 47.4892 30.8305 47.5952 30.8305ZM50.3837 30.8305H52.3983C52.4937 30.8305 52.5785 30.7457 52.5785 30.6503V28.8478C52.5785 28.7524 52.4937 28.6676 52.3983 28.6676H50.3837C50.2883 28.6676 50.2035 28.7418 50.2035 28.8478V30.6503C50.2035 30.7457 50.2883 30.8305 50.3837 30.8305ZM50.3837 28.2435H52.3983C52.4937 28.2435 52.5785 28.1692 52.5785 28.0632V26.2607C52.5785 26.1653 52.4937 26.0805 52.3983 26.0805H50.3837C50.2883 26.0805 50.2035 26.1547 50.2035 26.2607V28.0632C50.2035 28.1586 50.2883 28.2435 50.3837 28.2435ZM53.1935 33.407H55.208C55.3035 33.407 55.3883 33.3328 55.3883 33.2268V31.4243C55.3883 31.3289 55.314 31.244 55.208 31.244H53.1935C53.0981 31.244 53.0132 31.3182 53.0132 31.4243V33.2268C53.0238 33.3328 53.0981 33.407 53.1935 33.407Z" fill="#0091E2"/>
</g>
<defs>
<clipPath id="clip0">
<rect width="76" height="56" fill="white"/>
</clipPath>
</defs>
</svg>
