<svg width="130" height="93" viewBox="0 0 130 93" fill="none" xmlns="http://www.w3.org/2000/svg">
<path d="M127.789 35.1684C127.429 34.8694 124.197 32.4162 117.255 32.4162C115.459 32.4162 113.604 32.5956 111.808 32.895C110.491 23.7408 102.891 19.3133 102.591 19.0742L100.736 17.997L99.5388 19.7323C98.0426 22.0655 96.9054 24.698 96.247 27.3905C94.9903 32.5956 95.7683 37.5019 98.4018 41.6898C95.2295 43.4848 90.0824 43.9036 89.0051 43.9636H4.01788C1.80338 43.9636 0.00778516 45.7583 0.00778516 47.9721C-0.111699 55.391 1.14503 62.8101 3.7187 69.8102C6.65129 77.4684 11.0203 83.1523 16.6463 86.6226C22.9904 90.5114 33.3446 92.7252 45.0152 92.7252C50.282 92.7252 55.5489 92.2464 60.7559 91.2892C67.9978 89.9729 74.9403 87.4601 81.3443 83.8104C86.6112 80.7591 91.3393 76.8702 95.3492 72.323C102.112 64.7245 106.122 56.2287 109.055 48.6902H110.252C117.613 48.6902 122.162 45.7583 124.675 43.2455C126.351 41.6898 127.608 39.7754 128.505 37.6213L129.045 36.0659L127.789 35.1684Z" fill="#0091E2"/>
<path d="M11.9166 41.511H23.2881C23.8267 41.511 24.3056 41.0923 24.3056 40.4938V30.3228C24.3056 29.7843 23.8867 29.3056 23.2881 29.3056H11.9166C11.378 29.3056 10.8991 29.7244 10.8991 30.3228V40.4938C10.9591 41.0923 11.378 41.511 11.9166 41.511ZM27.5974 41.511H38.9688C39.5075 41.511 39.9864 41.0923 39.9864 40.4938V30.3228C39.9864 29.7843 39.5674 29.3056 38.9688 29.3056H27.5974C27.0587 29.3056 26.5799 29.7244 26.5799 30.3228V40.4938C26.6398 41.0923 27.0587 41.511 27.5974 41.511ZM43.5773 41.511H54.949C55.4876 41.511 55.9663 41.0923 55.9663 40.4938V30.3228C55.9663 29.7843 55.5474 29.3056 54.949 29.3056H43.5773C43.0387 29.3056 42.56 29.7244 42.56 30.3228V40.4938C42.56 41.0923 42.9789 41.511 43.5773 41.511ZM59.318 41.511H70.6895C71.2281 41.511 71.707 41.0923 71.707 40.4938V30.3228C71.707 29.7843 71.2881 29.3056 70.6895 29.3056H59.318C58.7794 29.3056 58.3005 29.7244 58.3005 30.3228V40.4938C58.3005 41.0923 58.7794 41.511 59.318 41.511ZM27.5974 26.9724H38.9688C39.5075 26.9724 39.9864 26.4936 39.9864 25.9552V15.7841C39.9864 15.2457 39.5674 14.7669 38.9688 14.7669H27.5974C27.0587 14.7669 26.5799 15.1857 26.5799 15.7841V25.9552C26.6398 26.4936 27.0587 26.9724 27.5974 26.9724ZM43.5773 26.9724H54.949C55.4876 26.9724 55.9663 26.4936 55.9663 25.9552V15.7841C55.9663 15.2457 55.5474 14.7669 54.949 14.7669H43.5773C43.0387 14.7669 42.56 15.1857 42.56 15.7841V25.9552C42.56 26.4936 42.9789 26.9724 43.5773 26.9724ZM59.318 26.9724H70.6895C71.2281 26.9724 71.707 26.4936 71.707 25.9552V15.7841C71.707 15.2457 71.2281 14.7669 70.6895 14.7669H59.318C58.7794 14.7669 58.3005 15.1857 58.3005 15.7841V25.9552C58.3005 26.4936 58.7794 26.9724 59.318 26.9724ZM59.318 12.3738H70.6895C71.2281 12.3738 71.707 11.955 71.707 11.3566V1.18548C71.707 0.647034 71.2281 0.168304 70.6895 0.168304H59.318C58.7794 0.168304 58.3005 0.587073 58.3005 1.18548V11.3566C58.3005 11.895 58.7794 12.3738 59.318 12.3738ZM75.1782 41.511H86.5499C87.0886 41.511 87.5672 41.0923 87.5672 40.4938V30.3228C87.5672 29.7843 87.1483 29.3056 86.5499 29.3056H75.1782C74.6396 29.3056 74.1607 29.7244 74.1607 30.3228V40.4938C74.2207 41.0923 74.6396 41.511 75.1782 41.511Z" fill="#0091E2"/>
</svg>
