<svg width="27" height="27" viewBox="0 0 27 27" fill="none" xmlns="http://www.w3.org/2000/svg">
<path d="M25.3853 7.98212C25.3853 7.53543 25.2901 7.13266 25.0924 6.79578C24.902 6.45894 24.6164 6.18067 24.2356 5.96098C21.072 4.13753 17.9012 2.31411 14.7376 0.490656C13.8808 5.78165e-06 13.0606 0.014658 12.2111 0.512619C10.9516 1.25227 4.63909 4.86983 2.7644 5.96098C1.98814 6.40767 1.61468 7.09605 1.61468 7.98947V19.0033C1.61468 19.4427 1.70987 19.8308 1.89295 20.1677C2.08337 20.5119 2.37629 20.8048 2.7644 21.0318C4.64643 22.1229 10.9516 25.7332 12.2111 26.4802C13.0606 26.978 13.8881 27 14.7376 26.5021C17.9012 24.6714 21.072 22.8552 24.2356 21.0318C24.631 20.8048 24.9166 20.5192 25.107 20.1677C25.2901 19.8308 25.3853 19.4427 25.3853 19.0033V7.98212Z" fill="#9A4993"/>
<path d="M13.5293 13.4525L1.8783 20.1604C2.06872 20.5046 2.36164 20.7975 2.74976 21.0245C4.63179 22.1156 10.9369 25.7259 12.1965 26.4728C13.046 26.9708 13.8735 26.9928 14.7229 26.4948C17.8865 24.664 21.0574 22.8479 24.221 21.0245C24.6164 20.7975 24.902 20.5119 25.0924 20.1604L13.5293 13.4525Z" fill="#6A1577"/>
<path d="M10.0801 15.437C10.7612 16.6233 12.0354 17.4215 13.4927 17.4215C14.9646 17.4215 16.2461 16.616 16.9199 15.415L13.5293 13.4525L10.0801 15.437Z" fill="#6A1577"/>
<path d="M25.3853 7.98213C25.3853 7.53543 25.2901 7.13266 25.0924 6.79578L13.5293 13.4525L25.107 20.1604C25.2901 19.8235 25.3853 19.4354 25.3853 18.996V7.98213Z" fill="#813084"/>
<path d="M16.9198 15.415C16.2462 16.6087 14.9646 17.4215 13.4927 17.4215C12.0281 17.4215 10.7539 16.6233 10.0801 15.437C9.7506 14.8585 9.56018 14.1994 9.56018 13.4891C9.56018 11.3141 11.3177 9.55658 13.4927 9.55658C14.9426 9.55658 16.2095 10.3475 16.8906 11.5192L20.3251 9.54193C18.9557 7.18393 16.4072 5.59482 13.4854 5.59482C9.1208 5.59482 5.59112 9.13185 5.59112 13.4891C5.59112 14.9171 5.97189 16.2645 6.63831 17.4215C8.00038 19.7869 10.5634 21.3833 13.4927 21.3833C16.4292 21.3833 18.9923 19.7796 20.3544 17.3996L16.9198 15.415ZM21.2624 11.6217H20.4788V15.4077H21.2624V11.6217ZM22.998 11.6217H22.2144V15.4077H22.998V11.6217Z" fill="white"/>
<path d="M23.6351 12.2588H19.8491V13.0424H23.6351V12.2588ZM23.6351 13.987H19.8491V14.7706H23.6351V13.987Z" fill="white"/>
</svg>
