<svg width="48" height="13" viewBox="0 0 48 13" fill="none" xmlns="http://www.w3.org/2000/svg">
<g clip-path="url(#clip0)">
<path fill-rule="evenodd" clip-rule="evenodd" d="M35.4427 -0.387268L35.1709 5.04877L36.2795 5.63151L35.4427 -0.387268Z" fill="#005877"/>
<path fill-rule="evenodd" clip-rule="evenodd" d="M39.4109 7.27754L36.2794 5.63151L35.4426 -0.387268L39.4109 7.27754Z" fill="#63AFBA"/>
<path fill-rule="evenodd" clip-rule="evenodd" d="M36.2795 5.63151L36.8561 9.77812L35.1709 5.04877L36.2795 5.63151Z" fill="#172754"/>
<path fill-rule="evenodd" clip-rule="evenodd" d="M39.4112 7.27753L36.8563 9.77811L36.2798 5.6315L39.4112 7.27753Z" fill="#006095"/>
<path fill-rule="evenodd" clip-rule="evenodd" d="M42.0141 9.13343L36.8562 9.77815L48 1.95026L42.0141 9.13343Z" fill="#F05023"/>
<path fill-rule="evenodd" clip-rule="evenodd" d="M47.728 8.41914L42.0139 9.13343L47.9998 1.95026L47.728 8.41914Z" fill="#D11B66"/>
<path fill-rule="evenodd" clip-rule="evenodd" d="M42.0141 9.13339L39.5742 12.0612L36.8562 9.77811L42.0141 9.13339Z" fill="#CE2F38"/>
<path fill-rule="evenodd" clip-rule="evenodd" d="M39.5742 12.0612L42.0141 9.13339L47.7282 8.4191L39.5742 12.0612Z" fill="#AF1F59"/>
<path fill-rule="evenodd" clip-rule="evenodd" d="M36.8559 9.77809L33.624 7.40798L34.1379 6.78827L36.8559 9.77809Z" fill="#F05023"/>
<path fill-rule="evenodd" clip-rule="evenodd" d="M33.6241 7.40801L31.9636 6.19034L34.138 6.7883L33.6241 7.40801Z" fill="#CE2F38"/>
<path fill-rule="evenodd" clip-rule="evenodd" d="M33.6239 7.40799L36.8558 9.7781L32.2896 9.01706L33.6239 7.40799Z" fill="#D11C66"/>
<path fill-rule="evenodd" clip-rule="evenodd" d="M33.6241 7.40801L32.2898 9.01708L31.9636 6.19034L33.6241 7.40801Z" fill="#AF1F59"/>
<path fill-rule="evenodd" clip-rule="evenodd" d="M35.5126 12.7869L35.4968 12.8223L33.5398 10.9741L35.5126 12.7869Z" fill="#005F95"/>
<path fill-rule="evenodd" clip-rule="evenodd" d="M35.5263 12.7563L34.6963 10.5569L36.8558 9.77811L35.5263 12.7563Z" fill="#005F95"/>
<path fill-rule="evenodd" clip-rule="evenodd" d="M34.6964 10.5569L34.4641 9.94119L36.856 9.77811L34.6964 10.5569Z" fill="#65B1BB"/>
<path fill-rule="evenodd" clip-rule="evenodd" d="M35.5262 12.7563L35.5126 12.7869L33.5398 10.9741L34.6963 10.5569L35.5262 12.7563Z" fill="#172754"/>
<path fill-rule="evenodd" clip-rule="evenodd" d="M34.6963 10.5569L33.5398 10.974L34.4639 9.94116L34.6963 10.5569Z" fill="#005878"/>
<path fill-rule="evenodd" clip-rule="evenodd" d="M1.68509 9.61502H6.5775C6.5775 9.61502 6.98683 5.91851 3.75078 5.91851C0.652249 5.91851 0.271729 8.792 0.271729 9.39758C0.271729 10.0032 0.271729 12.8223 4.6749 12.8223C9.19592 12.8223 8.12323 12.8223 8.48011 12.8223C8.83698 12.8223 9.24115 12.5508 9.24115 12.0612V5.59235L14.1879 12.8223H15.3838V4.88567C15.3838 4.65143 15.4306 4.55951 15.6556 4.55951H16.2536V3.4723H14.6228C14.3665 3.4723 14.0248 3.65305 14.0248 3.96154V10.4848L9.13243 3.41794H7.88214V11.3002C7.88214 11.5829 7.86421 11.6807 7.61034 11.6807H3.37025C2.78034 11.6807 1.68509 10.8886 1.68509 9.61502ZM1.68509 8.69089H5.27286C5.27286 8.69089 5.27286 6.95136 3.69642 6.95136C1.95689 6.95136 1.68509 8.69089 1.68509 8.69089Z" fill="white"/>
<path fill-rule="evenodd" clip-rule="evenodd" d="M22.3424 12.0069C22.3424 12.0069 21.4726 13.0397 19.57 13.0397C16.9063 13.0397 16.0994 10.6479 16.0994 9.39758C16.0994 8.52781 16.4799 5.91852 19.5784 5.91852C22.8145 5.91852 22.4051 9.61502 22.4051 9.61502H17.5127C17.5127 10.8886 18.3741 11.5176 19.1979 11.6807C21.0819 11.9054 21.7444 11.0828 21.7444 11.0828L22.3424 12.0069ZM17.5127 8.6909H21.1005C21.1005 8.6909 21.1005 6.95136 19.5241 6.95136C17.7845 6.95136 17.5127 8.6909 17.5127 8.6909Z" fill="white"/>
<path fill-rule="evenodd" clip-rule="evenodd" d="M23.375 4.2334V6.02729H22.4216V7.16886H23.375V10.811C23.375 11.3853 24.1955 12.8223 25.2776 12.8223H26.3648V11.7351H25.8212C25.521 11.7351 24.6796 11.3376 24.6796 10.6479V7.1145H27.1928V10.6479C27.1928 11.409 27.8463 12.8223 29.1372 12.8223H30.2244V11.7351H29.6264C29.2764 11.7351 28.5392 11.1412 28.5392 10.5936V7.1145H30.17V6.08165H28.5392V4.2334H27.2346V6.02729H24.6796V4.2334H23.375Z" fill="white"/>
</g>
<defs>
<clipPath id="clip0">
<rect width="48" height="13" fill="white"/>
</clipPath>
</defs>
</svg>
