<svg width="34" height="35" viewBox="0 0 34 35" fill="none" xmlns="http://www.w3.org/2000/svg">
<g clip-path="url(#clip0)">
<path d="M5.56752 3.59969L6.58269 3.52639L6.09604 3.0866C5.91891 3.24981 5.74273 3.42084 5.56752 3.59969Z" fill="#EA5D59"/>
<path d="M20.4578 3.07194C20.4892 3.07165 20.5205 3.06944 20.5516 3.06534C20.2628 2.82932 19.974 2.60942 19.6852 2.40565C19.7146 2.59196 19.8086 2.76147 19.9503 2.88363C20.0919 3.00579 20.2719 3.07257 20.4578 3.07194Z" fill="#EE4033"/>
<path d="M21.2 2.52293L21.1682 2.50094C20.7913 2.24293 17.2065 -0.127539 12.8852 0.115079C14.7733 0.0571735 16.9675 0.566598 19.3502 2.1733C19.4621 2.2466 19.5747 2.32649 19.6874 2.40712C19.9728 2.6104 20.2616 2.8303 20.5538 3.06681C20.8599 3.31602 21.1687 3.58478 21.4802 3.87309C21.5531 3.91472 21.6235 3.96073 21.691 4.01089C21.778 3.74228 21.7772 3.45231 21.6888 3.18419C21.6003 2.91606 21.4289 2.68412 21.2 2.52293Z" fill="#EA5D59"/>
<path d="M6.07941 3.07194L6.09602 3.08733C8.33428 1.02545 10.7025 0.237489 12.883 0.114347C8.75378 0.239688 6.07941 3.07194 6.07941 3.07194Z" fill="#EE4033"/>
<path d="M3.63971 8.75843L-0.0404358 12.4945L3.66281 16.2539L3.63971 8.75843Z" fill="#EADC36"/>
<path d="M3.63971 16.4049V16.2305C3.61661 17.9999 0.87076 20.9032 0.87076 23.1242C0.87076 25.4837 4.04766 25.4697 4.04766 23.1066V23.0787C3.7756 21.9112 3.63846 20.7155 3.63899 19.5157V16.4049H3.63971Z" fill="#EE4033"/>
<path d="M10.8 0.439791C9.02654 0.882321 7.3987 1.78999 6.07941 3.07194C6.34679 2.82119 6.63151 2.5902 6.93139 2.38073C8.07917 1.47613 9.39496 0.815968 10.8 0.439791Z" fill="#EE4033"/>
<path d="M21.1668 2.50021L21.1986 2.5222C21.2309 2.42104 21.2428 2.3143 21.2335 2.20837C21.2243 2.10243 21.1941 1.99948 21.1447 1.90567C21.0954 1.81185 21.0279 1.72911 20.9464 1.66237C20.8648 1.59564 20.7708 1.54629 20.67 1.51728C19.8036 1.13539 16.2419 -0.288063 12.3668 0.155392C12.5396 0.137312 12.7112 0.123629 12.8816 0.114345C17.2051 -0.128273 20.7906 2.2422 21.1668 2.50021Z" fill="#EE4033"/>
<path d="M11.2282 1.02618C12.8807 1.02615 14.4882 1.57358 15.8064 2.58534C17.1246 3.59709 18.0817 5.01791 18.5321 6.63204L18.6693 6.83875C18.8373 7.11457 19.0652 7.34773 19.3355 7.52038C19.6059 7.69303 19.9116 7.8006 20.2293 7.83484C20.5469 7.86908 20.868 7.8291 21.1681 7.71794C21.4682 7.60679 21.7392 7.42742 21.9605 7.19355C22.1817 6.95969 22.3474 6.67753 22.4447 6.36868C22.542 6.05982 22.5684 5.73246 22.5219 5.41165C22.4754 5.09083 22.3573 4.78507 22.1764 4.51776C21.9956 4.25045 21.7569 4.02868 21.4787 3.86943C20.8125 3.2502 20.1009 2.68319 19.3502 2.1733C19.2029 2.07557 19.0561 1.98028 18.9097 1.88744H18.9054C18.8419 1.84786 18.7783 1.80901 18.7148 1.77089L18.6621 1.73937L18.4758 1.63016L18.439 1.6089C18.2407 1.49553 18.0436 1.3895 17.8477 1.29079L17.7993 1.2666L17.6224 1.17278L17.5668 1.14639C17.3742 1.05599 17.1853 0.972184 17 0.894976L16.956 0.879583L16.7913 0.814348L16.7191 0.787227L16.5596 0.727856L16.496 0.705133C16.3834 0.665063 16.2715 0.626948 16.1603 0.590788L16.1321 0.581992L15.9877 0.53728L15.8996 0.513091L15.7625 0.47351L15.6679 0.445657L15.5357 0.410473L15.4195 0.381887C15.3526 0.365761 15.2857 0.350369 15.2188 0.335709L15.1047 0.310788L14.9906 0.288065L14.8736 0.266809L14.7668 0.247751L14.6224 0.224295L14.5126 0.20817L14.3329 0.183981L14.244 0.17372L14.1076 0.15906L14.0231 0.146599L13.8736 0.134138L13.8051 0.129007C13.7343 0.124121 13.664 0.119967 13.5942 0.116547H13.5394L13.3783 0.111416H13.3061H13.0895C13.0173 0.111416 12.9502 0.111416 12.8809 0.115081C12.7105 0.124854 12.5389 0.138536 12.3661 0.156128C11.8378 0.210504 11.3142 0.305329 10.8 0.439793C9.39498 0.81597 8.07918 1.47613 6.93141 2.38073C8.19484 1.49655 9.69361 1.02406 11.2282 1.02618Z" fill="#EE4033"/>
<path d="M18.8166 19.5157V8.75843C18.8166 8.7489 18.8166 8.73937 18.8166 8.72984C18.8166 6.6867 18.0171 4.72725 16.594 3.28253C15.1709 1.83781 13.2407 1.02618 11.2282 1.02618C9.21558 1.02618 7.28543 1.83781 5.86232 3.28253C4.43921 4.72725 3.63971 6.6867 3.63971 8.72984C3.63971 8.73937 3.63971 8.7489 3.63971 8.75843V19.5157C3.63918 20.7155 3.77633 21.9112 4.04838 23.0787C5.63177 29.8698 11.6433 34.923 18.8166 34.923C27.1986 34.923 33.9935 28.0249 33.9935 19.5157V8.74084C33.9935 11.9337 27.1574 19.5157 18.8166 19.5157Z" fill="#E8A538"/>
<path d="M11.2282 11.8817C12.9273 11.8817 14.3047 10.4834 14.3047 8.75843C14.3047 7.03351 12.9273 5.63518 11.2282 5.63518C9.52904 5.63518 8.15163 7.03351 8.15163 8.75843C8.15163 10.4834 9.52904 11.8817 11.2282 11.8817Z" fill="white"/>
</g>
<defs>
<clipPath id="clip0">
<rect width="34" height="35" fill="white"/>
</clipPath>
</defs>
</svg>
