<svg width="35" height="35" viewBox="0 0 35 35" fill="none" xmlns="http://www.w3.org/2000/svg">
<path d="M10.6362 29.2432V13.5491H5.39875V29.2432H10.6367H10.6362ZM8.01856 11.4067C9.84457 11.4067 10.9814 10.2016 10.9814 8.69554C10.9472 7.15517 9.84457 5.98368 8.05328 5.98368C6.26076 5.98368 5.09004 7.15517 5.09004 8.69541C5.09004 10.2015 6.22645 11.4066 7.98424 11.4066H8.01815L8.01856 11.4067ZM13.5352 29.2432H18.7722V20.4799C18.7722 20.0114 18.8064 19.5418 18.9447 19.2072C19.3232 18.2697 20.1849 17.2992 21.6321 17.2992C23.5267 17.2992 24.2851 18.7382 24.2851 20.8482V29.2432H29.522V20.2447C29.522 15.4243 26.9385 13.1812 23.4928 13.1812C20.6678 13.1812 19.4271 14.7538 18.7377 15.825H18.7726V13.5497H13.5354C13.6038 15.022 13.535 29.2437 13.535 29.2437L13.5352 29.2432Z" fill="white"/>
</svg>
