<svg width="364" height="224" viewBox="0 0 364 224" fill="none" xmlns="http://www.w3.org/2000/svg">
<path fill-rule="evenodd" clip-rule="evenodd" d="M68 223.877C66.6771 223.959 65.3434 224 64 224C28.6538 224 0 195.346 0 160C0 124.654 28.6538 96 64 96C67.7857 96 71.4946 96.3287 75.0998 96.9591C77.475 43.0094 121.965 0 176.5 0C218.918 0 255.258 26.0199 270.431 62.9693C274.527 62.3312 278.725 62 283 62C327.735 62 364 98.2649 364 143C364 187.735 327.735 224 283 224C281.321 224 279.654 223.949 278 223.848V224H68V223.877Z" fill="#FC8621"/>
</svg>
