<svg width="75" height="47" viewBox="0 0 75 47" fill="none" xmlns="http://www.w3.org/2000/svg">
<path fill-rule="evenodd" clip-rule="evenodd" d="M15.6413 45.9258C14.846 46.0755 14.0256 46.1538 13.1868 46.1538C5.90394 46.1538 0 40.2499 0 32.967C0 25.6841 5.90394 19.7802 13.1868 19.7802C13.9668 19.7802 14.731 19.8479 15.4739 19.9778C15.9633 8.86183 25.1301 0 36.3668 0C45.1067 0 52.5945 5.36126 55.7207 12.9745C56.5647 12.843 57.4296 12.7748 58.3104 12.7748C67.5278 12.7748 75 20.2469 75 29.4643C75 38.6817 67.5278 46.1539 58.3104 46.1539C57.3684 46.1539 56.4445 46.0758 55.545 45.9258H15.6413Z" fill="#F8D6B9"/>
</svg>
