<svg width="41" height="33" viewBox="0 0 41 33" fill="none" xmlns="http://www.w3.org/2000/svg">
<path d="M10.9922 21.8623L7.54063 23.3982L10.7372 24.8143L14.4437 23.3982L10.9922 21.8623ZM5.80298 23.7821L5.68733 30.6937L10.7371 32.9975V25.8219L5.80298 23.7821ZM16.1813 23.7821L11.6178 25.5822V32.3494L16.1813 30.4296V23.7821ZM21.6255 2.27947L18.1502 3.81541L21.3705 5.2315L25.077 3.81541L21.6255 2.27947ZM16.807 4.31995V11.2315L21.1155 12.5278L21.2549 6.23979L16.807 4.31995ZM26.4441 4.70389L22.3669 6.50399V13.2958L26.4441 11.3759V4.70389H26.4441ZM5.30482 12.0071L1.85327 13.543L5.04982 14.9592L8.75637 13.543L5.30482 12.0071ZM0.115652 13.927L0 20.8386L5.04982 23.1425V15.9667L0.115652 13.927ZM10.494 13.927L5.93051 15.7271V22.4943L10.494 20.5744V13.927ZM16.4245 11.7522L12.973 13.2881L16.1695 14.7042L19.876 13.2881L16.4245 11.7522ZM11.2353 13.6721L11.1196 20.5836L16.1695 22.8875V15.7125L11.2353 13.6721ZM21.6137 13.6721L17.0502 15.4721V22.2393L21.6137 20.3195V13.6721ZM32.4865 2.27947L29.035 3.81537L32.2315 5.23147L35.938 3.81537L32.4865 2.27947ZM27.2973 4.19935L27.1817 11.1109L32.2315 13.4148V6.23979L27.2973 4.19935ZM37.6757 4.19935L33.1122 5.99942V12.7666L37.6757 10.8467V4.19935Z" fill="#F7A80D"/>
</svg>
