<svg width="196" height="47" viewBox="0 0 196 47" fill="none" xmlns="http://www.w3.org/2000/svg">
<g clip-path="url(#clip0)">
<path d="M66.0396 28.5317H56.1491V38.767H50.9979V13.7206H67.276V17.9007H56.1491V24.3689H66.0396V28.5317Z" fill="#141115"/>
<path d="M80.5422 36.889C79.3172 38.3798 77.6234 39.125 75.4594 39.125C73.4676 39.125 71.9482 38.5518 70.9007 37.4051C69.8531 36.2579 69.3181 34.5778 69.2951 32.3649V20.1683H74.2578V32.2065C74.2578 34.1471 75.1389 35.1169 76.9021 35.1169C78.5848 35.1169 79.741 34.5314 80.3705 33.3603V20.1683H85.3504V38.7809H80.6795L80.5422 36.889Z" fill="#141115"/>
<path d="M93.5189 20.1528L93.6734 22.303C95.0013 20.6402 96.7816 19.8088 99.0136 19.8088C100.983 19.8088 102.448 20.3877 103.409 21.5463C104.371 22.7046 104.864 24.4359 104.886 26.7414V38.7655H99.9238V26.8616C99.9238 25.8064 99.6947 25.0409 99.2369 24.5651C98.7792 24.0892 98.0177 23.8513 96.9533 23.8513C95.5566 23.8513 94.5091 24.4474 93.8107 25.6402V38.7655H88.8485V20.1528H93.5189Z" fill="#141115"/>
<path d="M123.291 27.7061H112.799V38.767H109.502V13.7206H124.991V16.4214H112.799V25.0053H123.291V27.7061Z" fill="#141115"/>
<path d="M131.748 12.3543H128.571V38.777H131.748V12.3543Z" fill="#141115"/>
<path d="M140.14 38.7754H136.964V20.1628H140.14V38.7754ZM136.706 15.2256C136.706 14.7095 136.864 14.2739 137.178 13.9183C137.493 13.5628 137.96 13.385 138.578 13.385C139.196 13.385 139.665 13.5628 139.986 13.9183C140.306 14.2739 140.467 14.7095 140.467 15.2256C140.467 15.7417 140.306 16.1716 139.986 16.5156C139.665 16.8597 139.196 17.0317 138.578 17.0317C137.96 17.0317 137.493 16.8597 137.178 16.5156C136.864 16.1716 136.706 15.7417 136.706 15.2256Z" fill="#141115"/>
<path d="M152.531 36.5123C153.665 36.5123 154.655 36.1682 155.502 35.4801C156.349 34.7919 156.818 33.9318 156.91 32.8996H159.915C159.858 33.9663 159.491 34.9812 158.816 35.9444C158.141 36.9076 157.239 37.6762 156.112 38.2498C154.984 38.823 153.791 39.1095 152.531 39.1095C150.001 39.1095 147.99 38.264 146.496 36.5724C145.002 34.8808 144.255 32.567 144.255 29.6314V29.0981C144.255 27.2862 144.587 25.6747 145.251 24.2639C145.915 22.8536 146.868 21.7582 148.11 20.9785C149.352 20.1988 150.82 19.8088 152.514 19.8088C154.598 19.8088 156.329 20.4336 157.708 21.6839C159.088 22.9336 159.823 24.5567 159.915 26.5521H156.91C156.818 25.3478 156.363 24.3586 155.545 23.5846C154.726 22.8107 153.716 22.4233 152.514 22.4233C150.9 22.4233 149.649 23.0053 148.762 24.1697C147.875 25.3337 147.432 27.0164 147.432 29.2184V29.8207C147.432 31.9651 147.872 33.6165 148.754 34.7747C149.635 35.9329 150.894 36.5123 152.531 36.5123Z" fill="#141115"/>
<path d="M168.534 30.159L166.542 32.2402V38.777H163.365V12.3543H166.542V28.3352L168.242 26.2885L174.029 20.1643H177.892L170.663 27.9398L178.734 38.777H175.007L168.534 30.159Z" fill="#141115"/>
<path d="M191.847 33.8287C191.847 32.9686 191.524 32.3003 190.877 31.8245C190.23 31.3486 189.102 30.9387 187.494 30.5946C185.886 30.2505 184.609 29.8375 183.665 29.3559C182.721 28.8743 182.023 28.3011 181.57 27.6356C181.118 26.9704 180.892 26.1793 180.892 25.2621C180.892 23.7368 181.536 22.4463 182.824 21.3911C184.112 20.3364 185.757 19.8088 187.76 19.8088C189.867 19.8088 191.575 20.3536 192.886 21.4428C194.197 22.5325 194.852 23.9256 194.852 25.6229H191.658C191.658 24.7517 191.289 24.0003 190.551 23.3697C189.812 22.7386 188.882 22.4233 187.76 22.4233C186.604 22.4233 185.7 22.6758 185.047 23.1804C184.395 23.685 184.069 24.3444 184.069 25.1586C184.069 25.9272 184.372 26.5061 184.979 26.8961C185.586 27.2862 186.682 27.6586 188.267 28.0141C189.852 28.3697 191.138 28.7942 192.122 29.2873C193.106 29.7804 193.836 30.3739 194.311 31.0678C194.786 31.7612 195.024 32.6073 195.024 33.605C195.024 35.2678 194.36 36.6011 193.032 37.6046C191.704 38.608 189.981 39.1095 187.863 39.1095C186.375 39.1095 185.059 38.846 183.914 38.3184C182.77 37.7908 181.873 37.054 181.227 36.108C180.58 35.1616 180.257 34.1383 180.257 33.0371H183.433C183.49 34.1038 183.917 34.9498 184.713 35.5747C185.508 36.1996 186.558 36.5123 187.863 36.5123C189.065 36.5123 190.03 36.2686 190.757 35.7812C191.484 35.2939 191.847 34.6429 191.847 33.8287Z" fill="#141115"/>
<path fill-rule="evenodd" clip-rule="evenodd" d="M18.0134 47.1332C17.8452 47.1832 17.6647 47.1725 17.5031 47.1036C15.6746 46.3203 4.35785 41.4716 1.93389 40.4332C1.65711 40.3143 1.47744 40.0418 1.47744 39.7398C1.47744 37.5648 1.47744 28.9048 1.47744 26.7299C1.47744 26.4278 1.65711 26.155 1.93389 26.0365C4.35785 24.9981 15.6751 20.1493 17.5031 19.3661C17.6647 19.2971 17.8452 19.2865 18.0134 19.3365C19.1845 19.685 24.04 21.1289 27.0899 22.0359C27.4704 22.1491 27.7388 22.4901 27.7591 22.8873C27.7799 23.2848 27.5485 23.6519 27.1817 23.804C25.6353 24.4448 23.9265 25.1533 23.9265 25.1533C22.2406 25.7861 20.9552 29.0981 20.9552 33.0889C20.9552 37.4313 22.4773 40.9701 24.3816 41.1275L24.3781 41.1333C24.3781 41.1333 28.898 41.4459 30.4775 41.5552C30.7799 41.5764 31.0147 41.828 31.0147 42.1319V43.2667C31.0147 43.2667 19.8688 46.5813 18.0134 47.1332ZM15.4204 39.363C15.4204 39.8344 15.1952 40.278 14.8152 40.5566C14.4351 40.8352 13.9446 40.9148 13.4961 40.7715C11.0925 40.0047 7.0683 38.72 5.18644 38.1194C4.5746 37.9239 4.15876 37.3543 4.15876 36.7104C4.15876 34.9662 4.15876 31.5517 4.15876 29.8216C4.15876 29.1883 4.56135 28.6249 5.15995 28.4215C7.02283 27.7873 11.0514 26.4159 13.4692 25.5929C13.9199 25.4394 14.417 25.5133 14.8037 25.791C15.1908 26.0687 15.4204 26.5163 15.4204 26.993C15.4204 30.1679 15.4204 36.2125 15.4204 39.363Z" fill="#141115"/>
<path fill-rule="evenodd" clip-rule="evenodd" d="M35.6889 22.2781C36.0355 22.1366 36.3957 22.0619 36.7656 22.0619C39.4562 22.0619 41.6373 26.0177 41.6373 30.8974C41.6373 35.7599 39.4716 39.7051 36.7943 39.733H36.7908H36.7656C36.6495 39.733 36.5343 39.7259 36.4204 39.7113L24.7703 39.0285H24.7694C23.4085 39.0285 22.3049 36.3684 22.3049 33.0874C22.3049 30.0992 23.22 27.6262 24.4119 27.2087L35.6889 22.2755V22.2781ZM36.7943 24.7304C38.1557 24.7304 39.2597 27.39 39.2597 30.671C39.2597 33.952 38.1557 36.6117 36.7943 36.6117C35.4324 36.6117 34.3288 33.952 34.3288 30.671C34.3288 27.39 35.4324 24.7304 36.7943 24.7304Z" fill="#141115"/>
<path fill-rule="evenodd" clip-rule="evenodd" d="M12.5079 18.6886C12.3477 18.7549 12.1844 18.7978 12.0184 18.8151C9.88357 19.0384 8.15268 14.9742 8.15268 9.73759C8.15268 4.50055 9.88357 0.0745926 12.0184 -0.14874C12.2038 -0.168198 12.3865 -0.155373 12.5649 -0.112034L15.7079 0.41733C17.4649 0.688425 18.8338 4.19054 18.8338 8.62004C18.8338 13.05 17.4644 16.8387 15.7075 17.4773L12.5079 18.6886ZM11.9182 3.29677C13.1242 3.29677 14.1029 6.11518 14.1029 9.58722C14.1029 13.0588 13.1242 15.8777 11.9182 15.8777C10.7126 15.8777 9.73348 13.0588 9.73348 9.58722C9.73348 6.11518 10.7126 3.29677 11.9182 3.29677Z" fill="#141115"/>
<path fill-rule="evenodd" clip-rule="evenodd" d="M3.07675 23.2593C2.92622 23.3349 2.77083 23.3729 2.61236 23.3712C1.18297 23.3539 0.0241852 20.069 0.0241852 16.0339C0.0241852 11.9989 1.18297 8.7418 2.61236 8.75905C2.75803 8.76082 2.90062 8.79664 3.03967 8.86342L5.38505 9.93895C6.44451 10.4095 7.25588 13.0024 7.25588 16.1211C7.25588 19.2101 6.45952 21.7645 5.41507 22.2448V22.2457L3.07675 23.2593ZM2.38369 11.646C3.07719 11.646 3.64003 13.6259 3.64003 16.0653C3.64003 18.5043 3.07719 20.4847 2.38369 20.4847C1.69019 20.4847 1.12691 18.5043 1.12691 16.0653C1.12691 13.6259 1.69019 11.646 2.38369 11.646Z" fill="#141115"/>
</g>
<defs>
<clipPath id="clip0">
<rect width="196" height="47" fill="white"/>
</clipPath>
</defs>
</svg>
