<svg width="52" height="32" viewBox="0 0 52 32" fill="none" xmlns="http://www.w3.org/2000/svg">
<path d="M48.4191 31.9775H3.73648C1.71255 31.9775 0 30.2702 0 28.252V3.72549C0 1.70751 1.71255 0 3.73648 0H48.2635C50.2875 0 52 1.70751 52 3.72549V28.252C52 30.27 50.443 31.9775 48.4191 31.9775ZM3.73648 2.4836C3.1137 2.4836 2.49092 3.10454 2.49092 3.72549V28.252C2.49092 29.0281 3.1137 29.4939 3.73648 29.4939H48.2635C49.0419 29.4939 49.5091 28.8729 49.5091 28.252V3.72549C49.5091 2.94941 48.8863 2.4836 48.2635 2.4836H3.73648ZM7.47297 24.5265V7.45099H12.455L17.4371 13.6605L22.4191 7.45099H27.4012V24.5265H22.4191V14.7468L17.4371 20.9563L12.455 14.7468V24.5265H7.47297ZM38.7664 24.5265L31.2934 16.2992H36.2755V7.45099H41.2575V16.1441H46.2396L38.7666 24.5265H38.7664Z" fill="black"/>
</svg>
