<svg width="75" height="26" viewBox="0 0 75 26" fill="none" xmlns="http://www.w3.org/2000/svg">
<g clip-path="url(#clip0)">
<path fill-rule="evenodd" clip-rule="evenodd" d="M59.6157 1.48391H61.6236V0.756213H54.6303V1.48391H56.6382V15.5347H54.6303V16.262H61.6236V15.5347H59.6157V1.48391ZM72.344 16.262V15.5347H70.1971V1.33645C73.4765 1.17381 74.0335 1.86834 74.4528 4.83947H75.174L74.9181 0.756213H62.475L62.2191 4.83947H62.9635C63.382 1.86834 63.9391 1.17421 67.2192 1.33645V15.5343H65.0724V16.2616H72.344V16.262ZM53.2984 1.47072V0.743027H47.5629L44.1911 11.3472L40.9357 0.743027H35.2319V1.47072H37.2386V15.5156L35.0713 15.5148C33.0498 15.5623 33.0234 13.8468 33.0262 13.4911C33.0558 9.70757 32.2148 8.33969 28.5862 7.78263V7.73628C30.7495 7.5037 33.5175 6.89309 33.5175 4.27042C33.5175 1.04354 30.4936 0.741829 27.9579 0.741829H20.4604V1.46953H22.468V15.5204H20.4604V16.2477H27.4529V15.5204H25.4454V8.11551C26.7313 8.06036 28.1906 8.39404 28.8417 8.9511C29.4464 9.46181 29.772 11.0483 29.772 12.9752C29.772 15.3433 31.0042 16.2425 33.3541 16.2425L40.0907 16.2433V15.516H38.1305V1.71809H38.1765L42.8039 16.2437H43.5948L48.2453 1.71809H48.315V15.516H46.3087V16.2433H53.298V15.516H51.2909V1.47072H53.2984ZM25.4454 7.38821V1.46993H27.4693C29.5397 1.46993 30.307 1.99542 30.307 4.59531C30.307 6.68489 29.4464 7.38821 27.3528 7.38821H25.4454ZM20.5225 19.9149H23.4928V20.1835H22.7391V24.5177C22.7391 25.3417 22.9457 25.7541 23.9597 25.7625C24.6685 25.7717 25.0634 25.4316 25.252 25.1714C25.4586 24.9473 25.4586 24.2583 25.4586 23.5238V20.5151C25.4586 20.3357 25.3153 20.1835 25.055 20.1835H24.6513V19.9149H26.5451V20.1835H26.0057C25.799 20.1835 25.7273 20.3357 25.7273 20.5151V24.1952C25.7273 24.6519 25.6917 25.1179 25.3773 25.458C25.0453 25.8256 24.5247 26.031 23.5016 26.031C22.0299 26.031 21.2313 25.5207 21.2313 24.0705V20.1835H20.5221V19.9149H20.5225ZM32.1516 26.0306H31.9453L28.1045 20.703V25.2961C28.1045 25.5203 28.2302 25.6098 28.4545 25.6278H28.9659V25.8963H26.9916V25.6278H27.4225C27.7276 25.6098 27.7457 25.4216 27.7457 25.1619V20.7381C27.7457 20.2993 27.8266 20.1831 27.2879 20.1831H26.9916V19.9145H29.3611L31.8828 23.4603V20.4428C31.8828 20.2634 31.5148 20.1831 31.2906 20.1831H31.0395V19.9145H32.9333V20.1831H32.5564C32.2961 20.1831 32.1524 20.2634 32.1524 20.4428V26.0306H32.1516ZM33.4426 25.8963V25.6282H34.1066V20.1835H33.4426V19.9149H36.368V20.1835H35.6144V25.6282H36.368V25.8963H33.4426ZM36.6632 19.9149H39.4456V20.1835H38.754L40.2525 23.8643L41.4639 20.3809C41.4911 20.3089 41.4555 20.1835 40.9525 20.1835H40.6474V19.9149H42.5231V20.1835H42.1555C41.9397 20.1835 41.8504 20.2374 41.5096 21.2137L39.8312 26.031H39.5529L37.1749 20.1835H36.6636V19.9149H36.6632ZM42.8996 25.8963V25.6278H43.6176V20.1831H42.9801V19.9145H47.8897L47.943 21.5262H47.6378C47.261 20.5147 46.8665 20.1831 45.9687 20.1831H45.1257V22.6814C46.0047 22.6814 46.1934 22.4217 46.3724 21.5981H46.6687V24.1408H46.3724C46.2474 23.2817 46.0047 22.9951 45.1257 22.9951V25.6278H46.0047C47.3956 25.6278 47.6474 24.9736 47.8897 23.9358H48.1672L48.1132 25.8963H42.8996ZM48.7956 25.8963V25.6278H49.4956V20.1831H48.7775V19.9145H52.3401C53.2371 19.9145 54.1798 20.3173 54.1798 21.3655C54.1798 22.3506 52.9324 22.6371 52.1783 22.7174V22.7354C53.4257 22.968 53.9459 23.4603 53.9459 24.3207C53.9459 25.0635 53.982 25.386 54.1077 25.5203C54.1702 25.5834 54.35 25.6554 54.7993 25.5563L54.8526 25.7445C54.5654 25.8967 54.1261 26.0222 53.803 26.0222C52.7081 26.0222 52.3405 25.5299 52.3128 24.1504C52.2948 23.0851 52.1062 22.8517 51.3882 22.8517H51.0025V25.6278H51.747V25.8963H48.7956ZM51.0029 22.5568H51.3798C52.2864 22.5568 52.5459 22.4045 52.5459 21.7771V20.9084C52.5459 20.4792 52.6897 20.1835 51.6489 20.1835H51.0029V22.5568ZM58.7999 19.9149H59.0782V21.5002H58.7911C58.6558 20.7657 58.019 20.0492 57.2385 20.0492C56.7452 20.0492 56.0536 20.3357 56.0536 20.9263C56.0536 21.4546 56.4304 21.5985 56.8701 21.6968C57.3278 21.7951 58.0815 21.9745 58.4948 22.1536C59.033 22.3869 59.4731 22.8613 59.4731 23.9003C59.4731 24.9477 58.8356 26.031 57.3731 26.031C56.9061 26.031 56.5113 25.8967 56.134 25.6102L55.6763 25.9507H55.3531V24.2132H55.6763C55.9186 25.0372 56.5109 25.7625 57.4175 25.7625C58.4139 25.7625 58.844 25.1263 58.844 24.5628C58.844 23.7924 57.9742 23.73 57.1124 23.5059C56.2418 23.2817 55.3712 22.9236 55.3712 21.5709C55.3712 20.5507 56.233 19.7806 57.2561 19.7806C57.6862 19.7806 58.0991 19.9509 58.4675 20.1747L58.7999 19.9149ZM60.1447 25.8963V25.6282H60.8086V20.1835H60.1447V19.9149H63.0705V20.1835H62.3164V25.6282H63.0705V25.8963H60.1447ZM63.5718 19.9149H69.0281L69.1182 21.8582H68.876C68.5796 20.7741 68.2837 20.0935 67.0543 20.1835V25.6282H67.7903V25.8967H64.8105V25.6282H65.5465V20.1835C64.3171 20.0935 64.0212 20.7745 63.7248 21.8582H63.4825L63.5718 19.9149ZM69.2972 19.9149H72.1598V20.1835H71.4862L72.9222 22.6099L74.0619 20.416C74.134 20.2818 73.9995 20.1835 73.8109 20.1835H73.2814V19.9149H75.1752V20.1835H74.8428C74.5918 20.1835 74.4932 20.2278 74.2594 20.6758L73.0752 22.9776V25.6282H73.8653V25.8967H70.8142V25.6282H71.5675V23.2017L69.8443 20.1835H69.2976V19.9149H69.2972Z" fill="black"/>
<path fill-rule="evenodd" clip-rule="evenodd" d="M8.9334 -0.0310287H6.65958V1.8044H2.88161V5.64149H0.0391312V11.314H2.91485V15.0512H6.65998V16.9534L8.66109 16.9494C13.3425 16.9494 17.4605 13.1826 17.4605 8.47795C17.4601 3.80646 13.6148 -0.0310287 8.9334 -0.0310287Z" fill="#CF4044"/>
</g>
<defs>
<clipPath id="clip0">
<rect width="75" height="26" fill="white"/>
</clipPath>
</defs>
</svg>
