<svg width="29" height="17" viewBox="0 0 29 17" fill="none" xmlns="http://www.w3.org/2000/svg">
<g clip-path="url(#clip0)">
<path d="M1.35177 13.0558C1.36837 13.0491 1.38825 13.0499 1.39589 13.0577C1.40354 13.0654 1.38995 13.071 1.36568 13.07C1.33885 13.0688 1.33339 13.0633 1.35177 13.0558ZM1.74919 12.9118C1.80572 12.8753 1.96578 12.7421 2.10487 12.6158C3.2531 11.5728 4.63635 10.5318 5.996 9.68755C6.35929 9.46193 6.39135 9.42776 6.39135 9.42776C6.39135 9.42776 6.24814 9.46643 6.13416 9.50025C4.53579 9.97447 1.69204 10.9052 1.34175 11.0687C1.14713 11.1595 0.927845 11.3072 0.769098 11.4544L0.654193 11.561L0.744989 11.4556C0.920822 11.2515 1.23129 11.0113 1.9778 10.5017C2.93485 9.8485 3.90244 9.25721 5.00584 8.65135C5.25508 8.5145 6.54961 7.85594 6.77891 7.74934C6.88023 7.70223 7.06511 7.61563 7.18976 7.55689C7.31443 7.49814 7.42037 7.45007 7.42521 7.45007C7.43007 7.45007 7.50189 7.41845 7.58486 7.3798C7.66782 7.34115 7.74029 7.30953 7.74593 7.30953C7.75157 7.30953 7.81195 7.28358 7.88011 7.25186C8.27859 7.06646 9.51522 6.58433 10.2296 6.33587L10.5554 6.22266L9.37759 7.87171C9.37759 7.87171 9.24286 7.93617 9.17371 7.96856C8.57342 8.24991 7.9429 8.56423 7.58654 8.7598C7.49063 8.81243 7.33184 8.89915 7.2337 8.95249C7.13553 9.00582 7.04487 9.057 7.03221 9.06623C7.01955 9.07546 6.95219 9.11488 6.88253 9.15384C6.61664 9.30251 6.53508 9.35313 6.54501 9.36322C6.55385 9.37222 6.65031 9.34662 7.13583 9.2064C7.72071 9.03749 8.79487 8.73839 8.79487 8.73839C8.79487 8.73839 8.58883 9.00875 8.40749 9.28473C8.22615 9.56071 7.53417 10.6543 7.53417 10.6543C7.53417 10.6543 6.80229 10.9405 6.61773 11.0104C6.5544 11.0344 6.35752 11.1082 6.18021 11.1745C6.00291 11.2408 5.78012 11.3252 5.68514 11.3622C5.59015 11.3992 5.39845 11.4733 5.25914 11.527C4.58254 11.7875 3.20463 12.3425 2.26974 12.731C1.94271 12.8669 1.66869 12.9781 1.66077 12.9781C1.65287 12.9781 1.69266 12.9483 1.74919 12.9118ZM0.371262 12.2988C0.371262 12.2537 0.376005 12.2353 0.381785 12.2578C0.387588 12.2804 0.387588 12.3173 0.381785 12.3398C0.376005 12.3624 0.371262 12.3439 0.371262 12.2988ZM27.2148 10.8618C27.1704 10.8456 26.9682 10.7232 26.7658 10.5897C25.9286 10.0377 25.0243 9.56277 24.1426 9.21193L24.0058 9.15894L23.8985 8.73839C23.8458 8.50143 23.8184 8.28537 23.8184 8.28537C23.8184 8.28537 24.5997 8.60363 24.9916 8.79784C25.8311 9.21376 26.9254 9.92273 27.3705 10.3392C27.5794 10.5345 27.6236 10.7101 27.4935 10.8282C27.4149 10.8997 27.3429 10.9084 27.2148 10.8618ZM10.8972 9.57205C10.8972 9.57205 11.7882 8.05556 11.8096 8.04921C11.8978 8.02305 13.0142 7.80415 13.4452 7.73343C14.3836 7.57947 16.3395 7.41182 16.3395 7.41182L13.0555 8.96687C13.0555 8.96687 11.7658 9.32511 11.357 9.44357C10.9362 9.56547 10.8972 9.57205 10.8972 9.57205ZM22.8287 8.78027C21.2315 8.33231 19.4642 8.17034 17.521 8.29383C17.3247 8.30629 16.6163 8.38354 16.6163 8.38354C16.6163 8.38354 18.4694 7.72111 19.1492 7.55389C19.4824 7.47188 19.9855 7.41585 20.0512 7.41644C20.1161 7.41702 20.7837 7.50781 21.1516 7.5689C21.8157 7.67918 22.9664 7.99887 22.9664 7.99887C22.9664 7.99887 23.0315 8.2002 23.0893 8.42592C23.1471 8.65165 23.2003 8.86376 23.1962 8.87366C23.1923 8.88357 23.006 8.83 22.8287 8.78027ZM25.9638 7.62379C25.9638 7.62379 24.254 6.77978 23.6519 6.63888C23.4967 6.60257 23.3693 6.57311 23.3693 6.57311C23.3693 6.57311 23.2759 6.3715 23.213 6.16628C23.1501 5.96106 23.1015 5.74174 23.1015 5.74174C23.1015 5.74174 23.4631 5.8799 23.8117 6.05741C24.4003 6.35721 24.8705 6.66437 25.3731 7.07703C25.5855 7.25132 25.9638 7.62379 25.9638 7.62379ZM12.7128 6.62197C12.7128 6.60824 13.5563 5.40348 13.5749 5.39582C13.6674 5.35785 14.7188 5.15706 15.2183 5.08468C16.3591 4.91931 17.0738 4.8662 18.1657 4.86569C19.2259 4.86522 19.6733 4.89937 20.7217 5.06081C21.1505 5.12684 22.0879 5.35185 22.1353 5.402C22.1655 5.43377 22.4315 6.22266 22.4315 6.22266C22.4315 6.22266 20.9384 5.84603 19.9388 5.73512C19.5777 5.69506 17.6587 5.69511 17.2677 5.73521C16.6462 5.79892 16.5139 5.81342 16.3696 5.83364C16.2873 5.84516 16.1319 5.86678 16.0242 5.88166C15.6449 5.93408 14.7932 6.0894 14.4872 6.16199C14.4334 6.17476 14.3453 6.19535 14.2914 6.20774C13.8497 6.30954 12.7128 6.62197 12.7128 6.62197Z" fill="#E0CF1A"/>
<path d="M0.958591 13.0464C0.62051 12.9654 0.412831 12.7113 0.393603 12.3553C0.365695 11.8383 0.7175 11.3601 1.33916 11.0699C1.69168 10.9053 4.52942 9.97637 6.13398 9.5003C6.24796 9.46648 6.54626 9.3614 6.54626 9.3614C6.54626 9.3614 6.35912 9.46198 5.99582 9.6876C4.62512 10.5388 3.2768 11.5545 2.08125 12.6367C1.78659 12.9034 1.61359 13.0086 1.40458 13.0483C1.25822 13.0761 1.07918 13.0754 0.958591 13.0464Z" fill="#C6B116"/>
<path d="M4.8264 15.2412L7.534 10.6543C7.534 10.6543 7.6547 10.6298 7.7851 10.5849C8.62637 10.2951 9.17616 10.1096 9.50743 10.0039C9.7164 9.93712 9.91328 9.87352 9.94494 9.86251C9.9766 9.85153 10.0802 9.81925 10.1752 9.79084C10.2702 9.7624 10.4049 9.72106 10.4746 9.69897C10.6806 9.63359 10.897 9.57206 10.897 9.57206C10.897 9.57206 10.297 10.6296 10.2395 10.7001C10.2258 10.7169 10.1151 10.8009 9.99343 10.8867C8.8863 11.6681 7.45405 12.8105 6.27215 13.8548C5.68986 14.3694 4.8264 15.2412 4.8264 15.2412ZM24.0597 12.54C23.9209 12.4427 23.919 12.4363 23.7581 11.5745C23.6066 10.7638 23.4447 9.9838 23.292 9.32934C23.2073 8.96535 23.1962 8.87487 23.1962 8.87487L24.0056 9.15895C24.0056 9.15895 24.1028 9.57007 24.3034 10.6357C24.3992 11.1454 24.544 12.0857 24.544 12.1981C24.544 12.4398 24.4256 12.5797 24.2209 12.5798C24.1604 12.5799 24.0929 12.5632 24.0597 12.54ZM8.94596 8.47488C9.32089 7.92252 9.37742 7.87171 9.37742 7.87171C9.37742 7.87171 9.60126 7.77287 9.64559 7.75511C9.68991 7.73738 9.77799 7.69934 9.84132 7.67055C9.90745 7.6405 10.4884 7.3874 11.118 7.15635C11.87 6.88039 12.6865 6.62198 12.7122 6.62198C12.7229 6.62198 12.5329 6.93241 12.2928 7.30172C12.0526 7.67102 11.8066 8.05353 11.8066 8.05353C11.8066 8.05353 8.81379 8.7384 8.79723 8.7384C8.78065 8.7384 8.84759 8.61983 8.94596 8.47488ZM23.8182 8.28538L22.9662 7.99888C22.9662 7.99888 22.9627 7.99963 22.8651 7.64813L22.7762 7.32809L22.9291 7.34421C23.1808 7.37077 23.6001 7.44584 23.6001 7.44584L23.8182 8.28538ZM22.9206 6.50858C22.7686 6.48392 22.6123 6.45888 22.5729 6.45293C22.5418 6.44817 22.5006 6.44189 22.5006 6.44189L22.4313 6.22267L23.257 6.51102L23.3692 6.57311C23.3692 6.57311 23.1985 6.55365 22.9206 6.50858ZM10.5553 6.22267C10.5553 6.22267 10.9447 5.69889 11.3343 5.21483C13.712 2.26117 15.7335 0.654402 17.5438 0.279432C17.8877 0.2082 18.5469 0.200845 18.8564 0.264792C20.3867 0.580968 21.6258 1.95748 22.6565 4.48696C22.7958 4.82876 23.1014 5.74384 23.1014 5.74384C23.1014 5.74384 22.137 5.40925 22.1257 5.3943C22.1144 5.37936 22.0633 5.26697 22.0336 5.18967C21.9254 4.90753 21.624 4.26696 21.4494 3.94771C20.8291 2.81343 20.1535 2.09336 19.4164 1.78126C18.8699 1.54983 18.2724 1.53456 17.6705 1.73663C17.2645 1.87292 16.6984 2.18733 16.2889 2.50389C15.5495 3.07541 13.5748 5.39583 13.5748 5.39583L10.5553 6.22267Z" fill="#0187DD"/>
<path d="M7.46815 15.8208C7.46815 15.8208 10.1671 10.7664 10.231 10.7191C10.231 10.7191 10.7571 10.3453 11.4649 9.89315C11.8997 9.61541 12.5591 9.21594 12.8005 9.08407C12.8828 9.03909 13.033 8.95673 13.1343 8.90108C13.8705 8.49659 14.4476 8.20672 15.1262 7.90057C15.3087 7.81824 15.7776 7.61972 15.9321 7.55938C16.0144 7.52724 16.2165 7.44828 16.3811 7.38393C17.4874 6.9515 18.8282 6.61507 20.0466 6.46412C20.7521 6.3767 22.5008 6.44189 22.5008 6.44189C22.5008 6.44189 22.553 6.59169 22.5867 6.70359C22.62 6.81546 22.7764 7.32809 22.7764 7.32809L22.4568 7.29572C21.337 7.22451 20.0988 7.34683 18.9832 7.63886C18.46 7.77577 18.0265 7.90875 17.7282 8.02378C17.6712 8.04575 17.5417 8.09532 17.4404 8.13392C17.2206 8.21764 17.1945 8.22823 17.0604 8.28803C17.0034 8.31344 16.8273 8.39053 16.669 8.45935C15.1731 9.10962 13.3944 10.2243 11.8333 11.4898C10.3809 12.6671 9.09586 13.9332 7.69506 15.567C7.62902 15.644 7.46815 15.8208 7.46815 15.8208ZM25.8533 8.19927C25.807 8.18752 25.6255 8.1156 25.4503 8.03948C24.922 7.81013 24.4841 7.66097 23.9595 7.53176C23.7836 7.48843 23.6001 7.44587 23.6001 7.44587C23.6001 7.44587 23.5112 7.19104 23.458 7.00215C23.4089 6.82715 23.3693 6.57311 23.3693 6.57311C23.3693 6.57311 23.9644 6.70958 24.3204 6.83242C25.001 7.0672 25.771 7.44537 25.991 7.64907C26.3281 7.96119 26.2436 8.29847 25.8533 8.19927Z" fill="#C91756"/>
<path d="M13.0478 16.7478C12.6808 16.7044 12.4331 16.507 12.2888 16.1428C12.2379 16.0142 12.2367 15.9895 12.2296 14.9399L12.2223 13.8683H11.8795V13.2124H12.2232L12.2298 12.9989L12.2364 12.7853L12.6927 12.4718C12.9436 12.2994 13.1586 12.1583 13.1705 12.1583C13.1832 12.1583 13.192 12.3738 13.192 12.6853V13.2124H13.6756V13.8667L13.19 13.88L13.1915 14.8598C13.1931 15.9426 13.1957 15.9643 13.3326 16.0363C13.3884 16.0656 13.4424 16.0726 13.5417 16.0635L13.6756 16.0511V16.6729L13.5432 16.7097C13.3772 16.7557 13.2185 16.7679 13.0478 16.7478ZM15.1208 16.7493C14.5336 16.645 14.0956 16.2315 13.9306 15.6255C13.781 15.0767 13.8334 14.3927 14.0614 13.9151C14.1748 13.6777 14.4278 13.4173 14.6582 13.3008C14.9966 13.1298 15.4667 13.1 15.8371 13.226C16.2585 13.3694 16.5099 13.6555 16.6593 14.1617C16.7153 14.3518 16.7215 14.4099 16.724 14.7701L16.7267 15.1683L15.73 15.1744L14.7333 15.1805L14.7478 15.3032C14.7913 15.6709 14.925 15.8855 15.1838 16.0028C15.4045 16.1028 15.874 16.0857 16.2146 15.9653C16.3062 15.9329 16.3898 15.9037 16.4003 15.9004C16.4185 15.8947 16.6219 16.4502 16.6227 16.5076C16.6233 16.5537 16.2666 16.6783 16.0056 16.7231C15.7432 16.7681 15.3005 16.7813 15.1208 16.7493ZM15.8649 14.612C15.8659 14.5959 15.87 14.5651 15.8741 14.5436C15.8873 14.474 15.8177 14.1252 15.7728 14.0365C15.7195 13.9311 15.6203 13.8328 15.5335 13.7995C15.4322 13.7606 15.2182 13.7704 15.1135 13.8187C14.9164 13.9098 14.7828 14.1562 14.7447 14.4987L14.7289 14.6412H15.296C15.7334 14.6412 15.8635 14.6345 15.8649 14.612ZM25.7461 16.7477C25.5156 16.7172 25.1264 16.5827 25.0886 16.5203C25.0785 16.5038 25.2897 15.9174 25.3168 15.8863C25.3208 15.8818 25.3908 15.9116 25.4723 15.9524C25.9224 16.1779 26.3174 16.0467 26.3174 15.6717C26.3174 15.4684 26.1928 15.3319 25.8798 15.1927C25.5789 15.0588 25.35 14.8715 25.2544 14.6807C25.0596 14.2923 25.1614 13.7441 25.4838 13.4443C25.6201 13.3174 25.7071 13.2663 25.9029 13.198C26.0885 13.1333 26.5386 13.1388 26.785 13.2088C26.9607 13.2587 27.1772 13.3557 27.2011 13.3954C27.2078 13.4063 27.1691 13.5251 27.1148 13.6594C27.0607 13.7936 27.0095 13.9221 27.0013 13.945C26.9872 13.9835 26.9796 13.9823 26.8993 13.9291C26.8516 13.8975 26.7512 13.8538 26.6761 13.832C26.3519 13.7377 26.1009 13.8844 26.1064 14.165C26.1103 14.3636 26.2338 14.4999 26.5393 14.6428C27.0858 14.8984 27.3064 15.1876 27.3073 15.6494C27.3087 16.402 26.648 16.8668 25.7461 16.7477ZM17.1526 16.7026V13.406L17.2681 13.3572C17.4009 13.3011 17.8007 13.1987 17.9701 13.1774C18.0334 13.1695 18.2303 13.1587 18.4076 13.1535C19.3439 13.1257 19.838 13.4376 19.917 14.1058C19.9306 14.2204 19.9375 14.7971 19.9338 15.4962L19.9274 16.6908L18.9718 16.7035V14.1124L18.92 14.0079C18.8444 13.8554 18.7171 13.7905 18.4901 13.7887C18.394 13.7879 18.2662 13.8016 18.2061 13.8191L18.0968 13.8509V16.7026H17.1526ZM20.4685 16.7026V13.4004L20.5549 13.3633C21.0182 13.1643 21.9473 13.0869 22.406 13.2092C22.7374 13.2974 23.0063 13.4841 23.115 13.7012C23.2304 13.9317 23.2318 13.9512 23.2318 15.3717V16.7026H22.289L22.2761 14.0674L22.222 13.9788C22.1421 13.8481 22.0146 13.7898 21.8041 13.7879C21.7092 13.787 21.5821 13.8008 21.522 13.8186L21.4126 13.8509V16.7026H20.4685ZM23.7844 16.7026V13.2124H24.7285V16.7026H23.7844Z" fill="#60615B"/>
<path d="M7.53188 10.6563C7.53188 10.6563 8.30254 9.43711 8.54674 9.07282C8.71134 8.82731 8.79472 8.73835 8.79472 8.73835C8.79472 8.73835 10.099 8.41807 10.4976 8.32585C10.7105 8.27662 10.8287 8.24963 10.9409 8.22466C10.9947 8.21267 11.0854 8.19245 11.1424 8.17971C11.1993 8.16697 11.3082 8.14394 11.3841 8.12853C11.4601 8.11314 11.5534 8.09217 11.5914 8.08196C11.7177 8.04802 11.8094 8.04917 11.8094 8.04917C11.8094 8.04917 11.6674 8.28889 11.5071 8.55227C11.3467 8.81565 11.1441 9.15237 11.0567 9.30052L10.897 9.57201C10.897 9.57201 8.51082 10.3304 7.81911 10.5741C7.65675 10.6312 7.53188 10.6563 7.53188 10.6563ZM23.5928 9.01927C23.38 8.94495 23.202 8.88009 23.1972 8.87514C23.1866 8.86435 22.9605 8.00272 22.9664 7.99888C22.9722 7.99518 23.4666 8.15251 23.7033 8.24078L23.8182 8.28362L23.903 8.65704C24.0123 9.13826 24.0057 9.1589 24.0057 9.1589C24.0057 9.1589 23.8058 9.09362 23.5928 9.01927ZM9.47535 7.71355C9.70451 7.38442 10.178 6.72581 10.3629 6.47892L10.5552 6.22224L10.797 6.14272C10.9299 6.09899 11.0698 6.05462 11.1078 6.04413C11.1458 6.03361 11.2857 5.99168 11.4187 5.9509C11.5517 5.91012 11.6915 5.868 11.7295 5.8573C12.3363 5.68633 12.7861 5.56796 13.1457 5.48469C13.266 5.45684 13.5748 5.39578 13.5748 5.39578C13.5748 5.39578 13.4646 5.58122 13.3137 5.79136C13.1627 6.00149 12.9707 6.27399 12.8869 6.39687C12.794 6.5331 12.7103 6.62499 12.7103 6.62499C12.7103 6.62499 11.3317 7.07939 11.0963 7.16897C10.9887 7.20994 10.8229 7.27285 10.7279 7.30878C10.4793 7.40286 9.97692 7.60868 9.83489 7.67464C9.76804 7.7057 9.62495 7.76274 9.54199 7.80139C9.45902 7.84004 9.38534 7.87166 9.3782 7.87166C9.37108 7.87166 9.41479 7.8005 9.47535 7.71355ZM23.3692 6.57306C23.3692 6.57306 22.8345 6.36899 22.6933 6.32055L22.4306 6.22302L22.2798 5.81235C22.1967 5.58649 22.1257 5.39425 22.1257 5.39425L23.1007 5.74048L23.3692 6.57306Z" fill="#02851A"/>
<path d="M5.1605 16.8557C4.71285 16.7524 4.4795 16.504 4.48081 16.1322C4.48157 15.9225 4.52732 15.7668 4.66355 15.5103C4.81286 15.2292 4.92831 15.0848 5.22889 14.8029C6.70668 13.4171 8.52033 11.9269 10.0019 10.8811L10.2312 10.7192L10.1732 10.8239C10.1413 10.8815 9.94871 11.229 9.74529 11.5962C9.29169 12.4149 8.69381 13.5286 8.09173 14.6764C7.52775 15.7516 7.49351 15.8111 7.32793 16.0046C6.97474 16.4172 6.55885 16.696 6.11061 16.8205C5.87253 16.8866 5.37455 16.9051 5.1605 16.8557ZM23.393 7.41413C23.3106 7.39738 23.1392 7.37103 23.0121 7.35554L22.7766 7.32814L22.6338 6.88341L22.5009 6.44194L22.5728 6.453C22.6124 6.45906 22.8035 6.48811 22.9979 6.51753C23.2615 6.55747 23.3695 6.57316 23.3695 6.57316L23.6005 7.44589C23.6005 7.44589 23.5468 7.4454 23.393 7.41413Z" fill="#000C67"/>
</g>
<defs>
<clipPath id="clip0">
<rect width="29" height="17" fill="white"/>
</clipPath>
</defs>
</svg>
