<svg width="19" height="19" viewBox="0 0 19 19" fill="none" xmlns="http://www.w3.org/2000/svg">
<path d="M17.1445 0H1.85547C0.830722 0 0 0.830722 0 1.85547V17.1445C0 18.1693 0.830722 19 1.85547 19H17.1445C18.1693 19 19 18.1693 19 17.1445V1.85547C19 0.830722 18.1693 0 17.1445 0Z" fill="url(#paint0_linear)"/>
<path d="M15.6394 2.47H11.6256C11.1337 2.47 10.735 2.86875 10.735 3.36063V9.89187C10.735 10.3838 11.1337 10.7825 11.6256 10.7825H15.6394C16.1313 10.7825 16.53 10.3838 16.53 9.89187V3.36063C16.53 2.86875 16.1313 2.47 15.6394 2.47Z" fill="white"/>
<path d="M7.37437 2.47H3.36063C2.86875 2.47 2.47 2.86875 2.47 3.36063V14.6419C2.47 15.1338 2.86875 15.5325 3.36063 15.5325H7.37437C7.86625 15.5325 8.265 15.1338 8.265 14.6419V3.36063C8.265 2.86875 7.86625 2.47 7.37437 2.47Z" fill="white"/>
<defs>
<linearGradient id="paint0_linear" x1="9.5" y1="0" x2="9.5" y2="19" gradientUnits="userSpaceOnUse">
<stop stop-color="#0091E6"/>
<stop offset="1" stop-color="#0079BF"/>
</linearGradient>
</defs>
</svg>
