<?xml version="1.0" standalone="no"?>
<!DOCTYPE svg PUBLIC "-//W3C//DTD SVG 20010904//EN"
 "http://www.w3.org/TR/2001/REC-SVG-20010904/DTD/svg10.dtd">
<svg version="1.0" xmlns="http://www.w3.org/2000/svg"
 width="1608.000000pt" height="1608.000000pt" viewBox="0 0 1608.000000 1608.000000"
 preserveAspectRatio="xMidYMid meet">
<metadata>
Created by potrace 1.11, written by Peter Selinger 2001-2013
</metadata>
<g transform="translate(0.000000,1608.000000) scale(0.100000,-0.100000)"
fill="#000000" stroke="none">
<path d="M7198 12835 c-1 -1 -46 -6 -99 -9 -52 -4 -106 -9 -120 -11 -13 -2
-45 -7 -71 -9 -26 -3 -63 -9 -84 -12 -20 -3 -48 -7 -63 -9 -14 -2 -27 -4 -28
-6 -2 -1 -12 -3 -23 -4 -11 -1 -21 -4 -22 -5 -2 -1 -16 -3 -33 -5 -16 -1 -30
-3 -30 -4 0 -2 -7 -4 -15 -6 -8 -2 -27 -6 -42 -9 -94 -20 -102 -22 -173 -42
-33 -9 -67 -18 -75 -19 -8 -2 -55 -18 -105 -35 -49 -17 -101 -33 -114 -36 -14
-3 -29 -8 -35 -12 -6 -3 -16 -7 -21 -8 -6 -1 -32 -11 -57 -23 -26 -11 -50 -21
-53 -21 -3 0 -32 -12 -63 -26 -104 -47 -120 -54 -131 -54 -6 0 -11 -3 -11 -7
0 -5 -21 -17 -48 -27 -26 -11 -68 -32 -94 -48 -27 -15 -48 -24 -48 -20 0 4 -4
2 -8 -4 -4 -6 -41 -29 -83 -52 -41 -23 -86 -50 -99 -62 -12 -11 -27 -20 -31
-20 -7 0 -85 -51 -213 -140 -45 -31 -182 -139 -209 -164 -15 -14 -30 -26 -33
-26 -3 0 -18 -12 -34 -27 -16 -16 -66 -62 -111 -103 -101 -93 -87 -79 -194
-195 -49 -54 -98 -107 -107 -117 -10 -10 -18 -20 -18 -23 0 -2 -15 -20 -32
-39 -18 -19 -49 -57 -68 -83 -19 -26 -38 -50 -41 -53 -15 -12 -214 -309 -245
-365 -25 -47 -40 -71 -53 -87 -8 -10 -10 -18 -5 -18 5 0 4 -4 -1 -8 -6 -4 -24
-34 -40 -67 -16 -33 -37 -71 -46 -85 -9 -14 -17 -28 -18 -32 -1 -5 -13 -34
-27 -65 -51 -115 -112 -270 -144 -363 -17 -52 -34 -102 -37 -110 -4 -8 -7 -19
-8 -25 -2 -5 -14 -50 -29 -100 -14 -49 -27 -102 -30 -117 -3 -15 -7 -31 -9
-35 -3 -5 -8 -24 -11 -43 -3 -19 -8 -45 -11 -57 -11 -47 -14 -62 -20 -99 -4
-22 -8 -49 -8 -61 -1 -13 -3 -23 -6 -23 -4 0 -6 -12 -7 -27 -2 -68 -17 -179
-26 -190 -7 -9 -7 -13 -1 -13 6 0 8 -15 3 -39 -18 -100 -18 -741 0 -741 3 0 7
-17 8 -37 4 -54 11 -125 16 -148 2 -11 7 -41 10 -67 l6 -46 -50 19 c-27 10
-50 16 -50 11 0 -4 -4 -2 -8 4 -7 12 -187 68 -282 88 -116 25 -184 37 -235 42
-33 4 -81 10 -107 14 -50 7 -438 5 -500 -4 -61 -8 -121 -17 -153 -22 -56 -9
-240 -52 -300 -70 -33 -10 -63 -17 -67 -16 -5 1 -8 -2 -8 -6 0 -4 -9 -8 -19
-9 -24 -2 -221 -81 -238 -95 -7 -6 -13 -8 -13 -4 0 4 -11 -1 -25 -10 -14 -9
-25 -12 -25 -8 0 5 -4 4 -8 -2 -4 -6 -34 -25 -67 -42 -90 -47 -172 -95 -194
-113 -10 -10 -28 -20 -40 -24 -12 -3 -21 -10 -21 -14 0 -3 -14 -15 -32 -25
-33 -20 -59 -40 -88 -67 -10 -9 -25 -21 -33 -25 -62 -36 -365 -339 -401 -402
-5 -9 -18 -26 -28 -37 -31 -32 -151 -214 -193 -290 -22 -38 -44 -73 -49 -77
-6 -4 -8 -8 -4 -8 3 0 -11 -35 -32 -77 -45 -93 -110 -255 -110 -275 0 -8 -3
-18 -7 -22 -5 -4 -8 -11 -9 -14 0 -4 -6 -20 -12 -35 -7 -16 -10 -32 -7 -37 3
-5 1 -11 -4 -14 -5 -4 -13 -25 -17 -49 -9 -48 -11 -56 -13 -59 -2 -2 -4 -14
-7 -28 -2 -14 -7 -36 -10 -50 -4 -14 -8 -34 -10 -45 -1 -11 -5 -33 -9 -50 -6
-30 -8 -44 -22 -170 -10 -89 -10 -439 1 -525 8 -70 11 -91 22 -160 4 -25 8
-55 8 -67 1 -13 5 -23 9 -23 4 0 7 -6 6 -12 -5 -29 80 -317 120 -408 8 -19 15
-37 16 -40 13 -42 144 -304 168 -335 4 -5 30 -46 58 -90 29 -44 61 -92 73
-106 11 -14 32 -41 46 -59 14 -19 39 -50 56 -70 17 -19 42 -48 55 -64 38 -45
168 -173 229 -225 30 -25 60 -50 66 -56 6 -5 26 -21 44 -35 19 -14 42 -33 52
-42 10 -10 18 -16 18 -13 0 3 9 -3 20 -13 11 -10 33 -25 48 -33 15 -8 29 -16
32 -19 38 -41 406 -230 446 -230 7 0 14 -3 16 -8 3 -8 163 -65 188 -67 8 0 20
-4 25 -7 13 -8 170 -48 205 -53 14 -2 25 -5 25 -6 0 -1 9 -3 20 -4 21 -3 106
-16 140 -20 11 -2 20 -4 20 -5 0 -15 10276 -22 10475 -7 52 4 113 9 135 12 22
3 60 8 85 10 25 3 52 7 60 9 8 1 49 8 90 15 41 7 113 22 159 33 46 11 89 21
95 22 66 14 397 123 411 137 5 5 19 9 31 9 12 0 27 7 34 15 7 8 19 15 26 15 8
0 47 15 86 34 40 18 75 33 78 34 3 0 42 21 88 46 45 25 87 46 92 46 6 0 10 5
10 11 0 5 5 7 10 4 6 -3 10 -1 10 4 0 6 7 11 15 11 8 0 15 4 15 9 0 5 10 13
23 17 39 12 305 192 376 254 9 8 33 27 53 42 20 15 42 33 50 40 7 7 33 30 58
52 78 67 215 202 286 283 38 42 76 84 84 93 8 8 34 40 57 70 24 30 46 60 51
65 40 50 92 126 92 135 0 6 5 8 10 5 6 -3 10 -1 10 5 0 7 10 26 23 43 12 17
27 39 32 49 6 9 27 45 48 78 20 34 37 66 37 71 0 5 5 9 10 9 6 0 10 4 10 9 0
5 20 45 45 90 25 45 45 88 45 95 0 8 4 16 9 18 12 4 163 359 176 413 1 6 5 17
8 25 8 23 48 158 52 178 2 9 4 17 5 17 1 0 3 7 5 15 2 8 8 35 14 60 16 64 26
109 36 160 36 189 51 306 59 473 2 54 6 100 8 102 5 6 1 234 -6 250 -3 8 -1
15 5 15 6 0 7 5 3 11 -3 6 -8 45 -11 87 -4 81 -9 137 -16 187 -3 17 -8 55 -12
85 -7 55 -18 121 -29 173 -3 15 -8 37 -11 50 -11 58 -16 77 -35 152 -12 44
-23 87 -25 95 -2 8 -8 27 -14 43 -6 15 -7 27 -4 27 4 0 2 5 -5 12 -7 7 -12 20
-12 30 0 10 -4 26 -9 36 -15 28 -92 236 -93 250 -1 6 -5 12 -10 12 -4 0 -8 5
-8 10 0 13 -32 84 -83 185 -73 145 -92 179 -135 250 -24 39 -48 79 -55 90 -7
11 -14 22 -17 25 -3 3 -18 25 -35 50 -41 62 -174 239 -197 262 -10 10 -16 18
-14 18 17 0 -321 343 -414 421 -36 30 -67 57 -70 60 -3 3 -36 30 -75 59 -38
30 -71 57 -73 62 -2 4 -9 8 -16 8 -7 0 -21 9 -33 19 -11 10 -34 26 -51 35 -18
9 -32 20 -32 25 0 5 -8 11 -17 15 -10 3 -30 14 -44 23 -40 27 -228 135 -274
158 -22 11 -41 23 -43 28 -2 4 -12 7 -23 7 -10 0 -19 5 -19 11 0 6 -6 9 -14 6
-8 -3 -16 -2 -18 2 -4 9 -244 113 -303 131 -22 7 -44 15 -50 19 -5 3 -14 6
-20 7 -5 1 -39 12 -75 24 -108 35 -291 82 -297 76 -4 -3 -11 -1 -18 4 -7 5
-27 12 -46 14 -19 3 -34 6 -34 7 0 1 -9 3 -20 4 -69 10 -90 14 -90 15 0 1 -13
3 -30 6 -63 8 -90 12 -90 13 0 1 -27 4 -60 7 -33 2 -89 7 -125 10 -148 13
-518 6 -660 -11 -25 -3 -65 -8 -90 -11 -25 -3 -58 -8 -75 -11 -16 -3 -41 -7
-55 -8 -14 -2 -25 -4 -25 -5 0 -1 -9 -3 -20 -5 -124 -18 -322 -70 -497 -130
l-126 -43 -10 26 c-42 112 -78 205 -98 249 -25 55 -45 105 -46 113 0 3 -4 10
-9 16 -5 7 -35 61 -65 120 -78 152 -129 244 -143 254 -3 3 -12 15 -18 28 -7
12 -19 32 -25 45 -7 12 -15 24 -18 27 -3 3 -30 41 -60 85 -30 44 -58 85 -62
90 -4 6 -27 35 -50 65 -49 63 -66 84 -93 115 -50 57 -65 76 -65 81 0 8 -356
364 -365 364 -4 0 -15 8 -24 18 -13 15 -193 162 -252 205 -51 39 -79 57 -88
57 -5 0 -11 4 -13 8 -4 12 -125 92 -137 92 -6 0 -11 4 -11 9 0 5 -10 13 -22
17 -12 3 -28 13 -36 20 -7 8 -20 14 -28 14 -8 0 -14 4 -14 8 0 8 -51 36 -59
32 -2 -1 -7 2 -10 7 -20 27 -502 253 -540 253 -6 0 -19 4 -29 9 -19 10 -49 22
-72 28 -24 6 -33 9 -60 20 -14 6 -41 14 -60 18 -19 4 -39 10 -45 13 -5 4 -14
7 -20 8 -5 1 -35 9 -66 18 -31 9 -61 16 -65 14 -5 -1 -20 4 -34 12 -14 7 -26
12 -28 11 -2 -2 -73 9 -92 14 -3 1 -17 5 -32 9 -15 5 -44 9 -65 11 -21 2 -40
5 -43 6 -3 1 -9 3 -15 4 -5 2 -12 4 -15 5 -3 1 -23 3 -45 5 -22 1 -50 5 -63 8
-13 3 -58 9 -100 12 -42 4 -90 9 -107 12 -33 5 -551 13 -557 8z"/>
</g>
</svg>
