<svg width="70" height="17" viewBox="0 0 70 17" fill="none" xmlns="http://www.w3.org/2000/svg">
<g clip-path="url(#clip0)">
<path fill-rule="evenodd" clip-rule="evenodd" d="M50.0657 -0.0240135H56.506H70V12.6942V12.7144V12.7345C70 13.8594 69.5577 14.9383 68.7705 15.7337C67.9833 16.5291 66.9156 16.976 65.8023 16.976H45.8489V4.23683C45.8543 3.10848 46.3003 2.02791 47.09 1.23003C47.8796 0.43216 48.949 -0.0185147 50.0657 -0.0240135ZM50.9298 9.76044C50.3172 9.76044 49.8472 10.2454 49.8472 10.8024C49.8465 10.9458 49.8741 11.088 49.9283 11.2205C49.9826 11.353 50.0624 11.4733 50.1632 11.5743C50.264 11.6752 50.3837 11.7549 50.5154 11.8086C50.647 11.8623 50.7879 11.8889 50.9298 11.887C51.491 11.887 51.961 11.4005 51.961 10.8024C51.9565 10.5275 51.8464 10.2651 51.654 10.0707C51.4615 9.87627 51.2019 9.76502 50.9298 9.76044ZM52.6043 10.6994L53.5849 9.51253C54.2688 10.0796 55.0347 10.4104 55.8927 10.4104C56.5459 10.4104 56.8832 10.1424 56.8832 9.76044C56.8832 9.33745 56.5566 9.24449 55.5354 8.99736C54.0342 8.65649 52.9217 8.24435 52.9217 6.82045C52.9217 5.45853 54.0043 4.55058 55.6051 4.55058C56.779 4.55058 57.6982 4.89145 58.4419 5.52051L57.5564 6.77862C56.9131 6.28359 56.2085 6.02561 55.5553 6.02561C54.9933 6.02561 54.6774 6.29366 54.6774 6.64537C54.6774 7.07843 55.0148 7.2233 56.0575 7.45028C57.63 7.79115 58.6405 8.24512 58.6405 9.57528C58.6405 10.9992 57.5671 11.8862 55.8329 11.8862C54.5847 11.8854 53.4515 11.4733 52.6043 10.6994ZM66.2876 11.8637L63.6931 8.20639L66.2853 4.58157H64.2152L62.6504 6.7577L61.1062 4.58157H58.9963L61.6031 8.23893L58.9963 11.8637H61.0664L62.632 9.67677L64.1869 11.8637H66.2876Z" fill="#242423"/>
<path d="M35.1204 3.36839L35.0299 3.37537L35.1204 3.36839Z" fill="#242423"/>
<path d="M34.8152 3.39628L34.7202 3.40868L34.8152 3.39628Z" fill="#242423"/>
<path d="M33.5605 3.71856L33.5034 3.7418L33.5605 3.71856Z" fill="#242423"/>
<path d="M29.5403 2.39305C29.2004 2.73029 28.8893 3.09595 28.6103 3.48615C28.808 3.21038 29.0218 2.94677 29.2505 2.69673C29.3445 2.5924 29.4411 2.49118 29.5403 2.39305Z" fill="#242423"/>
<path d="M33.8538 3.61087L33.7771 3.63644L33.8538 3.61087Z" fill="#242423"/>
<path d="M34.489 3.44741L34.4273 3.45826L34.489 3.44741Z" fill="#242423"/>
<path d="M34.1386 3.52565L34.0876 3.54037L34.1386 3.52565Z" fill="#242423"/>
<path d="M28.5727 3.53651L28.6093 3.48383L28.5727 3.53651Z" fill="#242423"/>
<path d="M33.7794 3.63644C33.7058 3.66226 33.633 3.68963 33.5609 3.71855C33.633 3.68963 33.7058 3.66226 33.7794 3.63644Z" fill="#242423"/>
<path d="M34.0876 3.54037C34.0089 3.56207 33.931 3.58557 33.8538 3.61087C33.931 3.58557 34.0089 3.56207 34.0876 3.54037Z" fill="#242423"/>
<path d="M35.0299 3.37536C34.9578 3.38104 34.8863 3.38802 34.8152 3.39628C34.8863 3.38802 34.9578 3.38104 35.0299 3.37536Z" fill="#242423"/>
<path d="M34.425 3.45826C34.3273 3.47788 34.231 3.50035 34.1359 3.52566C34.2325 3.49932 34.3289 3.47685 34.425 3.45826Z" fill="#242423"/>
<path d="M35.4217 3.35832C35.3197 3.35832 35.2185 3.36219 35.115 3.36839C35.2208 3.36219 35.322 3.35832 35.4217 3.35832Z" fill="#242423"/>
<path d="M34.7202 3.40868C34.6425 3.41952 34.5658 3.43218 34.4901 3.44664C34.5658 3.43269 34.6425 3.42004 34.7202 3.40868Z" fill="#242423"/>
<path d="M43.5732 10.5808C43.054 9.77135 42.4007 9.05827 41.6419 8.47289C41.2571 8.18291 40.8464 7.92978 40.4152 7.71678C39.226 7.11329 37.8575 6.81736 36.3471 6.81736H34.5016C33.1453 6.81736 32.0382 6.45015 31.1603 5.74595V5.73665C31.3827 5.38255 31.6468 5.05711 31.947 4.7675C31.947 4.7675 31.9546 4.75821 31.9577 4.75433C32.178 4.54288 32.4167 4.3518 32.6707 4.18338L32.7068 4.15936C32.7834 4.11133 32.8555 4.06562 32.9322 4.02147L32.9667 4.00132C33.1403 3.90341 33.3195 3.81598 33.5034 3.73948L33.5609 3.71624C33.6329 3.68731 33.7058 3.65994 33.7794 3.63412L33.856 3.60855C33.9332 3.58325 34.0112 3.55975 34.0899 3.53805L34.1405 3.52333C34.2361 3.49803 34.3324 3.47556 34.4295 3.45594L34.4909 3.44509C34.5675 3.43063 34.6442 3.41798 34.7209 3.40713L34.816 3.39473C34.887 3.38595 34.9586 3.37898 35.0306 3.37382L35.1211 3.36685C35.2215 3.36065 35.3228 3.35677 35.4278 3.35677C36.0917 3.35588 36.7493 3.48758 37.3627 3.7443C37.9761 4.00103 38.5333 4.37772 39.0022 4.85272L41.3789 2.45115C40.5972 1.6604 39.6684 1.03371 38.646 0.607185C37.6236 0.180659 36.5278 -0.0372812 35.4217 -0.034084C35.2724 -0.034084 35.1244 -0.0302105 34.9777 -0.0224635C34.931 -0.0224635 34.8842 -0.0147165 34.8374 -0.0116177C34.7378 -0.00464541 34.6373 0.00232689 34.5384 0.012398C34.4847 0.0178209 34.4318 0.0263426 34.3782 0.0333149C34.2869 0.0449353 34.1957 0.0557811 34.106 0.0705004C34.0508 0.0790221 33.9964 0.0906426 33.9419 0.099939C33.8545 0.115433 33.7663 0.130927 33.6797 0.14952C33.626 0.16114 33.5724 0.17431 33.5187 0.186705C33.4321 0.206847 33.3454 0.22699 33.2596 0.250231C33.2074 0.264175 33.1568 0.279669 33.1062 0.294389C33.0203 0.319179 32.9337 0.344744 32.8486 0.371858C32.7995 0.388127 32.7512 0.405171 32.7022 0.422214C32.6155 0.452427 32.5297 0.48264 32.4445 0.515178L32.3081 0.569407C32.2207 0.604268 32.134 0.640679 32.0489 0.678639L31.924 0.735967C31.8358 0.777026 31.7491 0.81886 31.6625 0.862243L31.549 0.92112C31.4606 0.967602 31.373 1.01563 31.2861 1.06521L31.1856 1.12409C31.0962 1.17574 31.0075 1.23023 30.9196 1.28755L30.8322 1.34411C30.7417 1.40402 30.6523 1.46548 30.5638 1.52848L30.4872 1.58194C30.3952 1.6496 30.3047 1.7188 30.2157 1.78956L30.1575 1.83604C30.0639 1.91196 29.9719 1.98943 29.8815 2.06845L29.8401 2.10486C29.744 2.19059 29.6502 2.27865 29.5587 2.36903L29.5364 2.39072C29.4373 2.48885 29.3404 2.58931 29.2459 2.69208C29.0185 2.94376 28.8063 3.20892 28.6103 3.48615L28.5735 3.53883C28.4876 3.65865 28.4058 3.77976 28.3281 3.90216L28.2906 3.96181C28.1139 4.24662 27.9541 4.54178 27.8121 4.84575C27.8029 4.86589 27.7937 4.88681 27.7845 4.90695C27.7257 5.03503 27.6703 5.16415 27.6182 5.2943L27.5767 5.40043C27.5256 5.52903 27.4796 5.65815 27.4387 5.78778C27.4295 5.81489 27.4203 5.84201 27.4111 5.86912C27.3598 6.03104 27.3122 6.19527 27.2708 6.36183C27.2708 6.36183 27.2708 6.38197 27.2708 6.38275C27.2371 6.51832 27.208 6.65699 27.1804 6.81193H21.851V10.1431H26.6429C26.2526 11.2736 25.4815 12.2294 24.4644 12.8435C23.4473 13.4577 22.249 13.691 21.0788 13.5028C19.9087 13.3146 18.8413 12.7168 18.0632 11.8139C17.2851 10.911 16.8458 9.76051 16.8222 8.56353C16.8222 8.53951 16.8222 8.51627 16.8222 8.51627C16.8222 8.51627 16.8222 8.49148 16.8222 8.48838C16.8237 7.47851 17.1211 6.49169 17.6769 5.6524C18.2328 4.8131 19.0222 4.15892 19.9455 3.77236C20.8688 3.3858 21.8848 3.28417 22.8652 3.4803C23.8456 3.67643 24.7466 4.16153 25.4545 4.87441L27.8313 2.47284C26.7529 1.38811 25.4039 0.618736 23.9276 0.246436C22.4513 -0.125863 20.9027 -0.0871878 19.4463 0.358354C17.99 0.803896 16.6803 1.63967 15.6563 2.77691C14.6322 3.91415 13.9322 5.31039 13.6304 6.81736H8.43371V10.1486H13.1796C12.8184 11.194 12.1303 12.0923 11.2193 12.7078C10.3083 13.3233 9.22387 13.6226 8.1297 13.5605C7.03553 13.4983 5.99108 13.0782 5.15407 12.3634C4.31707 11.6486 3.73295 10.6781 3.48994 9.59832C3.24693 8.51857 3.35823 7.38823 3.80701 6.37802C4.2558 5.3678 5.0177 4.53256 5.97768 3.99843C6.93765 3.4643 8.04356 3.26029 9.1284 3.4172C10.2132 3.5741 11.2181 4.08341 11.9912 4.86821L14.368 2.46665C13.1562 1.24032 11.6025 0.417533 9.91491 0.108544C8.22735 -0.200445 6.48665 0.0191282 4.92607 0.737838C3.36548 1.45655 2.05959 2.64006 1.18339 4.12976C0.307195 5.61945 -0.0974432 7.34417 0.0237048 9.07276C0.144853 10.8014 0.785999 12.4512 1.86122 13.8013C2.93644 15.1514 4.39437 16.1371 6.03961 16.6264C7.68486 17.1158 9.43882 17.0853 11.0664 16.5391C12.6941 15.9929 14.1176 14.957 15.1462 13.5704C16.1707 14.951 17.5868 15.9837 19.2063 16.5314C20.8258 17.079 22.5718 17.1157 24.2124 16.6363C25.8529 16.157 27.3102 15.1845 28.3905 13.8481C29.4708 12.5116 30.123 10.8746 30.2602 9.15462C30.3177 9.18561 30.3729 9.2197 30.4312 9.24914V9.24216C31.6203 9.84643 32.9889 10.1486 34.5016 10.1486H36.3501C37.7026 10.1486 38.8036 10.5072 39.683 11.2068C39.683 11.2068 39.6884 11.2169 39.6914 11.2184C39.286 11.8651 38.7418 12.4115 38.0992 12.817C37.4565 13.2225 36.7319 13.4768 35.9788 13.5611C35.2258 13.6454 34.4636 13.5575 33.7487 13.3039C33.0338 13.0503 32.3845 12.6376 31.8488 12.0962L29.4851 14.4869L29.4743 14.4985C30.5252 15.5591 31.835 16.3198 33.271 16.7034C34.7069 17.087 36.2177 17.0798 37.65 16.6825C39.0823 16.2853 40.385 15.5121 41.4258 14.4415C42.4667 13.3709 43.2086 12.0411 43.5763 10.587L43.5732 10.5808Z" fill="#242423"/>
</g>
<defs>
<clipPath id="clip0">
<rect width="70" height="17" fill="white"/>
</clipPath>
</defs>
</svg>
